font.ufo
<glyph name="exclam" format="1">
  <advance width="221"/>
  <unicode hex="0021"/>
  <outline>
    <contour>
      <point x="132" y="229" type="line"/>
      <point x="136" y="722" type="line"/>
      <point x="85" y="722" type="line"/>
      <point x="89" y="229" type="line"/>
    </contour>
    <contour>
      <point x="137" y="19" type="curve"/>
      <point x="137" y="36"/>
      <point x="126" y="44"/>
      <point x="111" y="44" type="curve"/>
      <point x="95" y="44"/>
      <point x="86" y="34"/>
      <point x="86" y="19" type="curve"/>
      <point x="139" y="19"/>
      <point x="83" y="19"/>
      <point x="137" y="19" type="curve"/>
      <point x="137" y="3"/>
      <point x="126" y="-6"/>
      <point x="111" y="-6" type="curve"/>
      <point x="95" y="-6"/>
      <point x="86" y="3"/>
      <point x="86" y="19" type="curve"/>
      <point x="139" y="19"/>
      <point x="83" y="19"/>
    </contour>
  </outline>
</glyph>
<glyph name="quotedbl" format="1">
  <advance width="341"/>
  <unicode hex="0022"/>
  <outline>
    <contour>
      <point x="126" y="532" type="line"/>
      <point x="130" y="724" type="line"/>
      <point x="85" y="724" type="line"/>
      <point x="89" y="532" type="line"/>
    </contour>
    <contour>
      <point x="252" y="532" type="line"/>
      <point x="256" y="724" type="line"/>
      <point x="211" y="724" type="line"/>
      <point x="215" y="532" type="line"/>
    </contour>
  </outline>
</glyph>
<glyph name="numbersign" format="1">
  <advance width="463"/>
  <unicode hex="0023"/>
  <outline>
    <contour>
      <point x="47" y="243" type="line"/>
      <point x="364" y="243" type="line"/>
      <point x="372" y="278" type="line"/>
      <point x="54" y="278" type="line"/>
    </contour>
    <contour>
      <point x="91" y="483" type="line"/>
      <point x="408" y="483" type="line"/>
      <point x="416" y="517" type="line"/>
      <point x="97" y="517" type="line"/>
    </contour>
    <contour>
      <point x="264" y="39" type="line"/>
      <point x="397" y="722" type="line"/>
      <point x="356" y="722" type="line"/>
      <point x="223" y="39" type="line"/>
    </contour>
    <contour>
      <point x="111" y="46" type="line"/>
      <point x="241" y="722" type="line"/>
      <point x="200" y="722" type="line"/>
      <point x="72" y="46" type="line"/>
    </contour>
  </outline>
</glyph>
<glyph name="dollar" format="1">
  <advance width="393"/>
  <unicode hex="0024"/>
  <outline>
    <contour>
      <point x="95" y="98" type="curve"/>
      <point x="95" y="218"/>
      <point x="95" y="97"/>
      <point x="95" y="217" type="curve"/>
      <point x="60" y="217"/>
      <point x="95" y="217"/>
      <point x="60" y="217" type="curve"/>
      <point x="60" y="97"/>
      <point x="60" y="218"/>
      <point x="60" y="98" type="curve"/>
      <point x="95" y="98"/>
      <point x="60" y="98"/>
    </contour>
    <contour>
      <point x="287" y="632" type="curve"/>
      <point x="287" y="512"/>
      <point x="287" y="632"/>
      <point x="287" y="512" type="curve"/>
      <point x="322" y="512"/>
      <point x="287" y="512"/>
      <point x="322" y="512" type="curve"/>
      <point x="322" y="632"/>
      <point x="322" y="512"/>
      <point x="322" y="632" type="curve"/>
      <point x="287" y="632"/>
      <point x="322" y="632"/>
    </contour>
    <contour>
      <point x="207" y="-43" type="curve"/>
      <point x="207" y="-9"/>
      <point x="207" y="31"/>
      <point x="207" y="65" type="curve"/>
      <point x="166" y="65"/>
      <point x="207" y="65"/>
      <point x="166" y="65" type="curve"/>
      <point x="166" y="31"/>
      <point x="166" y="-9"/>
      <point x="166" y="-43" type="curve"/>
      <point x="207" y="-43"/>
      <point x="166" y="-43"/>
    </contour>
    <contour>
      <point x="214" y="665" type="curve"/>
      <point x="214" y="699"/>
      <point x="214" y="740"/>
      <point x="214" y="773" type="curve"/>
      <point x="174" y="773"/>
      <point x="214" y="773"/>
      <point x="174" y="773" type="curve"/>
      <point x="174" y="740"/>
      <point x="174" y="699"/>
      <point x="174" y="665" type="curve"/>
      <point x="214" y="665"/>
      <point x="174" y="665"/>
    </contour>
    <contour>
      <point x="60" y="98" type="curve"/>
      <point x="92" y="72"/>
      <point x="134" y="47"/>
      <point x="185" y="47" type="curve"/>
      <point x="280" y="47"/>
      <point x="338" y="118"/>
      <point x="338" y="201" type="curve"/>
      <point x="338" y="280"/>
      <point x="283" y="341"/>
      <point x="208" y="391" type="curve"/>
      <point x="147" y="432"/>
      <point x="111" y="473"/>
      <point x="111" y="540" type="curve"/>
      <point x="111" y="597"/>
      <point x="138" y="650"/>
      <point x="197" y="650" type="curve"/>
      <point x="241" y="650"/>
      <point x="269" y="631"/>
      <point x="302" y="603" type="curve"/>
      <point x="322" y="632"/>
      <point x="302" y="603"/>
      <point x="322" y="632" type="curve"/>
      <point x="284" y="665"/>
      <point x="249" y="684"/>
      <point x="198" y="684" type="curve"/>
      <point x="115" y="684"/>
      <point x="69" y="618"/>
      <point x="69" y="540" type="curve"/>
      <point x="69" y="462"/>
      <point x="111" y="407"/>
      <point x="184" y="359" type="curve"/>
      <point x="248" y="317"/>
      <point x="297" y="268"/>
      <point x="297" y="200" type="curve"/>
      <point x="297" y="136"/>
      <point x="258" y="81"/>
      <point x="189" y="81" type="curve"/>
      <point x="145" y="81"/>
      <point x="110" y="106"/>
      <point x="82" y="128" type="curve"/>
      <point x="60" y="98"/>
      <point x="82" y="128"/>
    </contour>
  </outline>
</glyph>
<glyph name="percent" format="1">
  <advance width="637"/>
  <unicode hex="0025"/>
  <outline>
    <contour>
      <point x="209" y="-85" type="line"/>
      <point x="470" y="750" type="line"/>
      <point x="428" y="750" type="line"/>
      <point x="167" y="-85" type="line"/>
    </contour>
    <contour>
      <point x="76" y="549" type="curve"/>
      <point x="76" y="642"/>
      <point x="81" y="725"/>
      <point x="159" y="725" type="curve"/>
      <point x="238" y="726"/>
      <point x="243" y="643"/>
      <point x="243" y="549" type="curve"/>
      <point x="243" y="455"/>
      <point x="240" y="371"/>
      <point x="161" y="371" type="curve"/>
      <point x="82" y="371"/>
      <point x="76" y="454"/>
      <point x="76" y="549" type="curve"/>
      <point x="62" y="549"/>
      <point x="54" y="549"/>
      <point x="40" y="549" type="curve"/>
      <point x="40" y="434"/>
      <point x="61" y="339"/>
      <point x="160" y="339" type="curve"/>
      <point x="259" y="339"/>
      <point x="281" y="435"/>
      <point x="281" y="551" type="curve"/>
      <point x="281" y="663"/>
      <point x="258" y="758"/>
      <point x="160" y="758" type="curve"/>
      <point x="62" y="758"/>
      <point x="40" y="662"/>
      <point x="40" y="549" type="curve"/>
      <point x="54" y="549"/>
      <point x="62" y="549"/>
    </contour>
    <contour>
      <point x="393" y="120" type="curve"/>
      <point x="393" y="214"/>
      <point x="399" y="296"/>
      <point x="476" y="296" type="curve"/>
      <point x="555" y="297"/>
      <point x="559" y="215"/>
      <point x="559" y="121" type="curve"/>
      <point x="559" y="28"/>
      <point x="557" y="-58"/>
      <point x="479" y="-58" type="curve"/>
      <point x="400" y="-58"/>
      <point x="393" y="26"/>
      <point x="393" y="120" type="curve"/>
      <point x="379" y="120"/>
      <point x="370" y="120"/>
      <point x="357" y="120" type="curve"/>
      <point x="357" y="7"/>
      <point x="379" y="-90"/>
      <point x="477" y="-90" type="curve"/>
      <point x="576" y="-90"/>
      <point x="597" y="8"/>
      <point x="597" y="122" type="curve"/>
      <point x="597" y="235"/>
      <point x="576" y="329"/>
      <point x="478" y="329" type="curve"/>
      <point x="380" y="329"/>
      <point x="357" y="234"/>
      <point x="357" y="120" type="curve"/>
      <point x="370" y="120"/>
      <point x="379" y="120"/>
    </contour>
  </outline>
</glyph>
<glyph name="ampersand" format="1">
  <advance width="456"/>
  <unicode hex="0026"/>
  <outline>
    <contour>
      <point x="435" y="9" type="line"/>
      <point x="367" y="122"/>
      <point x="299" y="240"/>
      <point x="229" y="353" type="curve"/>
      <point x="189" y="425"/>
      <point x="142" y="489"/>
      <point x="142" y="573" type="curve"/>
      <point x="142" y="634"/>
      <point x="156" y="691"/>
      <point x="203" y="691" type="curve"/>
      <point x="253" y="691"/>
      <point x="268" y="636"/>
      <point x="268" y="575" type="curve"/>
      <point x="268" y="499"/>
      <point x="231" y="445"/>
      <point x="173" y="394" type="curve"/>
      <point x="105" y="331"/>
      <point x="61" y="270"/>
      <point x="61" y="181" type="curve"/>
      <point x="61" y="79"/>
      <point x="106" y="-5"/>
      <point x="197" y="-5" type="curve"/>
      <point x="349" y="-5"/>
      <point x="382" y="153"/>
      <point x="412" y="317" type="curve"/>
      <point x="377" y="325"/>
      <point x="412" y="317"/>
      <point x="377" y="325" type="curve"/>
      <point x="350" y="179"/>
      <point x="324" y="31"/>
      <point x="199" y="31" type="curve"/>
      <point x="131" y="31"/>
      <point x="103" y="100"/>
      <point x="103" y="181" type="curve"/>
      <point x="103" y="257"/>
      <point x="139" y="312"/>
      <point x="195" y="364" type="curve"/>
      <point x="262" y="425"/>
      <point x="310" y="487"/>
      <point x="310" y="576" type="curve"/>
      <point x="310" y="658"/>
      <point x="277" y="727"/>
      <point x="205" y="727" type="curve"/>
      <point x="131" y="727"/>
      <point x="102" y="656"/>
      <point x="102" y="573" type="curve"/>
      <point x="102" y="480"/>
      <point x="151" y="411"/>
      <point x="199" y="332" type="curve"/>
      <point x="266" y="220"/>
      <point x="334" y="100"/>
      <point x="402" y="-10" type="curve"/>
    </contour>
  </outline>
</glyph>
<glyph name="quotesingle" format="1">
  <advance width="216"/>
  <unicode hex="0027"/>
  <outline>
    <contour>
      <point x="126" y="532" type="line"/>
      <point x="130" y="724" type="line"/>
      <point x="85" y="724" type="line"/>
      <point x="89" y="532" type="line"/>
    </contour>
  </outline>
</glyph>
<glyph name="parenleft" format="1">
  <advance width="250"/>
  <unicode hex="0028"/>
  <outline>
    <contour>
      <point x="237" y="-232" type="curve"/>
      <point x="118" y="-47"/>
      <point x="96" y="110"/>
      <point x="96" y="326" type="curve"/>
      <point x="96" y="543"/>
      <point x="120" y="699"/>
      <point x="237" y="886" type="curve"/>
      <point x="210" y="907"/>
      <point x="237" y="886"/>
      <point x="210" y="907" type="curve"/>
      <point x="86" y="715"/>
      <point x="55" y="552"/>
      <point x="55" y="326" type="curve"/>
      <point x="55" y="99"/>
      <point x="87" y="-62"/>
      <point x="210" y="-256" type="curve"/>
      <point x="237" y="-232"/>
      <point x="210" y="-256"/>
    </contour>
  </outline>
</glyph>
<glyph name="parenright" format="1">
  <advance width="257"/>
  <unicode hex="0029"/>
  <outline>
    <contour>
      <point x="38" y="-271" type="curve"/>
      <point x="162" y="-70"/>
      <point x="204" y="93"/>
      <point x="204" y="327" type="curve"/>
      <point x="204" y="555"/>
      <point x="169" y="716"/>
      <point x="41" y="908" type="curve"/>
      <point x="14" y="885"/>
      <point x="41" y="908"/>
      <point x="14" y="885" type="curve"/>
      <point x="135" y="700"/>
      <point x="162" y="542"/>
      <point x="162" y="326" type="curve"/>
      <point x="162" y="103"/>
      <point x="126" y="-55"/>
      <point x="10" y="-248" type="curve"/>
      <point x="38" y="-271"/>
      <point x="10" y="-248"/>
    </contour>
  </outline>
</glyph>
<glyph name="asterisk" format="1">
  <advance width="504"/>
  <unicode hex="002A"/>
  <outline>
    <contour>
      <point x="270" y="512" type="line"/>
      <point x="274" y="704" type="line"/>
      <point x="234" y="704" type="line"/>
      <point x="237" y="512" type="line"/>
    </contour>
    <contour>
      <point x="243" y="507" type="line"/>
      <point x="427" y="564" type="line"/>
      <point x="413" y="601" type="line"/>
      <point x="232" y="537" type="line"/>
    </contour>
    <contour>
      <point x="229" y="530" type="line"/>
      <point x="341" y="374" type="line"/>
      <point x="373" y="399" type="line"/>
      <point x="255" y="550" type="line"/>
    </contour>
    <contour>
      <point x="247" y="552" type="line"/>
      <point x="130" y="400" type="line"/>
      <point x="161" y="376" type="line"/>
      <point x="273" y="532" type="line"/>
    </contour>
    <contour>
      <point x="272" y="540" type="line"/>
      <point x="91" y="604" type="line"/>
      <point x="78" y="567" type="line"/>
      <point x="262" y="510" type="line"/>
    </contour>
  </outline>
</glyph>
<glyph name="plus" format="1">
  <advance width="572"/>
  <unicode hex="002B"/>
  <outline>
    <contour>
      <point x="53" y="291" type="curve"/>
      <point x="519" y="291" type="line"/>
      <point x="519" y="329"/>
      <point x="519" y="291"/>
      <point x="519" y="329" type="curve"/>
      <point x="53" y="329" type="line"/>
      <point x="53" y="291"/>
      <point x="53" y="329"/>
    </contour>
    <contour>
      <point x="307" y="25" type="curve"/>
      <point x="307" y="586" type="line"/>
      <point x="266" y="586"/>
      <point x="308" y="586"/>
      <point x="267" y="586" type="curve"/>
      <point x="267" y="25" type="line"/>
      <point x="308" y="25"/>
      <point x="266" y="25"/>
    </contour>
  </outline>
</glyph>
<glyph name="comma" format="1">
  <advance width="192"/>
  <unicode hex="002C"/>
  <outline>
    <contour>
      <point x="48" y="-102" type="line"/>
      <point x="82" y="-81"/>
      <point x="105" y="-50"/>
      <point x="105" y="5" type="curve"/>
      <point x="105" y="35"/>
      <point x="98" y="56"/>
      <point x="76" y="56" type="curve"/>
      <point x="59" y="56"/>
      <point x="48" y="47"/>
      <point x="48" y="30" type="curve"/>
      <point x="48" y="16"/>
      <point x="55" y="7"/>
      <point x="69" y="3" type="curve"/>
      <point x="69" y="-18"/>
      <point x="62" y="-55"/>
      <point x="35" y="-76" type="curve"/>
    </contour>
  </outline>
</glyph>
<glyph name="hyphen" format="1">
  <advance width="341"/>
  <unicode hex="002D"/>
  <outline>
    <contour>
      <point x="82" y="255" type="curve"/>
      <point x="142" y="255"/>
      <point x="202" y="255"/>
      <point x="260" y="255" type="curve"/>
      <point x="260" y="293"/>
      <point x="260" y="255"/>
      <point x="260" y="293" type="curve"/>
      <point x="202" y="293"/>
      <point x="142" y="293"/>
      <point x="82" y="293" type="curve"/>
      <point x="82" y="255"/>
      <point x="82" y="293"/>
    </contour>
  </outline>
</glyph>
<glyph name="period" format="1">
  <advance width="208"/>
  <unicode hex="002E"/>
  <outline>
    <contour>
      <point x="129" y="19" type="curve"/>
      <point x="129" y="36"/>
      <point x="119" y="44"/>
      <point x="104" y="44" type="curve"/>
      <point x="88" y="44"/>
      <point x="79" y="34"/>
      <point x="79" y="19" type="curve"/>
      <point x="133" y="19"/>
      <point x="76" y="19"/>
      <point x="129" y="19" type="curve"/>
      <point x="129" y="3"/>
      <point x="119" y="-6"/>
      <point x="104" y="-6" type="curve"/>
      <point x="88" y="-6"/>
      <point x="79" y="3"/>
      <point x="79" y="19" type="curve"/>
      <point x="133" y="19"/>
      <point x="76" y="19"/>
    </contour>
  </outline>
</glyph>
<glyph name="slash" format="1">
  <advance width="374"/>
  <unicode hex="002F"/>
  <outline>
    <contour>
      <point x="77" y="-59" type="curve"/>
      <point x="164" y="238"/>
      <point x="250" y="537"/>
      <point x="338" y="834" type="curve"/>
      <point x="297" y="834"/>
      <point x="338" y="834"/>
      <point x="297" y="834" type="curve"/>
      <point x="209" y="537"/>
      <point x="123" y="238"/>
      <point x="36" y="-59" type="curve"/>
      <point x="77" y="-59"/>
      <point x="36" y="-59"/>
    </contour>
  </outline>
</glyph>
<glyph name="zero" format="1">
  <advance width="498"/>
  <unicode hex="0030"/>
  <outline>
    <contour>
      <point x="106" y="360" type="curve"/>
      <point x="106" y="535"/>
      <point x="108" y="691"/>
      <point x="247" y="691" type="curve"/>
      <point x="389" y="691"/>
      <point x="392" y="536"/>
      <point x="392" y="363" type="curve"/>
      <point x="392" y="190"/>
      <point x="386" y="31"/>
      <point x="251" y="31" type="curve"/>
      <point x="118" y="31"/>
      <point x="106" y="187"/>
      <point x="106" y="360" type="curve"/>
      <point x="67" y="360"/>
      <point x="104" y="360"/>
      <point x="65" y="360" type="curve"/>
      <point x="65" y="164"/>
      <point x="83" y="-5"/>
      <point x="250" y="-5" type="curve"/>
      <point x="416" y="-5"/>
      <point x="432" y="164"/>
      <point x="432" y="363" type="curve"/>
      <point x="432" y="559"/>
      <point x="416" y="727"/>
      <point x="252" y="727" type="curve"/>
      <point x="84" y="727"/>
      <point x="65" y="559"/>
      <point x="65" y="360" type="curve"/>
      <point x="104" y="360"/>
      <point x="67" y="360"/>
    </contour>
  </outline>
</glyph>
<glyph name="four" format="1">
  <advance width="415"/>
  <unicode hex="0034"/>
  <outline>
    <contour>
      <point x="248" y="35" type="line"/>
      <point x="142" y="35" type="line"/>
      <point x="142" y="0" type="line"/>
      <point x="248" y="0" type="line"/>
    </contour>
    <contour>
      <point x="248" y="0" type="line"/>
      <point x="346" y="0" type="line"/>
      <point x="346" y="35" type="line"/>
      <point x="248" y="35" type="line"/>
    </contour>
    <contour>
      <point x="57" y="275" type="line"/>
      <point x="267" y="721" type="line"/>
      <point x="228" y="718" type="line"/>
      <point x="32" y="296" type="line"/>
    </contour>
    <contour>
      <point x="366" y="296" type="line"/>
      <point x="32" y="296" type="line"/>
      <point x="32" y="259" type="line"/>
      <point x="366" y="259" type="line"/>
    </contour>
    <contour>
      <point x="269" y="7" type="line"/>
      <point x="269" y="718" type="line"/>
      <point x="229" y="718" type="line"/>
      <point x="229" y="7" type="line"/>
    </contour>
  </outline>
</glyph>
<glyph name="seven" format="1">
  <advance width="372"/>
  <unicode hex="0037"/>
  <outline>
    <contour>
      <point x="85" y="595" type="line"/>
      <point x="85" y="709" type="line"/>
      <point x="52" y="709" type="line"/>
      <point x="52" y="595" type="line"/>
    </contour>
    <contour>
      <point x="52" y="687" type="line"/>
      <point x="353" y="687" type="line"/>
      <point x="353" y="722" type="line"/>
      <point x="52" y="722" type="line"/>
    </contour>
    <contour>
      <point x="328" y="722" type="line"/>
      <point x="76" y="0" type="line"/>
      <point x="117" y="0" type="line"/>
      <point x="353" y="687" type="line"/>
    </contour>
  </outline>
</glyph>
<glyph name="eight" format="1">
  <advance width="404"/>
  <unicode hex="0038"/>
  <outline>
    <contour>
      <point x="76" y="561" type="curve"/>
      <point x="76" y="471"/>
      <point x="118" y="420"/>
      <point x="190" y="364" type="curve"/>
      <point x="259" y="310"/>
      <point x="298" y="255"/>
      <point x="298" y="172" type="curve"/>
      <point x="298" y="94"/>
      <point x="272" y="32"/>
      <point x="201" y="32" type="curve"/>
      <point x="131" y="32"/>
      <point x="105" y="94"/>
      <point x="105" y="172" type="curve"/>
      <point x="105" y="257"/>
      <point x="145" y="309"/>
      <point x="216" y="364" type="curve"/>
      <point x="284" y="420"/>
      <point x="328" y="471"/>
      <point x="328" y="559" type="curve"/>
      <point x="328" y="657"/>
      <point x="292" y="727"/>
      <point x="201" y="727" type="curve"/>
      <point x="112" y="727"/>
      <point x="76" y="656"/>
      <point x="76" y="561" type="curve"/>
      <point x="117" y="561"/>
      <point x="76" y="561"/>
      <point x="117" y="561" type="curve"/>
      <point x="117" y="631"/>
      <point x="137" y="691"/>
      <point x="200" y="691" type="curve"/>
      <point x="266" y="691"/>
      <point x="287" y="633"/>
      <point x="287" y="559" type="curve"/>
      <point x="287" y="486"/>
      <point x="251" y="439"/>
      <point x="190" y="391" type="curve"/>
      <point x="110" y="329"/>
      <point x="64" y="272"/>
      <point x="64" y="172" type="curve"/>
      <point x="64" y="69"/>
      <point x="104" y="-5"/>
      <point x="199" y="-5" type="curve"/>
      <point x="296" y="-5"/>
      <point x="340" y="68"/>
      <point x="340" y="172" type="curve"/>
      <point x="340" y="271"/>
      <point x="294" y="330"/>
      <point x="216" y="391" type="curve"/>
      <point x="155" y="441"/>
      <point x="117" y="487"/>
      <point x="117" y="561" type="curve"/>
      <point x="76" y="561"/>
      <point x="117" y="561"/>
    </contour>
  </outline>
</glyph>
<glyph name="nine" format="1">
  <advance width="412"/>
  <unicode hex="0039"/>
  <outline>
    <contour>
      <point x="320" y="486" type="curve"/>
      <point x="305" y="423"/>
      <point x="277" y="343"/>
      <point x="200" y="343" type="curve"/>
      <point x="120" y="343"/>
      <point x="100" y="423"/>
      <point x="100" y="517" type="curve"/>
      <point x="100" y="608"/>
      <point x="121" y="689"/>
      <point x="195" y="689" type="curve"/>
      <point x="290" y="689"/>
      <point x="311" y="589"/>
      <point x="311" y="477" type="curve"/>
      <point x="311" y="272"/>
      <point x="250" y="114"/>
      <point x="66" y="20" type="curve"/>
      <point x="83" y="-15"/>
      <point x="66" y="20"/>
      <point x="83" y="-15" type="curve"/>
      <point x="278" y="83"/>
      <point x="352" y="250"/>
      <point x="352" y="479" type="curve"/>
      <point x="352" y="616"/>
      <point x="318" y="728"/>
      <point x="197" y="728" type="curve"/>
      <point x="94" y="728"/>
      <point x="58" y="632"/>
      <point x="58" y="516" type="curve"/>
      <point x="58" y="400"/>
      <point x="94" y="307"/>
      <point x="197" y="307" type="curve"/>
      <point x="287" y="307"/>
      <point x="319" y="387"/>
      <point x="343" y="475" type="curve"/>
      <point x="320" y="486"/>
      <point x="343" y="475"/>
    </contour>
  </outline>
</glyph>
<glyph name="colon" format="1">
  <advance width="215"/>
  <unicode hex="003A"/>
  <outline>
    <contour>
      <point x="133" y="399" type="curve"/>
      <point x="133" y="415"/>
      <point x="122" y="424"/>
      <point x="107" y="424" type="curve"/>
      <point x="91" y="424"/>
      <point x="82" y="414"/>
      <point x="82" y="399" type="curve"/>
      <point x="136" y="399"/>
      <point x="79" y="399"/>
      <point x="133" y="399" type="curve"/>
      <point x="133" y="383"/>
      <point x="123" y="374"/>
      <point x="107" y="374" type="curve"/>
      <point x="91" y="374"/>
      <point x="82" y="383"/>
      <point x="82" y="399" type="curve"/>
      <point x="136" y="399"/>
      <point x="79" y="399"/>
    </contour>
    <contour>
      <point x="133" y="21" type="curve"/>
      <point x="133" y="37"/>
      <point x="122" y="46"/>
      <point x="107" y="46" type="curve"/>
      <point x="91" y="46"/>
      <point x="82" y="36"/>
      <point x="82" y="21" type="curve"/>
      <point x="136" y="21"/>
      <point x="80" y="21"/>
      <point x="133" y="21" type="curve"/>
      <point x="133" y="4"/>
      <point x="123" y="-4"/>
      <point x="107" y="-4" type="curve"/>
      <point x="91" y="-4"/>
      <point x="82" y="5"/>
      <point x="82" y="21" type="curve"/>
      <point x="136" y="21"/>
      <point x="80" y="21"/>
    </contour>
  </outline>
</glyph>
<glyph name="semicolon" format="1">
  <advance width="249"/>
  <unicode hex="003B"/>
  <outline>
    <contour>
      <point x="89" y="-124" type="line"/>
      <point x="123" y="-103"/>
      <point x="148" y="-71"/>
      <point x="148" y="-16" type="curve"/>
      <point x="148" y="14"/>
      <point x="140" y="34"/>
      <point x="118" y="34" type="curve"/>
      <point x="100" y="34"/>
      <point x="89" y="25"/>
      <point x="89" y="8" type="curve"/>
      <point x="89" y="-6"/>
      <point x="95" y="-15"/>
      <point x="111" y="-19" type="curve"/>
      <point x="111" y="-40"/>
      <point x="103" y="-77"/>
      <point x="74" y="-98" type="curve"/>
    </contour>
    <contour>
      <point x="151" y="420" type="curve"/>
      <point x="151" y="437"/>
      <point x="140" y="445"/>
      <point x="125" y="445" type="curve"/>
      <point x="109" y="445"/>
      <point x="100" y="436"/>
      <point x="100" y="420" type="curve"/>
      <point x="153" y="420"/>
      <point x="97" y="420"/>
      <point x="151" y="420" type="curve"/>
      <point x="151" y="404"/>
      <point x="141" y="396"/>
      <point x="125" y="396" type="curve"/>
      <point x="109" y="396"/>
      <point x="100" y="404"/>
      <point x="100" y="420" type="curve"/>
      <point x="153" y="420"/>
      <point x="97" y="420"/>
    </contour>
  </outline>
</glyph>
<glyph name="less" format="1">
  <advance width="475"/>
  <unicode hex="003C"/>
  <outline>
    <contour>
      <point x="412" y="589" type="curve"/>
      <point x="288" y="499"/>
      <point x="164" y="409"/>
      <point x="40" y="319" type="curve"/>
      <point x="40" y="281"/>
      <point x="40" y="319"/>
      <point x="40" y="281" type="curve"/>
      <point x="164" y="371"/>
      <point x="288" y="461"/>
      <point x="412" y="551" type="curve"/>
      <point x="412" y="589"/>
      <point x="412" y="551"/>
    </contour>
    <contour>
      <point x="418" y="55" type="curve"/>
      <point x="291" y="143"/>
      <point x="165" y="231"/>
      <point x="40" y="319" type="curve"/>
      <point x="40" y="281"/>
      <point x="40" y="319"/>
      <point x="40" y="281" type="curve"/>
      <point x="165" y="193"/>
      <point x="291" y="105"/>
      <point x="418" y="17" type="curve"/>
      <point x="418" y="55"/>
      <point x="418" y="17"/>
    </contour>
  </outline>
</glyph>
<glyph name="equal" format="1">
  <advance width="552"/>
  <unicode hex="003D"/>
  <outline>
    <contour>
      <point x="84" y="199" type="curve"/>
      <point x="212" y="199"/>
      <point x="340" y="199"/>
      <point x="468" y="199" type="curve"/>
      <point x="468" y="236"/>
      <point x="468" y="199"/>
      <point x="468" y="236" type="curve"/>
      <point x="340" y="236"/>
      <point x="212" y="236"/>
      <point x="84" y="236" type="curve"/>
      <point x="84" y="199"/>
      <point x="84" y="236"/>
    </contour>
    <contour>
      <point x="84" y="421" type="curve"/>
      <point x="212" y="421"/>
      <point x="340" y="421"/>
      <point x="468" y="421" type="curve"/>
      <point x="468" y="458"/>
      <point x="468" y="421"/>
      <point x="468" y="458" type="curve"/>
      <point x="340" y="458"/>
      <point x="212" y="458"/>
      <point x="84" y="458" type="curve"/>
      <point x="84" y="421"/>
      <point x="84" y="458"/>
    </contour>
  </outline>
</glyph>
<glyph name="question" format="1">
  <advance width="382"/>
  <unicode hex="003F"/>
  <outline>
    <contour>
      <point x="161" y="341" type="curve"/>
      <point x="161" y="304"/>
      <point x="161" y="258"/>
      <point x="161" y="221" type="curve"/>
      <point x="200" y="221"/>
      <point x="161" y="221"/>
      <point x="200" y="221" type="curve"/>
      <point x="200" y="258"/>
      <point x="200" y="304"/>
      <point x="200" y="341" type="curve"/>
      <point x="161" y="341"/>
      <point x="200" y="341"/>
    </contour>
    <contour>
      <point x="85" y="615" type="line"/>
      <point x="102" y="650"/>
      <point x="129" y="679"/>
      <point x="176" y="679" type="curve"/>
      <point x="253" y="679"/>
      <point x="279" y="604"/>
      <point x="279" y="519" type="curve"/>
      <point x="279" y="425"/>
      <point x="251" y="341"/>
      <point x="168" y="341" type="curve"/>
      <point x="168" y="314"/>
      <point x="168" y="333"/>
      <point x="168" y="306" type="curve"/>
      <point x="274" y="306"/>
      <point x="321" y="402"/>
      <point x="321" y="519" type="curve"/>
      <point x="321" y="626"/>
      <point x="275" y="716"/>
      <point x="179" y="716" type="curve"/>
      <point x="113" y="716"/>
      <point x="81" y="682"/>
      <point x="59" y="638" type="curve"/>
    </contour>
    <contour>
      <point x="207" y="20" type="curve"/>
      <point x="207" y="37"/>
      <point x="195" y="46"/>
      <point x="180" y="46" type="curve"/>
      <point x="164" y="46"/>
      <point x="155" y="35"/>
      <point x="155" y="20" type="curve"/>
      <point x="207" y="20"/>
      <point x="155" y="20"/>
      <point x="207" y="20" type="curve"/>
      <point x="207" y="4"/>
      <point x="196" y="-5"/>
      <point x="180" y="-5" type="curve"/>
      <point x="164" y="-5"/>
      <point x="155" y="4"/>
      <point x="155" y="20" type="curve"/>
      <point x="207" y="20"/>
      <point x="155" y="20"/>
    </contour>
  </outline>
</glyph>
<glyph name="at" format="1">
  <advance width="562"/>
  <unicode hex="0040"/>
  <outline>
    <contour>
      <point x="380" y="-94" type="curve"/>
      <point x="352" y="-120"/>
      <point x="328" y="-129"/>
      <point x="290" y="-129" type="curve"/>
      <point x="140" y="-129"/>
      <point x="97" y="15"/>
      <point x="97" y="189" type="curve"/>
      <point x="97" y="359"/>
      <point x="141" y="502"/>
      <point x="286" y="502" type="curve"/>
      <point x="424" y="502"/>
      <point x="463" y="365"/>
      <point x="463" y="207" type="curve"/>
      <point x="463" y="127"/>
      <point x="467" y="52"/>
      <point x="426" y="52" type="curve"/>
      <point x="376" y="52"/>
      <point x="381" y="120"/>
      <point x="381" y="194" type="curve"/>
      <point x="381" y="290"/>
      <point x="363" y="370"/>
      <point x="280" y="370" type="curve"/>
      <point x="194" y="370"/>
      <point x="172" y="292"/>
      <point x="172" y="194" type="curve"/>
      <point x="172" y="91"/>
      <point x="188" y="7"/>
      <point x="276" y="7" type="curve"/>
      <point x="358" y="7"/>
      <point x="368" y="88"/>
      <point x="375" y="183" type="curve"/>
      <point x="350" y="187"/>
      <point x="375" y="183"/>
      <point x="350" y="187" type="curve"/>
      <point x="340" y="117"/>
      <point x="336" y="42"/>
      <point x="281" y="42" type="curve"/>
      <point x="213" y="42"/>
      <point x="209" y="113"/>
      <point x="209" y="196" type="curve"/>
      <point x="209" y="271"/>
      <point x="215" y="335"/>
      <point x="276" y="335" type="curve"/>
      <point x="341" y="335"/>
      <point x="344" y="268"/>
      <point x="344" y="192" type="curve"/>
      <point x="344" y="100"/>
      <point x="343" y="19"/>
      <point x="423" y="19" type="curve"/>
      <point x="505" y="19"/>
      <point x="502" y="107"/>
      <point x="502" y="209" type="curve"/>
      <point x="502" y="392"/>
      <point x="453" y="538"/>
      <point x="288" y="538" type="curve"/>
      <point x="114" y="538"/>
      <point x="58" y="383"/>
      <point x="58" y="188" type="curve"/>
      <point x="58" y="-8"/>
      <point x="115" y="-164"/>
      <point x="287" y="-164" type="curve"/>
      <point x="333" y="-164"/>
      <point x="362" y="-154"/>
      <point x="398" y="-125" type="curve"/>
      <point x="380" y="-94"/>
      <point x="398" y="-125"/>
    </contour>
  </outline>
</glyph>
<glyph name="B" format="1">
  <advance width="473"/>
  <unicode hex="0042"/>
  <outline>
    <contour>
      <point x="150" y="722" type="curve"/>
      <point x="108" y="722"/>
      <point x="85" y="722"/>
      <point x="43" y="722" type="curve"/>
      <point x="43" y="687"/>
      <point x="43" y="722"/>
      <point x="43" y="687" type="curve"/>
      <point x="169" y="687"/>
      <point x="23" y="687"/>
      <point x="150" y="687" type="curve"/>
      <point x="150" y="722"/>
      <point x="150" y="687"/>
    </contour>
    <contour>
      <point x="149" y="35" type="curve"/>
      <point x="22" y="35"/>
      <point x="168" y="35"/>
      <point x="42" y="35" type="curve"/>
      <point x="42" y="0"/>
      <point x="42" y="35"/>
      <point x="42" y="0" type="curve"/>
      <point x="84" y="0"/>
      <point x="107" y="0"/>
      <point x="149" y="0" type="curve"/>
      <point x="149" y="35"/>
      <point x="149" y="0"/>
    </contour>
    <contour>
      <point x="143" y="687" type="curve"/>
      <point x="180" y="687"/>
      <point x="199" y="687"/>
      <point x="237" y="687" type="curve"/>
      <point x="312" y="687"/>
      <point x="345" y="631"/>
      <point x="345" y="552" type="curve"/>
      <point x="345" y="480"/>
      <point x="318" y="427"/>
      <point x="252" y="427" type="curve"/>
      <point x="209" y="427"/>
      <point x="186" y="427"/>
      <point x="143" y="427" type="curve"/>
      <point x="143" y="417"/>
      <point x="143" y="401"/>
      <point x="143" y="392" type="curve"/>
      <point x="179" y="392"/>
      <point x="202" y="392"/>
      <point x="239" y="392" type="curve"/>
      <point x="333" y="392"/>
      <point x="385" y="453"/>
      <point x="385" y="551" type="curve"/>
      <point x="385" y="653"/>
      <point x="335" y="722"/>
      <point x="238" y="722" type="curve"/>
      <point x="200" y="722"/>
      <point x="180" y="722"/>
      <point x="143" y="722" type="curve"/>
      <point x="143" y="712"/>
      <point x="143" y="697"/>
    </contour>
    <contour>
      <point x="172" y="0" type="curve"/>
      <point x="172" y="241"/>
      <point x="172" y="481"/>
      <point x="172" y="722" type="curve"/>
      <point x="129" y="722"/>
      <point x="172" y="722"/>
      <point x="129" y="722" type="curve"/>
      <point x="129" y="481"/>
      <point x="130" y="241"/>
      <point x="129" y="0" type="curve"/>
      <point x="172" y="0"/>
      <point x="129" y="0"/>
    </contour>
    <contour>
      <point x="143" y="392" type="curve"/>
      <point x="186" y="392"/>
      <point x="209" y="392"/>
      <point x="252" y="392" type="curve"/>
      <point x="344" y="392"/>
      <point x="373" y="309"/>
      <point x="373" y="208" type="curve"/>
      <point x="373" y="107"/>
      <point x="331" y="35"/>
      <point x="238" y="35" type="curve"/>
      <point x="200" y="35"/>
      <point x="181" y="35"/>
      <point x="143" y="35" type="curve"/>
      <point x="143" y="25"/>
      <point x="143" y="10"/>
      <point x="143" y="0" type="curve"/>
      <point x="182" y="0"/>
      <point x="201" y="0"/>
      <point x="240" y="0" type="curve"/>
      <point x="355" y="0"/>
      <point x="414" y="84"/>
      <point x="414" y="207" type="curve"/>
      <point x="414" y="335"/>
      <point x="360" y="427"/>
      <point x="239" y="427" type="curve"/>
      <point x="203" y="427"/>
      <point x="179" y="427"/>
      <point x="143" y="427" type="curve"/>
      <point x="143" y="417"/>
      <point x="143" y="401"/>
    </contour>
  </outline>
</glyph>
<glyph name="F" format="1">
  <advance width="441"/>
  <unicode hex="0046"/>
  <outline>
    <contour>
      <point x="150" y="0" type="curve"/>
      <point x="193" y="0"/>
      <point x="150" y="0"/>
      <point x="278" y="0" type="curve"/>
      <point x="278" y="35"/>
      <point x="278" y="0"/>
      <point x="278" y="35" type="curve"/>
      <point x="150" y="35"/>
      <point x="278" y="35"/>
      <point x="150" y="35" type="curve"/>
      <point x="150" y="0"/>
      <point x="150" y="35"/>
    </contour>
    <contour>
      <point x="150" y="722" type="curve"/>
      <point x="108" y="722"/>
      <point x="85" y="722"/>
      <point x="43" y="722" type="curve"/>
      <point x="43" y="687"/>
      <point x="43" y="722"/>
      <point x="43" y="687" type="curve"/>
      <point x="170" y="687"/>
      <point x="23" y="687"/>
      <point x="150" y="687" type="curve"/>
      <point x="150" y="722"/>
      <point x="150" y="687"/>
    </contour>
    <contour>
      <point x="150" y="35" type="curve"/>
      <point x="23" y="35"/>
      <point x="170" y="35"/>
      <point x="43" y="35" type="curve"/>
      <point x="43" y="0"/>
      <point x="43" y="35"/>
      <point x="43" y="0" type="curve"/>
      <point x="85" y="0"/>
      <point x="108" y="0"/>
      <point x="150" y="0" type="curve"/>
      <point x="150" y="35"/>
      <point x="150" y="0"/>
    </contour>
    <contour>
      <point x="359" y="705" type="curve"/>
      <point x="359" y="585"/>
      <point x="359" y="715"/>
      <point x="359" y="595" type="curve"/>
      <point x="394" y="595"/>
      <point x="359" y="595"/>
      <point x="394" y="595" type="curve"/>
      <point x="394" y="715"/>
      <point x="394" y="585"/>
      <point x="394" y="705" type="curve"/>
      <point x="359" y="705"/>
      <point x="394" y="705"/>
    </contour>
    <contour>
      <point x="153" y="356" type="curve"/>
      <point x="218" y="356"/>
      <point x="284" y="356"/>
      <point x="350" y="356" type="curve"/>
      <point x="350" y="391"/>
      <point x="350" y="356"/>
      <point x="350" y="391" type="curve"/>
      <point x="284" y="391"/>
      <point x="218" y="391"/>
      <point x="153" y="391" type="curve"/>
      <point x="153" y="356"/>
      <point x="153" y="391"/>
    </contour>
    <contour>
      <point x="171" y="0" type="curve"/>
      <point x="171" y="722" type="line"/>
      <point x="130" y="722"/>
      <point x="171" y="722"/>
      <point x="130" y="722" type="curve"/>
      <point x="130" y="481"/>
      <point x="130" y="241"/>
      <point x="130" y="0" type="curve"/>
      <point x="171" y="0"/>
      <point x="130" y="0"/>
    </contour>
    <contour>
      <point x="143" y="687" type="curve"/>
      <point x="227" y="687"/>
      <point x="311" y="687"/>
      <point x="394" y="687" type="curve"/>
      <point x="394" y="722"/>
      <point x="394" y="687"/>
      <point x="394" y="722" type="curve"/>
      <point x="311" y="722"/>
      <point x="227" y="722"/>
      <point x="143" y="722" type="curve"/>
      <point x="143" y="687"/>
      <point x="143" y="722"/>
    </contour>
  </outline>
</glyph>
<glyph name="H" format="1">
  <advance width="601"/>
  <unicode hex="0048"/>
  <outline>
    <contour>
      <point x="455" y="687" type="curve"/>
      <point x="581" y="687"/>
      <point x="436" y="687"/>
      <point x="562" y="687" type="curve"/>
      <point x="562" y="722"/>
      <point x="562" y="687"/>
      <point x="562" y="722" type="curve"/>
      <point x="520" y="722"/>
      <point x="497" y="722"/>
      <point x="455" y="722" type="curve"/>
      <point x="455" y="687"/>
      <point x="455" y="722"/>
    </contour>
    <contour>
      <point x="455" y="0" type="curve"/>
      <point x="497" y="0"/>
      <point x="520" y="0"/>
      <point x="562" y="0" type="curve"/>
      <point x="562" y="35"/>
      <point x="562" y="0"/>
      <point x="562" y="35" type="curve"/>
      <point x="436" y="35"/>
      <point x="581" y="35"/>
      <point x="455" y="35" type="curve"/>
      <point x="455" y="0"/>
      <point x="455" y="35"/>
    </contour>
    <contour>
      <point x="455" y="35" type="curve"/>
      <point x="328" y="35"/>
      <point x="474" y="35"/>
      <point x="347" y="35" type="curve"/>
      <point x="347" y="0"/>
      <point x="347" y="35"/>
      <point x="347" y="0" type="curve"/>
      <point x="390" y="0"/>
      <point x="413" y="0"/>
      <point x="455" y="0" type="curve"/>
      <point x="455" y="35"/>
      <point x="455" y="0"/>
    </contour>
    <contour>
      <point x="455" y="722" type="curve"/>
      <point x="413" y="722"/>
      <point x="390" y="722"/>
      <point x="347" y="722" type="curve"/>
      <point x="347" y="687"/>
      <point x="347" y="722"/>
      <point x="347" y="687" type="curve"/>
      <point x="474" y="687"/>
      <point x="328" y="687"/>
      <point x="455" y="687" type="curve"/>
      <point x="455" y="722"/>
      <point x="455" y="687"/>
    </contour>
    <contour>
      <point x="147" y="687" type="curve"/>
      <point x="274" y="687"/>
      <point x="128" y="687"/>
      <point x="255" y="687" type="curve"/>
      <point x="255" y="722"/>
      <point x="255" y="687"/>
      <point x="255" y="722" type="curve"/>
      <point x="212" y="722"/>
      <point x="189" y="722"/>
      <point x="147" y="722" type="curve"/>
      <point x="147" y="687"/>
      <point x="147" y="722"/>
    </contour>
    <contour>
      <point x="147" y="722" type="curve"/>
      <point x="105" y="722"/>
      <point x="82" y="722"/>
      <point x="40" y="722" type="curve"/>
      <point x="40" y="687"/>
      <point x="40" y="722"/>
      <point x="40" y="687" type="curve"/>
      <point x="166" y="687"/>
      <point x="21" y="687"/>
      <point x="147" y="687" type="curve"/>
      <point x="147" y="722"/>
      <point x="147" y="687"/>
    </contour>
    <contour>
      <point x="147" y="0" type="curve"/>
      <point x="189" y="0"/>
      <point x="128" y="0"/>
      <point x="255" y="0" type="curve"/>
      <point x="255" y="35"/>
      <point x="255" y="0"/>
      <point x="255" y="35" type="curve"/>
      <point x="128" y="35"/>
      <point x="274" y="35"/>
      <point x="147" y="35" type="curve"/>
      <point x="147" y="0"/>
      <point x="147" y="35"/>
    </contour>
    <contour>
      <point x="147" y="35" type="curve"/>
      <point x="21" y="35"/>
      <point x="166" y="35"/>
      <point x="40" y="35" type="curve"/>
      <point x="40" y="0"/>
      <point x="40" y="35"/>
      <point x="40" y="0" type="curve"/>
      <point x="82" y="0"/>
      <point x="105" y="0"/>
      <point x="147" y="0" type="curve"/>
      <point x="147" y="35"/>
      <point x="147" y="0"/>
    </contour>
    <contour>
      <point x="167" y="0" type="curve"/>
      <point x="167" y="722" type="line"/>
      <point x="126" y="722"/>
      <point x="167" y="722"/>
      <point x="126" y="722" type="curve"/>
      <point x="126" y="481"/>
      <point x="126" y="241"/>
      <point x="126" y="0" type="curve"/>
      <point x="167" y="0"/>
      <point x="126" y="0"/>
    </contour>
    <contour>
      <point x="453" y="380" type="curve"/>
      <point x="350" y="380"/>
      <point x="249" y="380"/>
      <point x="147" y="380" type="curve"/>
      <point x="147" y="345"/>
      <point x="147" y="380"/>
      <point x="147" y="345" type="curve"/>
      <point x="249" y="345"/>
      <point x="350" y="345"/>
      <point x="453" y="345" type="curve"/>
      <point x="453" y="380"/>
      <point x="453" y="345"/>
    </contour>
    <contour>
      <point x="475" y="8" type="curve"/>
      <point x="475" y="243"/>
      <point x="475" y="479"/>
      <point x="475" y="714" type="curve"/>
      <point x="434" y="714"/>
      <point x="475" y="714"/>
      <point x="434" y="714" type="curve"/>
      <point x="434" y="8" type="line"/>
      <point x="475" y="8"/>
      <point x="434" y="8"/>
    </contour>
  </outline>
</glyph>
<glyph name="J" format="1">
  <advance width="346"/>
  <unicode hex="004A"/>
  <outline>
    <contour>
      <point x="212" y="722" type="curve"/>
      <point x="169" y="722"/>
      <point x="147" y="722"/>
      <point x="104" y="722" type="curve"/>
      <point x="104" y="687"/>
      <point x="104" y="722"/>
      <point x="104" y="687" type="curve"/>
      <point x="231" y="687"/>
      <point x="85" y="687"/>
      <point x="212" y="687" type="curve"/>
      <point x="212" y="722"/>
      <point x="212" y="687"/>
    </contour>
    <contour>
      <point x="212" y="687" type="curve"/>
      <point x="340" y="687"/>
      <point x="193" y="687"/>
      <point x="321" y="687" type="curve"/>
      <point x="321" y="722"/>
      <point x="321" y="687"/>
      <point x="321" y="722" type="curve"/>
      <point x="279" y="722"/>
      <point x="255" y="722"/>
      <point x="212" y="722" type="curve"/>
      <point x="212" y="687"/>
      <point x="212" y="722"/>
    </contour>
    <contour>
      <point x="26" y="38" type="curve"/>
      <point x="49" y="14"/>
      <point x="74" y="-6"/>
      <point x="111" y="-6" type="curve"/>
      <point x="215" y="-6"/>
      <point x="232" y="84"/>
      <point x="232" y="218" type="curve"/>
      <point x="232" y="408"/>
      <point x="232" y="532"/>
      <point x="232" y="722" type="curve"/>
      <point x="206" y="722"/>
      <point x="217" y="722"/>
      <point x="191" y="722" type="curve"/>
      <point x="191" y="532"/>
      <point x="191" y="408"/>
      <point x="191" y="218" type="curve"/>
      <point x="191" y="118"/>
      <point x="193" y="30"/>
      <point x="111" y="30" type="curve"/>
      <point x="81" y="30"/>
      <point x="63" y="48"/>
      <point x="46" y="65" type="curve"/>
      <point x="34" y="49"/>
      <point x="39" y="55"/>
    </contour>
  </outline>
</glyph>
<glyph name="K" format="1">
  <advance width="498"/>
  <unicode hex="004B"/>
  <outline>
    <contour>
      <point x="282" y="-79" type="move" name="bottom"/>
    </contour>
    <contour>
      <point x="375" y="722" type="curve"/>
      <point x="333" y="722"/>
      <point x="331" y="722"/>
      <point x="289" y="722" type="curve"/>
      <point x="289" y="687"/>
      <point x="289" y="722"/>
      <point x="289" y="687" type="curve"/>
      <point x="415" y="687"/>
      <point x="248" y="687"/>
      <point x="375" y="687" type="curve"/>
      <point x="375" y="722"/>
      <point x="375" y="687"/>
    </contour>
    <contour>
      <point x="385" y="0" type="curve"/>
      <point x="431" y="0"/>
      <point x="439" y="0"/>
      <point x="486" y="0" type="curve"/>
      <point x="486" y="35"/>
      <point x="486" y="0"/>
      <point x="486" y="35" type="curve"/>
      <point x="348" y="35"/>
      <point x="523" y="35"/>
      <point x="385" y="35" type="curve"/>
      <point x="385" y="0"/>
      <point x="385" y="35"/>
    </contour>
    <contour>
      <point x="370" y="687" type="curve"/>
      <point x="498" y="687"/>
      <point x="343" y="687"/>
      <point x="471" y="687" type="curve"/>
      <point x="471" y="722"/>
      <point x="471" y="687"/>
      <point x="471" y="722" type="curve"/>
      <point x="428" y="722"/>
      <point x="413" y="722"/>
      <point x="370" y="722" type="curve"/>
      <point x="370" y="687"/>
      <point x="370" y="722"/>
    </contour>
    <contour>
      <point x="146" y="722" type="curve"/>
      <point x="104" y="722"/>
      <point x="81" y="722"/>
      <point x="40" y="722" type="curve"/>
      <point x="40" y="687"/>
      <point x="40" y="722"/>
      <point x="40" y="687" type="curve"/>
      <point x="165" y="687"/>
      <point x="21" y="687"/>
      <point x="146" y="687" type="curve"/>
      <point x="146" y="722"/>
      <point x="146" y="687"/>
    </contour>
    <contour>
      <point x="146" y="687" type="curve"/>
      <point x="273" y="687"/>
      <point x="111" y="687"/>
      <point x="239" y="687" type="curve"/>
      <point x="239" y="722"/>
      <point x="239" y="687"/>
      <point x="239" y="722" type="curve"/>
      <point x="196" y="722"/>
      <point x="189" y="722"/>
      <point x="146" y="722" type="curve"/>
      <point x="146" y="687"/>
      <point x="146" y="722"/>
    </contour>
    <contour>
      <point x="146" y="0" type="curve"/>
      <point x="189" y="0"/>
      <point x="112" y="0"/>
      <point x="241" y="0" type="curve"/>
      <point x="241" y="35"/>
      <point x="241" y="0"/>
      <point x="241" y="35" type="curve"/>
      <point x="112" y="35"/>
      <point x="275" y="35"/>
      <point x="146" y="35" type="curve"/>
      <point x="146" y="0"/>
      <point x="146" y="35"/>
    </contour>
    <contour>
      <point x="146" y="35" type="curve"/>
      <point x="21" y="35"/>
      <point x="165" y="35"/>
      <point x="40" y="35" type="curve"/>
      <point x="40" y="0"/>
      <point x="40" y="35"/>
      <point x="40" y="0" type="curve"/>
      <point x="81" y="0"/>
      <point x="104" y="0"/>
      <point x="146" y="0" type="curve"/>
      <point x="146" y="35"/>
      <point x="146" y="0"/>
    </contour>
    <contour>
      <point x="365" y="722" type="curve"/>
      <point x="153" y="380" type="line"/>
      <point x="202" y="380"/>
      <point x="149" y="380"/>
      <point x="198" y="380" type="curve"/>
      <point x="408" y="712" type="line"/>
      <point x="361" y="712"/>
      <point x="411" y="722"/>
    </contour>
    <contour>
      <point x="167" y="0" type="curve"/>
      <point x="167" y="722" type="line"/>
      <point x="126" y="722"/>
      <point x="167" y="722"/>
      <point x="126" y="722" type="curve"/>
      <point x="126" y="481"/>
      <point x="126" y="241"/>
      <point x="126" y="0" type="curve"/>
      <point x="167" y="0"/>
      <point x="126" y="0"/>
    </contour>
    <contour>
      <point x="424" y="8" type="curve"/>
      <point x="198" y="380" type="line"/>
      <point x="149" y="380"/>
      <point x="202" y="380"/>
      <point x="153" y="380" type="curve"/>
      <point x="379" y="0" type="line"/>
      <point x="428" y="0"/>
      <point x="376" y="8"/>
    </contour>
  </outline>
</glyph>
<glyph name="L" format="1">
  <advance width="441"/>
  <unicode hex="004C"/>
  <outline>
    <contour>
      <point x="148" y="818" type="move" name="top"/>
    </contour>
    <contour>
      <point x="244" y="-79" type="move" name="bottom"/>
    </contour>
    <contour>
      <point x="405" y="17" type="curve"/>
      <point x="405" y="137"/>
      <point x="405" y="7"/>
      <point x="405" y="128" type="curve"/>
      <point x="370" y="128"/>
      <point x="405" y="128"/>
      <point x="370" y="128" type="curve"/>
      <point x="370" y="7"/>
      <point x="370" y="137"/>
      <point x="370" y="17" type="curve"/>
      <point x="405" y="17"/>
      <point x="370" y="17"/>
    </contour>
    <contour>
      <point x="146" y="35" type="curve"/>
      <point x="20" y="35"/>
      <point x="165" y="35"/>
      <point x="39" y="35" type="curve"/>
      <point x="39" y="0"/>
      <point x="39" y="35"/>
      <point x="39" y="0" type="curve"/>
      <point x="81" y="0"/>
      <point x="104" y="0"/>
      <point x="146" y="0" type="curve"/>
      <point x="146" y="35"/>
      <point x="146" y="0"/>
    </contour>
    <contour>
      <point x="146" y="722" type="curve"/>
      <point x="104" y="722"/>
      <point x="81" y="722"/>
      <point x="39" y="722" type="curve"/>
      <point x="39" y="687"/>
      <point x="39" y="722"/>
      <point x="39" y="687" type="curve"/>
      <point x="165" y="687"/>
      <point x="20" y="687"/>
      <point x="146" y="687" type="curve"/>
      <point x="146" y="722"/>
      <point x="146" y="687"/>
    </contour>
    <contour>
      <point x="146" y="687" type="curve"/>
      <point x="273" y="687"/>
      <point x="127" y="687"/>
      <point x="254" y="687" type="curve"/>
      <point x="254" y="722"/>
      <point x="254" y="687"/>
      <point x="254" y="722" type="curve"/>
      <point x="211" y="722"/>
      <point x="188" y="722"/>
      <point x="146" y="722" type="curve"/>
      <point x="146" y="687"/>
      <point x="146" y="722"/>
    </contour>
    <contour>
      <point x="168" y="0" type="curve"/>
      <point x="168" y="241"/>
      <point x="168" y="481"/>
      <point x="168" y="722" type="curve"/>
      <point x="127" y="722"/>
      <point x="168" y="722"/>
      <point x="127" y="722" type="curve"/>
      <point x="127" y="481"/>
      <point x="127" y="241"/>
      <point x="127" y="0" type="curve"/>
      <point x="168" y="0"/>
      <point x="127" y="0"/>
    </contour>
    <contour>
      <point x="146" y="0" type="curve"/>
      <point x="233" y="0"/>
      <point x="319" y="0"/>
      <point x="405" y="0" type="curve"/>
      <point x="405" y="35"/>
      <point x="405" y="0"/>
      <point x="405" y="35" type="curve"/>
      <point x="319" y="35"/>
      <point x="233" y="35"/>
      <point x="146" y="35" type="curve"/>
      <point x="146" y="0"/>
      <point x="146" y="35"/>
    </contour>
  </outline>
</glyph>
<glyph name="M" format="1">
  <advance width="683"/>
  <unicode hex="004D"/>
  <outline>
    <contour>
      <point x="553" y="0" type="curve"/>
      <point x="595" y="0"/>
      <point x="618" y="0"/>
      <point x="660" y="0" type="curve"/>
      <point x="660" y="35"/>
      <point x="660" y="0"/>
      <point x="660" y="35" type="curve"/>
      <point x="534" y="35"/>
      <point x="679" y="35"/>
      <point x="553" y="35" type="curve"/>
      <point x="553" y="0"/>
      <point x="553" y="35"/>
    </contour>
    <contour>
      <point x="553" y="35" type="curve"/>
      <point x="429" y="35"/>
      <point x="572" y="35"/>
      <point x="448" y="35" type="curve"/>
      <point x="448" y="0"/>
      <point x="448" y="35"/>
      <point x="448" y="0" type="curve"/>
      <point x="489" y="0"/>
      <point x="511" y="0"/>
      <point x="553" y="0" type="curve"/>
      <point x="553" y="35"/>
      <point x="553" y="0"/>
    </contour>
    <contour>
      <point x="131" y="35" type="curve"/>
      <point x="6" y="35"/>
      <point x="150" y="35"/>
      <point x="25" y="35" type="curve"/>
      <point x="25" y="0"/>
      <point x="25" y="35"/>
      <point x="25" y="0" type="curve"/>
      <point x="66" y="0"/>
      <point x="89" y="0"/>
      <point x="131" y="0" type="curve"/>
      <point x="131" y="35"/>
      <point x="131" y="0"/>
    </contour>
    <contour>
      <point x="168" y="722" type="curve"/>
      <point x="125" y="722"/>
      <point x="102" y="722"/>
      <point x="61" y="722" type="curve"/>
      <point x="60" y="687"/>
      <point x="61" y="722"/>
      <point x="60" y="687" type="curve"/>
      <point x="187" y="687"/>
      <point x="41" y="687"/>
      <point x="168" y="687" type="curve"/>
      <point x="168" y="722"/>
      <point x="168" y="687"/>
    </contour>
    <contour>
      <point x="515" y="687" type="curve"/>
      <point x="641" y="687"/>
      <point x="497" y="687"/>
      <point x="622" y="687" type="curve"/>
      <point x="622" y="722"/>
      <point x="622" y="687"/>
      <point x="622" y="722" type="curve"/>
      <point x="580" y="722"/>
      <point x="557" y="722"/>
      <point x="515" y="722" type="curve"/>
      <point x="515" y="687"/>
      <point x="515" y="722"/>
    </contour>
    <contour>
      <point x="131" y="0" type="curve"/>
      <point x="172" y="0"/>
      <point x="112" y="0"/>
      <point x="235" y="0" type="curve"/>
      <point x="235" y="35"/>
      <point x="235" y="0"/>
      <point x="235" y="35" type="curve"/>
      <point x="112" y="35"/>
      <point x="254" y="35"/>
      <point x="131" y="35" type="curve"/>
      <point x="131" y="0"/>
      <point x="131" y="35"/>
    </contour>
    <contour>
      <point x="574" y="0" type="curve"/>
      <point x="561" y="241"/>
      <point x="548" y="481"/>
      <point x="535" y="722" type="curve"/>
      <point x="497" y="722"/>
      <point x="535" y="722"/>
      <point x="497" y="722" type="curve"/>
      <point x="509" y="481"/>
      <point x="521" y="241"/>
      <point x="533" y="0" type="curve"/>
      <point x="574" y="0"/>
      <point x="533" y="0"/>
    </contour>
    <contour>
      <point x="149" y="0" type="curve"/>
      <point x="161" y="241"/>
      <point x="172" y="481"/>
      <point x="184" y="722" type="curve"/>
      <point x="148" y="722"/>
      <point x="184" y="722"/>
      <point x="148" y="722" type="curve"/>
      <point x="136" y="481"/>
      <point x="124" y="241"/>
      <point x="111" y="0" type="curve"/>
      <point x="149" y="0"/>
      <point x="111" y="0"/>
    </contour>
    <contour>
      <point x="357" y="0" type="curve"/>
      <point x="300" y="241"/>
      <point x="242" y="481"/>
      <point x="185" y="722" type="curve"/>
      <point x="148" y="722"/>
      <point x="186" y="722"/>
      <point x="148" y="722" type="curve"/>
      <point x="206" y="481"/>
      <point x="263" y="241"/>
      <point x="320" y="0" type="curve"/>
      <point x="357" y="0"/>
      <point x="320" y="0"/>
    </contour>
    <contour>
      <point x="363" y="0" type="curve"/>
      <point x="419" y="241"/>
      <point x="475" y="481"/>
      <point x="531" y="722" type="curve"/>
      <point x="496" y="722"/>
      <point x="532" y="722"/>
      <point x="496" y="722" type="curve"/>
      <point x="440" y="481"/>
      <point x="383" y="241"/>
      <point x="326" y="0" type="curve"/>
      <point x="364" y="0"/>
      <point x="325" y="0"/>
    </contour>
  </outline>
</glyph>
<glyph name="P" format="1">
  <advance width="445"/>
  <unicode hex="0050"/>
  <outline>
    <contour>
      <point x="151" y="722" type="curve"/>
      <point x="109" y="722"/>
      <point x="86" y="722"/>
      <point x="44" y="722" type="curve"/>
      <point x="44" y="687"/>
      <point x="44" y="722"/>
      <point x="44" y="687" type="curve"/>
      <point x="171" y="687"/>
      <point x="24" y="687"/>
      <point x="151" y="687" type="curve"/>
      <point x="151" y="722"/>
      <point x="151" y="687"/>
    </contour>
    <contour>
      <point x="151" y="35" type="curve"/>
      <point x="24" y="35"/>
      <point x="171" y="35"/>
      <point x="44" y="35" type="curve"/>
      <point x="44" y="0"/>
      <point x="44" y="35"/>
      <point x="44" y="0" type="curve"/>
      <point x="86" y="0"/>
      <point x="109" y="0"/>
      <point x="151" y="0" type="curve"/>
      <point x="151" y="35"/>
      <point x="151" y="0"/>
    </contour>
    <contour>
      <point x="151" y="0" type="curve"/>
      <point x="194" y="0"/>
      <point x="132" y="0"/>
      <point x="260" y="0" type="curve"/>
      <point x="260" y="35"/>
      <point x="260" y="0"/>
      <point x="260" y="35" type="curve"/>
      <point x="132" y="35"/>
      <point x="279" y="35"/>
      <point x="151" y="35" type="curve"/>
      <point x="151" y="0"/>
      <point x="151" y="35"/>
    </contour>
    <contour>
      <point x="146" y="321" type="curve"/>
      <point x="174" y="295"/>
      <point x="209" y="276"/>
      <point x="250" y="276" type="curve"/>
      <point x="351" y="278"/>
      <point x="393" y="368"/>
      <point x="393" y="491" type="curve"/>
      <point x="393" y="616"/>
      <point x="345" y="722"/>
      <point x="233" y="722" type="curve"/>
      <point x="207" y="722"/>
      <point x="180" y="722"/>
      <point x="153" y="722" type="curve"/>
      <point x="153" y="687"/>
      <point x="153" y="722"/>
      <point x="153" y="687" type="curve"/>
      <point x="178" y="687"/>
      <point x="203" y="687"/>
      <point x="228" y="687" type="curve"/>
      <point x="319" y="687"/>
      <point x="352" y="595"/>
      <point x="352" y="491" type="curve"/>
      <point x="352" y="395"/>
      <point x="328" y="311"/>
      <point x="248" y="311" type="curve"/>
      <point x="210" y="311"/>
      <point x="187" y="327"/>
      <point x="159" y="352" type="curve"/>
      <point x="146" y="323"/>
      <point x="159" y="351"/>
    </contour>
    <contour>
      <point x="171" y="0" type="curve"/>
      <point x="171" y="241"/>
      <point x="171" y="481"/>
      <point x="171" y="722" type="curve"/>
      <point x="130" y="722"/>
      <point x="171" y="722"/>
      <point x="130" y="722" type="curve"/>
      <point x="130" y="481"/>
      <point x="130" y="241"/>
      <point x="130" y="0" type="curve"/>
      <point x="171" y="0"/>
      <point x="130" y="0"/>
    </contour>
  </outline>
</glyph>
<glyph name="R" format="1">
  <advance width="552"/>
  <unicode hex="0052"/>
  <outline>
    <contour>
      <point x="226" y="818" type="move" name="top"/>
    </contour>
    <contour>
      <point x="289" y="-80" type="move" name="bottom"/>
    </contour>
    <contour>
      <point x="433" y="0" type="curve"/>
      <point x="472" y="0"/>
      <point x="493" y="0"/>
      <point x="534" y="0" type="curve"/>
      <point x="534" y="35"/>
      <point x="534" y="0"/>
      <point x="534" y="35" type="curve"/>
      <point x="413" y="35"/>
      <point x="553" y="35"/>
      <point x="433" y="35" type="curve"/>
      <point x="433" y="0"/>
      <point x="433" y="35"/>
    </contour>
    <contour>
      <point x="149" y="722" type="curve"/>
      <point x="107" y="722"/>
      <point x="84" y="722"/>
      <point x="42" y="722" type="curve"/>
      <point x="42" y="687"/>
      <point x="42" y="722"/>
      <point x="42" y="687" type="curve"/>
      <point x="169" y="687"/>
      <point x="22" y="687"/>
      <point x="149" y="687" type="curve"/>
      <point x="149" y="722"/>
      <point x="149" y="687"/>
    </contour>
    <contour>
      <point x="149" y="35" type="curve"/>
      <point x="22" y="35"/>
      <point x="169" y="35"/>
      <point x="42" y="35" type="curve"/>
      <point x="42" y="0"/>
      <point x="42" y="35"/>
      <point x="42" y="0" type="curve"/>
      <point x="84" y="0"/>
      <point x="107" y="0"/>
      <point x="149" y="0" type="curve"/>
      <point x="149" y="35"/>
      <point x="149" y="0"/>
    </contour>
    <contour>
      <point x="149" y="0" type="curve"/>
      <point x="191" y="0"/>
      <point x="129" y="0"/>
      <point x="257" y="0" type="curve"/>
      <point x="257" y="35"/>
      <point x="257" y="0"/>
      <point x="257" y="35" type="curve"/>
      <point x="129" y="35"/>
      <point x="277" y="35"/>
      <point x="149" y="35" type="curve"/>
      <point x="149" y="0"/>
      <point x="149" y="35"/>
    </contour>
    <contour>
      <point x="254" y="354" type="curve"/>
      <point x="321" y="221"/>
      <point x="351" y="133"/>
      <point x="417" y="0" type="curve"/>
      <point x="463" y="0"/>
      <point x="415" y="-1"/>
      <point x="461" y="-1" type="curve"/>
      <point x="394" y="133"/>
      <point x="365" y="220"/>
      <point x="298" y="354" type="curve"/>
      <point x="252" y="354"/>
      <point x="299" y="354"/>
    </contour>
    <contour>
      <point x="170" y="0" type="curve"/>
      <point x="170" y="241"/>
      <point x="170" y="481"/>
      <point x="170" y="722" type="curve"/>
      <point x="130" y="722"/>
      <point x="170" y="722"/>
      <point x="130" y="722" type="curve"/>
      <point x="130" y="481"/>
      <point x="130" y="241"/>
      <point x="130" y="0" type="curve"/>
      <point x="170" y="0"/>
      <point x="130" y="0"/>
    </contour>
    <contour>
      <point x="152" y="334" type="curve"/>
      <point x="186" y="334"/>
      <point x="222" y="334"/>
      <point x="257" y="334" type="curve"/>
      <point x="359" y="334"/>
      <point x="403" y="419"/>
      <point x="403" y="534" type="curve"/>
      <point x="403" y="646"/>
      <point x="356" y="722"/>
      <point x="253" y="722" type="curve"/>
      <point x="216" y="722"/>
      <point x="188" y="722"/>
      <point x="152" y="722" type="curve"/>
      <point x="152" y="687"/>
      <point x="152" y="722"/>
      <point x="152" y="687" type="curve"/>
      <point x="186" y="687"/>
      <point x="211" y="687"/>
      <point x="246" y="687" type="curve"/>
      <point x="328" y="687"/>
      <point x="361" y="622"/>
      <point x="361" y="531" type="curve"/>
      <point x="361" y="441"/>
      <point x="337" y="369"/>
      <point x="258" y="369" type="curve"/>
      <point x="223" y="369"/>
      <point x="187" y="369"/>
      <point x="152" y="369" type="curve"/>
      <point x="152" y="334"/>
      <point x="152" y="369"/>
    </contour>
  </outline>
</glyph>
<glyph name="T" format="1">
  <advance width="467"/>
  <unicode hex="0054"/>
  <outline>
    <contour>
      <point x="234" y="818" type="move" name="top"/>
    </contour>
    <contour>
      <point x="241" y="-79" type="move" name="bottom"/>
    </contour>
    <contour>
      <point x="44" y="704" type="curve"/>
      <point x="44" y="584"/>
      <point x="44" y="715"/>
      <point x="44" y="595" type="curve"/>
      <point x="79" y="595"/>
      <point x="44" y="595"/>
      <point x="79" y="595" type="curve"/>
      <point x="79" y="715"/>
      <point x="79" y="584"/>
      <point x="79" y="704" type="curve"/>
      <point x="44" y="704"/>
      <point x="79" y="704"/>
    </contour>
    <contour>
      <point x="388" y="704" type="curve"/>
      <point x="388" y="584"/>
      <point x="388" y="715"/>
      <point x="388" y="595" type="curve"/>
      <point x="423" y="595"/>
      <point x="388" y="595"/>
      <point x="423" y="595" type="curve"/>
      <point x="423" y="715"/>
      <point x="423" y="584"/>
      <point x="423" y="704" type="curve"/>
      <point x="388" y="704"/>
      <point x="423" y="704"/>
    </contour>
    <contour>
      <point x="234" y="0" type="curve"/>
      <point x="273" y="0"/>
      <point x="302" y="0"/>
      <point x="341" y="0" type="curve"/>
      <point x="341" y="35"/>
      <point x="341" y="0"/>
      <point x="341" y="35" type="curve"/>
      <point x="224" y="35"/>
      <point x="350" y="35"/>
      <point x="234" y="35" type="curve"/>
      <point x="234" y="0"/>
      <point x="234" y="35"/>
    </contour>
    <contour>
      <point x="234" y="35" type="curve"/>
      <point x="116" y="35"/>
      <point x="242" y="35"/>
      <point x="125" y="35" type="curve"/>
      <point x="125" y="0"/>
      <point x="125" y="35"/>
      <point x="125" y="0" type="curve"/>
      <point x="164" y="0"/>
      <point x="194" y="0"/>
      <point x="234" y="0" type="curve"/>
      <point x="234" y="35"/>
      <point x="234" y="0"/>
    </contour>
    <contour>
      <point x="253" y="0" type="curve"/>
      <point x="253" y="237"/>
      <point x="253" y="473"/>
      <point x="253" y="710" type="curve"/>
      <point x="213" y="710"/>
      <point x="253" y="710"/>
      <point x="213" y="710" type="curve"/>
      <point x="212" y="473"/>
      <point x="213" y="237"/>
      <point x="213" y="0" type="curve"/>
      <point x="253" y="0"/>
      <point x="213" y="0"/>
    </contour>
    <contour>
      <point x="44" y="685" type="curve"/>
      <point x="170" y="685"/>
      <point x="297" y="685"/>
      <point x="423" y="685" type="curve"/>
      <point x="423" y="723"/>
      <point x="423" y="684"/>
      <point x="423" y="722" type="curve"/>
      <point x="297" y="722"/>
      <point x="170" y="722"/>
      <point x="44" y="722" type="curve"/>
      <point x="44" y="684"/>
      <point x="44" y="723"/>
    </contour>
  </outline>
</glyph>
<glyph name="W" format="1">
  <advance width="668"/>
  <unicode hex="0057"/>
  <outline>
    <contour>
      <point x="100" y="687" type="curve"/>
      <point x="213" y="687"/>
      <point x="92" y="687"/>
      <point x="205" y="687" type="curve"/>
      <point x="205" y="722"/>
      <point x="205" y="687"/>
      <point x="205" y="722" type="curve"/>
      <point x="167" y="722"/>
      <point x="138" y="722"/>
      <point x="100" y="722" type="curve"/>
      <point x="100" y="687"/>
      <point x="100" y="722"/>
    </contour>
    <contour>
      <point x="99" y="722" type="curve"/>
      <point x="62" y="722"/>
      <point x="32" y="722"/>
      <point x="-5" y="722" type="curve"/>
      <point x="-5" y="687"/>
      <point x="-5" y="722"/>
      <point x="-5" y="687" type="curve"/>
      <point x="108" y="687"/>
      <point x="-14" y="687"/>
      <point x="99" y="687" type="curve"/>
      <point x="99" y="722"/>
      <point x="99" y="687"/>
    </contour>
    <contour>
      <point x="551" y="722" type="curve"/>
      <point x="513" y="722"/>
      <point x="484" y="722"/>
      <point x="447" y="722" type="curve"/>
      <point x="447" y="687"/>
      <point x="447" y="722"/>
      <point x="447" y="687" type="curve"/>
      <point x="559" y="687"/>
      <point x="439" y="687"/>
      <point x="551" y="687" type="curve"/>
      <point x="551" y="722"/>
      <point x="551" y="687"/>
    </contour>
    <contour>
      <point x="551" y="687" type="curve"/>
      <point x="665" y="687"/>
      <point x="542" y="687"/>
      <point x="655" y="687" type="curve"/>
      <point x="655" y="722"/>
      <point x="655" y="687"/>
      <point x="655" y="722" type="curve"/>
      <point x="619" y="722"/>
      <point x="588" y="722"/>
      <point x="551" y="722" type="curve"/>
      <point x="551" y="687"/>
      <point x="551" y="722"/>
    </contour>
    <contour>
      <point x="221" y="0" type="curve"/>
      <point x="262" y="241"/>
      <point x="303" y="481"/>
      <point x="344" y="722" type="curve"/>
      <point x="307" y="722"/>
      <point x="344" y="722"/>
      <point x="308" y="722" type="curve"/>
      <point x="270" y="481"/>
      <point x="230" y="241"/>
      <point x="190" y="0" type="curve"/>
      <point x="223" y="0"/>
      <point x="190" y="0"/>
    </contour>
    <contour>
      <point x="314" y="722" type="curve"/>
      <point x="351" y="481"/>
      <point x="387" y="241"/>
      <point x="425" y="0" type="curve"/>
      <point x="456" y="0"/>
      <point x="423" y="0"/>
      <point x="455" y="0" type="curve"/>
      <point x="420" y="242"/>
      <point x="384" y="481"/>
      <point x="349" y="722" type="curve"/>
      <point x="313" y="722"/>
      <point x="350" y="722"/>
    </contour>
    <contour>
      <point x="73" y="722" type="curve"/>
      <point x="111" y="481"/>
      <point x="148" y="241"/>
      <point x="186" y="0" type="curve"/>
      <point x="217" y="0"/>
      <point x="187" y="0"/>
      <point x="218" y="0" type="curve"/>
      <point x="183" y="241"/>
      <point x="147" y="481"/>
      <point x="112" y="722" type="curve"/>
      <point x="73" y="722"/>
      <point x="112" y="722"/>
    </contour>
    <contour>
      <point x="539" y="722" type="curve"/>
      <point x="502" y="481"/>
      <point x="464" y="241"/>
      <point x="427" y="0" type="curve"/>
      <point x="459" y="0"/>
      <point x="428" y="0"/>
      <point x="460" y="0" type="curve"/>
      <point x="499" y="241"/>
      <point x="538" y="481"/>
      <point x="578" y="722" type="curve"/>
      <point x="539" y="722"/>
      <point x="578" y="722"/>
    </contour>
  </outline>
</glyph>
<glyph name="Y" format="1">
  <advance width="502"/>
  <unicode hex="0059"/>
  <outline>
    <contour>
      <point x="240" y="818" type="move" name="top"/>
    </contour>
    <contour>
      <point x="237" y="35" type="curve"/>
      <point x="120" y="35"/>
      <point x="246" y="35"/>
      <point x="129" y="35" type="curve"/>
      <point x="129" y="0"/>
      <point x="129" y="35"/>
      <point x="129" y="0" type="curve"/>
      <point x="167" y="0"/>
      <point x="198" y="0"/>
      <point x="237" y="0" type="curve"/>
      <point x="237" y="35"/>
      <point x="237" y="0"/>
    </contour>
    <contour>
      <point x="237" y="0" type="curve"/>
      <point x="275" y="0"/>
      <point x="306" y="0"/>
      <point x="344" y="0" type="curve"/>
      <point x="344" y="35"/>
      <point x="344" y="0"/>
      <point x="344" y="35" type="curve"/>
      <point x="228" y="35"/>
      <point x="354" y="35"/>
      <point x="237" y="35" type="curve"/>
      <point x="237" y="0"/>
      <point x="237" y="35"/>
    </contour>
    <contour>
      <point x="382" y="722" type="curve"/>
      <point x="343" y="722"/>
      <point x="313" y="722"/>
      <point x="275" y="722" type="curve"/>
      <point x="275" y="687"/>
      <point x="275" y="722"/>
      <point x="275" y="687" type="curve"/>
      <point x="390" y="687"/>
      <point x="267" y="687"/>
      <point x="382" y="687" type="curve"/>
      <point x="382" y="722"/>
      <point x="382" y="687"/>
    </contour>
    <contour>
      <point x="96" y="722" type="curve"/>
      <point x="60" y="722"/>
      <point x="31" y="722"/>
      <point x="-5" y="722" type="curve"/>
      <point x="-6" y="687"/>
      <point x="-5" y="722"/>
      <point x="-6" y="687" type="curve"/>
      <point x="105" y="687"/>
      <point x="-14" y="687"/>
      <point x="96" y="687" type="curve"/>
      <point x="96" y="722"/>
      <point x="96" y="687"/>
    </contour>
    <contour>
      <point x="99" y="687" type="curve"/>
      <point x="214" y="687"/>
      <point x="91" y="687"/>
      <point x="206" y="687" type="curve"/>
      <point x="206" y="722"/>
      <point x="206" y="687"/>
      <point x="206" y="722" type="curve"/>
      <point x="168" y="722"/>
      <point x="138" y="722"/>
      <point x="99" y="722" type="curve"/>
      <point x="99" y="687"/>
      <point x="99" y="722"/>
    </contour>
    <contour>
      <point x="385" y="687" type="curve"/>
      <point x="496" y="687"/>
      <point x="376" y="687"/>
      <point x="488" y="687" type="curve"/>
      <point x="488" y="722"/>
      <point x="488" y="687"/>
      <point x="488" y="722" type="curve"/>
      <point x="451" y="722"/>
      <point x="422" y="722"/>
      <point x="385" y="722" type="curve"/>
      <point x="385" y="687"/>
      <point x="385" y="722"/>
    </contour>
    <contour>
      <point x="70" y="723" type="curve"/>
      <point x="118" y="595"/>
      <point x="166" y="466"/>
      <point x="214" y="337" type="curve"/>
      <point x="257" y="337"/>
      <point x="211" y="336"/>
      <point x="254" y="336" type="curve"/>
      <point x="207" y="466"/>
      <point x="161" y="594"/>
      <point x="114" y="722" type="curve"/>
      <point x="70" y="722"/>
      <point x="114" y="723"/>
    </contour>
    <contour>
      <point x="367" y="722" type="curve"/>
      <point x="318" y="593"/>
      <point x="269" y="466"/>
      <point x="218" y="336" type="curve"/>
      <point x="261" y="336"/>
      <point x="216" y="337"/>
      <point x="259" y="337" type="curve"/>
      <point x="310" y="466"/>
      <point x="360" y="595"/>
      <point x="411" y="723" type="curve"/>
      <point x="367" y="723"/>
      <point x="411" y="722"/>
    </contour>
    <contour>
      <point x="259" y="0" type="curve"/>
      <point x="259" y="115"/>
      <point x="259" y="230"/>
      <point x="259" y="345" type="curve"/>
      <point x="215" y="345"/>
      <point x="259" y="345"/>
      <point x="215" y="345" type="curve"/>
      <point x="215" y="230"/>
      <point x="215" y="115"/>
      <point x="215" y="0" type="curve"/>
      <point x="259" y="0"/>
      <point x="215" y="0"/>
    </contour>
  </outline>
</glyph>
<glyph name="bracketleft" format="1">
  <advance width="227"/>
  <unicode hex="005B"/>
  <outline>
    <contour>
      <point x="188" y="771" type="curve"/>
      <point x="157" y="771"/>
      <point x="126" y="771"/>
      <point x="94" y="771" type="curve"/>
      <point x="90" y="771"/>
      <point x="82" y="771"/>
      <point x="78" y="771" type="curve"/>
      <point x="78" y="767"/>
      <point x="78" y="762"/>
      <point x="78" y="758" type="curve"/>
      <point x="78" y="468"/>
      <point x="78" y="179"/>
      <point x="78" y="-111" type="curve"/>
      <point x="78" y="-115"/>
      <point x="78" y="-118"/>
      <point x="78" y="-122" type="curve"/>
      <point x="82" y="-122"/>
      <point x="90" y="-122"/>
      <point x="93" y="-122" type="curve"/>
      <point x="125" y="-122"/>
      <point x="156" y="-122"/>
      <point x="188" y="-122" type="curve"/>
      <point x="188" y="-84"/>
      <point x="188" y="-122"/>
      <point x="188" y="-84" type="curve"/>
      <point x="156" y="-84"/>
      <point x="125" y="-84"/>
      <point x="93" y="-84" type="curve"/>
      <point x="119" y="-84"/>
      <point x="93" y="-84"/>
      <point x="119" y="-84" type="curve"/>
      <point x="119" y="-111"/>
      <point x="119" y="-84"/>
      <point x="119" y="-111" type="curve"/>
      <point x="119" y="179"/>
      <point x="119" y="468"/>
      <point x="119" y="758" type="curve"/>
      <point x="119" y="733"/>
      <point x="119" y="758"/>
      <point x="119" y="733" type="curve"/>
      <point x="94" y="733"/>
      <point x="119" y="733"/>
      <point x="94" y="733" type="curve"/>
      <point x="126" y="733"/>
      <point x="157" y="733"/>
      <point x="188" y="733" type="curve"/>
      <point x="188" y="771"/>
      <point x="188" y="733"/>
    </contour>
  </outline>
</glyph>
<glyph name="backslash" format="1">
  <advance width="360"/>
  <unicode hex="005C"/>
  <outline>
    <contour>
      <point x="322" y="-68" type="curve"/>
      <point x="242" y="236"/>
      <point x="161" y="540"/>
      <point x="82" y="844" type="curve"/>
      <point x="38" y="844"/>
      <point x="82" y="844"/>
      <point x="38" y="844" type="curve"/>
      <point x="119" y="540"/>
      <point x="198" y="236"/>
      <point x="279" y="-68" type="curve"/>
      <point x="322" y="-68"/>
      <point x="279" y="-68"/>
    </contour>
  </outline>
</glyph>
<glyph name="asciicircum" format="1">
  <advance width="392"/>
  <unicode hex="005E"/>
  <outline>
    <contour>
      <point x="109" y="464" type="curve"/>
      <point x="145" y="577"/>
      <point x="181" y="689"/>
      <point x="216" y="802" type="curve"/>
      <point x="175" y="802"/>
      <point x="217" y="802"/>
      <point x="175" y="802" type="curve"/>
      <point x="139" y="689"/>
      <point x="104" y="577"/>
      <point x="68" y="464" type="curve"/>
      <point x="110" y="464"/>
      <point x="68" y="464"/>
    </contour>
    <contour>
      <point x="324" y="464" type="curve"/>
      <point x="290" y="573"/>
      <point x="250" y="693"/>
      <point x="216" y="802" type="curve"/>
      <point x="175" y="802"/>
      <point x="216" y="802"/>
      <point x="175" y="802" type="curve"/>
      <point x="210" y="693"/>
      <point x="249" y="573"/>
      <point x="283" y="464" type="curve"/>
      <point x="324" y="464"/>
      <point x="283" y="464"/>
    </contour>
  </outline>
</glyph>
<glyph name="grave" format="1">
  <advance width="321"/>
  <unicode hex="0060"/>
  <outline>
    <contour>
      <point x="137" y="591" type="move" name="_top"/>
    </contour>
    <contour>
      <point x="157" y="591" type="line"/>
      <point x="106" y="757" type="line"/>
      <point x="56" y="757" type="line"/>
      <point x="119" y="591" type="line"/>
    </contour>
  </outline>
</glyph>
<glyph name="b" format="1">
  <advance width="456"/>
  <unicode hex="0062"/>
  <outline>
    <contour>
      <point x="118" y="800" type="curve"/>
      <point x="80" y="800"/>
      <point x="48" y="800"/>
      <point x="11" y="800" type="curve"/>
      <point x="11" y="764"/>
      <point x="11" y="802"/>
      <point x="11" y="765" type="curve"/>
      <point x="130" y="765"/>
      <point x="0" y="765"/>
      <point x="118" y="765" type="curve"/>
      <point x="118" y="802"/>
      <point x="118" y="764"/>
    </contour>
    <contour>
      <point x="129" y="398" type="curve"/>
      <point x="138" y="439"/>
      <point x="181" y="503"/>
      <point x="242" y="503" type="curve"/>
      <point x="337" y="503"/>
      <point x="356" y="388"/>
      <point x="356" y="269" type="curve"/>
      <point x="356" y="154"/>
      <point x="330" y="30"/>
      <point x="242" y="30" type="curve"/>
      <point x="191" y="30"/>
      <point x="149" y="82"/>
      <point x="130" y="143" type="curve"/>
      <point x="104" y="123"/>
      <point x="135" y="138"/>
      <point x="109" y="119" type="curve"/>
      <point x="131" y="52"/>
      <point x="176" y="-5"/>
      <point x="244" y="-5" type="curve"/>
      <point x="364" y="-5"/>
      <point x="397" y="125"/>
      <point x="397" y="270" type="curve"/>
      <point x="397" y="410"/>
      <point x="367" y="538"/>
      <point x="244" y="538" type="curve"/>
      <point x="169" y="538"/>
      <point x="121" y="475"/>
      <point x="110" y="425" type="curve"/>
      <point x="130" y="403"/>
      <point x="109" y="420"/>
    </contour>
    <contour>
      <point x="137" y="0" type="curve"/>
      <point x="137" y="266"/>
      <point x="137" y="534"/>
      <point x="137" y="800" type="curve"/>
      <point x="94" y="800"/>
      <point x="139" y="800"/>
      <point x="96" y="800" type="curve"/>
      <point x="96" y="534"/>
      <point x="96" y="266"/>
      <point x="96" y="0" type="curve"/>
      <point x="139" y="0"/>
      <point x="94" y="0"/>
    </contour>
    <contour>
      <point x="118" y="35" type="curve"/>
      <point x="0" y="35"/>
      <point x="130" y="35"/>
      <point x="11" y="35" type="curve"/>
      <point x="11" y="-2"/>
      <point x="11" y="36"/>
      <point x="11" y="0" type="curve"/>
      <point x="48" y="0"/>
      <point x="80" y="0"/>
      <point x="118" y="0" type="curve"/>
      <point x="118" y="36"/>
      <point x="118" y="-2"/>
    </contour>
  </outline>
</glyph>
<glyph name="d" format="1">
  <advance width="457"/>
  <unicode hex="0064"/>
  <outline>
    <contour>
      <point x="337" y="800" type="curve"/>
      <point x="295" y="800"/>
      <point x="273" y="800"/>
      <point x="230" y="800" type="curve"/>
      <point x="230" y="765"/>
      <point x="230" y="800"/>
      <point x="230" y="765" type="curve"/>
      <point x="357" y="765"/>
      <point x="211" y="765"/>
      <point x="338" y="765" type="curve"/>
      <point x="338" y="800"/>
      <point x="337" y="765"/>
    </contour>
    <contour>
      <point x="339" y="0" type="curve"/>
      <point x="381" y="0"/>
      <point x="404" y="0"/>
      <point x="446" y="0" type="curve"/>
      <point x="446" y="35"/>
      <point x="446" y="0"/>
      <point x="446" y="35" type="curve"/>
      <point x="319" y="35"/>
      <point x="466" y="35"/>
      <point x="339" y="35" type="curve"/>
      <point x="339" y="0"/>
      <point x="339" y="35"/>
    </contour>
    <contour>
      <point x="344" y="440" type="curve"/>
      <point x="328" y="495"/>
      <point x="279" y="537"/>
      <point x="216" y="537" type="curve"/>
      <point x="92" y="537"/>
      <point x="57" y="405"/>
      <point x="57" y="264" type="curve"/>
      <point x="57" y="124"/>
      <point x="95" y="-4"/>
      <point x="216" y="-4" type="curve"/>
      <point x="285" y="-4"/>
      <point x="326" y="51"/>
      <point x="344" y="127" type="curve"/>
      <point x="325" y="152"/>
      <point x="345" y="127"/>
      <point x="325" y="152" type="curve"/>
      <point x="309" y="84"/>
      <point x="273" y="31"/>
      <point x="220" y="31" type="curve"/>
      <point x="123" y="31"/>
      <point x="98" y="146"/>
      <point x="98" y="265" type="curve"/>
      <point x="98" y="386"/>
      <point x="123" y="502"/>
      <point x="221" y="502" type="curve"/>
      <point x="268" y="502"/>
      <point x="311" y="465"/>
      <point x="325" y="414" type="curve"/>
      <point x="344" y="441"/>
      <point x="325" y="414"/>
    </contour>
    <contour>
      <point x="360" y="0" type="curve"/>
      <point x="360" y="267"/>
      <point x="360" y="533"/>
      <point x="360" y="800" type="curve"/>
      <point x="317" y="800"/>
      <point x="360" y="800"/>
      <point x="317" y="800" type="curve"/>
      <point x="317" y="533"/>
      <point x="317" y="267"/>
      <point x="317" y="0" type="curve"/>
      <point x="360" y="0"/>
      <point x="317" y="0"/>
    </contour>
  </outline>
</glyph>
<glyph name="f" format="1">
  <advance width="315"/>
  <unicode hex="0066"/>
  <outline>
    <contour>
      <point x="271" y="777" type="curve"/>
      <point x="271" y="658"/>
      <point x="271" y="786"/>
      <point x="271" y="668" type="curve"/>
      <point x="305" y="668"/>
      <point x="271" y="668"/>
      <point x="305" y="668" type="curve"/>
      <point x="305" y="786"/>
      <point x="305" y="658"/>
      <point x="305" y="777" type="curve"/>
      <point x="271" y="777"/>
      <point x="305" y="777"/>
    </contour>
    <contour>
      <point x="150" y="0" type="curve"/>
      <point x="188" y="0"/>
      <point x="219" y="0"/>
      <point x="257" y="0" type="curve"/>
      <point x="257" y="35"/>
      <point x="257" y="0"/>
      <point x="257" y="35" type="curve"/>
      <point x="141" y="35"/>
      <point x="266" y="35"/>
      <point x="150" y="35" type="curve"/>
      <point x="150" y="0"/>
      <point x="150" y="35"/>
    </contour>
    <contour>
      <point x="150" y="35" type="curve"/>
      <point x="34" y="35"/>
      <point x="158" y="35"/>
      <point x="42" y="35" type="curve"/>
      <point x="42" y="0"/>
      <point x="42" y="35"/>
      <point x="42" y="0" type="curve"/>
      <point x="80" y="0"/>
      <point x="111" y="0"/>
      <point x="150" y="0" type="curve"/>
      <point x="150" y="35"/>
      <point x="150" y="0"/>
    </contour>
    <contour>
      <point x="36" y="498" type="curve"/>
      <point x="266" y="498" type="line"/>
      <point x="266" y="533"/>
      <point x="266" y="498"/>
      <point x="266" y="533" type="curve"/>
      <point x="36" y="533" type="line"/>
      <point x="36" y="498"/>
      <point x="36" y="533"/>
    </contour>
    <contour>
      <point x="170" y="0" type="curve"/>
      <point x="170" y="635" type="line"/>
      <point x="170" y="706"/>
      <point x="179" y="772"/>
      <point x="235" y="772" type="curve"/>
      <point x="256" y="772"/>
      <point x="274" y="763"/>
      <point x="289" y="750" type="curve"/>
      <point x="305" y="777"/>
      <point x="289" y="750"/>
      <point x="305" y="777" type="curve"/>
      <point x="286" y="794"/>
      <point x="260" y="805"/>
      <point x="235" y="805" type="curve"/>
      <point x="156" y="805"/>
      <point x="128" y="725"/>
      <point x="129" y="635" type="curve"/>
      <point x="129" y="0" type="line"/>
      <point x="170" y="0"/>
      <point x="129" y="0"/>
    </contour>
  </outline>
</glyph>
<glyph name="h" format="1">
  <advance width="454"/>
  <unicode hex="0068"/>
  <outline>
    <contour>
      <point x="342" y="0" type="curve"/>
      <point x="381" y="0"/>
      <point x="411" y="0"/>
      <point x="450" y="0" type="curve"/>
      <point x="450" y="35"/>
      <point x="450" y="0"/>
      <point x="450" y="35" type="curve"/>
      <point x="334" y="35"/>
      <point x="458" y="35"/>
      <point x="342" y="35" type="curve"/>
      <point x="342" y="0"/>
      <point x="342" y="35"/>
    </contour>
    <contour>
      <point x="115" y="0" type="curve"/>
      <point x="147" y="0"/>
      <point x="107" y="0"/>
      <point x="204" y="0" type="curve"/>
      <point x="204" y="35"/>
      <point x="204" y="0"/>
      <point x="204" y="35" type="curve"/>
      <point x="107" y="35"/>
      <point x="212" y="35"/>
      <point x="115" y="35" type="curve"/>
      <point x="115" y="0"/>
      <point x="115" y="35"/>
    </contour>
    <contour>
      <point x="115" y="800" type="curve"/>
      <point x="77" y="800"/>
      <point x="46" y="800"/>
      <point x="7" y="800" type="curve"/>
      <point x="7" y="765"/>
      <point x="7" y="800"/>
      <point x="7" y="765" type="curve"/>
      <point x="123" y="765"/>
      <point x="-1" y="765"/>
      <point x="115" y="765" type="curve"/>
      <point x="115" y="800"/>
      <point x="115" y="765"/>
    </contour>
    <contour>
      <point x="115" y="35" type="curve"/>
      <point x="-1" y="35"/>
      <point x="123" y="35"/>
      <point x="7" y="35" type="curve"/>
      <point x="7" y="0"/>
      <point x="7" y="35"/>
      <point x="7" y="0" type="curve"/>
      <point x="46" y="0"/>
      <point x="77" y="0"/>
      <point x="115" y="0" type="curve"/>
      <point x="115" y="35"/>
      <point x="115" y="0"/>
    </contour>
    <contour>
      <point x="125" y="346" type="curve"/>
      <point x="134" y="413"/>
      <point x="175" y="502"/>
      <point x="242" y="502" type="curve"/>
      <point x="317" y="502"/>
      <point x="322" y="426"/>
      <point x="322" y="337" type="curve"/>
      <point x="322" y="225"/>
      <point x="322" y="112"/>
      <point x="322" y="0" type="curve"/>
      <point x="363" y="0"/>
      <point x="322" y="0"/>
      <point x="363" y="0" type="curve"/>
      <point x="363" y="114"/>
      <point x="363" y="227"/>
      <point x="363" y="340" type="curve"/>
      <point x="363" y="449"/>
      <point x="346" y="537"/>
      <point x="251" y="537" type="curve"/>
      <point x="171" y="537"/>
      <point x="118" y="449"/>
      <point x="111" y="370" type="curve"/>
      <point x="129" y="349"/>
      <point x="108" y="366"/>
    </contour>
    <contour>
      <point x="135" y="0" type="curve"/>
      <point x="135" y="267"/>
      <point x="135" y="533"/>
      <point x="135" y="800" type="curve"/>
      <point x="94" y="800"/>
      <point x="135" y="800"/>
      <point x="94" y="800" type="curve"/>
      <point x="94" y="533"/>
      <point x="94" y="267"/>
      <point x="94" y="0" type="curve"/>
      <point x="135" y="0"/>
      <point x="94" y="0"/>
    </contour>
  </outline>
</glyph>
<glyph name="i" format="1">
  <advance width="253"/>
  <unicode hex="0069"/>
  <outline>
    <contour>
      <point x="139" y="662" type="move" name="top"/>
    </contour>
    <contour>
      <point x="161" y="0" type="move" name="bottom"/>
    </contour>
    <contour>
      <point x="140" y="35" type="curve"/>
      <point x="24" y="35"/>
      <point x="149" y="35"/>
      <point x="33" y="35" type="curve"/>
      <point x="33" y="0"/>
      <point x="33" y="35"/>
      <point x="33" y="0" type="curve"/>
      <point x="71" y="0"/>
      <point x="102" y="0"/>
      <point x="140" y="0" type="curve"/>
      <point x="140" y="35"/>
      <point x="140" y="0"/>
    </contour>
    <contour>
      <point x="140" y="0" type="curve"/>
      <point x="176" y="0"/>
      <point x="205" y="0"/>
      <point x="242" y="0" type="curve"/>
      <point x="242" y="35"/>
      <point x="242" y="0"/>
      <point x="242" y="35" type="curve"/>
      <point x="132" y="35"/>
      <point x="250" y="35"/>
      <point x="140" y="35" type="curve"/>
      <point x="140" y="0"/>
      <point x="140" y="35"/>
    </contour>
    <contour>
      <point x="140" y="533" type="curve"/>
      <point x="102" y="533"/>
      <point x="71" y="533"/>
      <point x="33" y="533" type="curve"/>
      <point x="33" y="498"/>
      <point x="33" y="533"/>
      <point x="33" y="498" type="curve"/>
      <point x="149" y="498"/>
      <point x="24" y="498"/>
      <point x="140" y="498" type="curve"/>
      <point x="140" y="533"/>
      <point x="140" y="498"/>
    </contour>
    <contour>
      <point x="162" y="0" type="curve"/>
      <point x="162" y="178"/>
      <point x="162" y="355"/>
      <point x="162" y="533" type="curve"/>
      <point x="118" y="533"/>
      <point x="162" y="533"/>
      <point x="118" y="533" type="curve"/>
      <point x="118" y="355"/>
      <point x="118" y="178"/>
      <point x="118" y="0" type="curve"/>
      <point x="162" y="0"/>
      <point x="118" y="0"/>
    </contour>
    <contour>
      <point x="164" y="684" type="curve"/>
      <point x="164" y="700"/>
      <point x="153" y="709"/>
      <point x="138" y="709" type="curve"/>
      <point x="122" y="709"/>
      <point x="113" y="699"/>
      <point x="113" y="684" type="curve"/>
      <point x="166" y="684"/>
      <point x="110" y="684"/>
      <point x="164" y="684" type="curve"/>
      <point x="164" y="667"/>
      <point x="153" y="659"/>
      <point x="138" y="659" type="curve"/>
      <point x="122" y="659"/>
      <point x="113" y="668"/>
      <point x="113" y="684" type="curve"/>
      <point x="166" y="684"/>
      <point x="110" y="684"/>
    </contour>
  </outline>
</glyph>
<glyph name="j" format="1">
  <advance width="230"/>
  <unicode hex="006A"/>
  <outline>
    <contour>
      <point x="114" y="533" type="curve"/>
      <point x="76" y="533"/>
      <point x="44" y="533"/>
      <point x="7" y="533" type="curve"/>
      <point x="7" y="498"/>
      <point x="7" y="533"/>
      <point x="7" y="498" type="curve"/>
      <point x="124" y="498"/>
      <point x="-3" y="498"/>
      <point x="114" y="498" type="curve"/>
      <point x="114" y="533"/>
      <point x="114" y="498"/>
    </contour>
    <contour>
      <point x="4" y="-301" type="curve"/>
      <point x="9" y="-302"/>
      <point x="16" y="-304"/>
      <point x="24" y="-304" type="curve"/>
      <point x="100" y="-304"/>
      <point x="135" y="-224"/>
      <point x="135" y="-139" type="curve"/>
      <point x="135" y="85"/>
      <point x="135" y="309"/>
      <point x="135" y="533" type="curve"/>
      <point x="94" y="533"/>
      <point x="135" y="533"/>
      <point x="94" y="533" type="curve"/>
      <point x="94" y="309"/>
      <point x="94" y="85"/>
      <point x="94" y="-139" type="curve"/>
      <point x="94" y="-196"/>
      <point x="76" y="-266"/>
      <point x="25" y="-266" type="curve"/>
      <point x="20" y="-266"/>
      <point x="15" y="-266"/>
      <point x="11" y="-265" type="curve"/>
      <point x="4" y="-297"/>
      <point x="10" y="-268"/>
    </contour>
    <contour>
      <point x="140" y="683" type="curve"/>
      <point x="140" y="700"/>
      <point x="130" y="708"/>
      <point x="115" y="708" type="curve"/>
      <point x="99" y="708"/>
      <point x="90" y="698"/>
      <point x="90" y="683" type="curve"/>
      <point x="144" y="683"/>
      <point x="87" y="683"/>
      <point x="140" y="683" type="curve"/>
      <point x="140" y="667"/>
      <point x="130" y="659"/>
      <point x="115" y="659" type="curve"/>
      <point x="99" y="659"/>
      <point x="90" y="667"/>
      <point x="90" y="683" type="curve"/>
      <point x="144" y="683"/>
      <point x="87" y="683"/>
    </contour>
  </outline>
</glyph>
<glyph name="l" format="1">
  <advance width="252"/>
  <unicode hex="006C"/>
  <outline>
    <contour>
      <point x="126" y="884" type="move" name="top"/>
    </contour>
    <contour>
      <point x="132" y="-79" type="move" name="bottom"/>
    </contour>
    <contour>
      <point x="127" y="35" type="curve"/>
      <point x="9" y="35"/>
      <point x="127" y="35"/>
      <point x="9" y="35" type="curve"/>
      <point x="9" y="0"/>
      <point x="9" y="35"/>
      <point x="9" y="0" type="curve"/>
      <point x="49" y="0"/>
      <point x="87" y="0"/>
      <point x="127" y="0" type="curve"/>
      <point x="127" y="35"/>
      <point x="127" y="0"/>
    </contour>
    <contour>
      <point x="128" y="800" type="curve"/>
      <point x="88" y="800"/>
      <point x="49" y="800"/>
      <point x="11" y="800" type="curve"/>
      <point x="10" y="765"/>
      <point x="11" y="800"/>
      <point x="10" y="765" type="curve"/>
      <point x="128" y="765"/>
      <point x="10" y="765"/>
      <point x="128" y="765" type="curve"/>
      <point x="128" y="800"/>
      <point x="128" y="765"/>
    </contour>
    <contour>
      <point x="127" y="0" type="curve"/>
      <point x="166" y="0"/>
      <point x="204" y="0"/>
      <point x="244" y="0" type="curve"/>
      <point x="244" y="35"/>
      <point x="244" y="0"/>
      <point x="244" y="35" type="curve"/>
      <point x="127" y="35"/>
      <point x="244" y="35"/>
      <point x="127" y="35" type="curve"/>
      <point x="127" y="0"/>
      <point x="127" y="35"/>
    </contour>
    <contour>
      <point x="146" y="0" type="curve"/>
      <point x="146" y="267"/>
      <point x="146" y="533"/>
      <point x="146" y="800" type="curve"/>
      <point x="105" y="800"/>
      <point x="146" y="800"/>
      <point x="105" y="800" type="curve"/>
      <point x="105" y="533"/>
      <point x="105" y="267"/>
      <point x="105" y="0" type="curve"/>
      <point x="146" y="0"/>
      <point x="105" y="0"/>
    </contour>
  </outline>
</glyph>
<glyph name="p" format="1">
  <advance width="459"/>
  <unicode hex="0070"/>
  <outline>
    <contour>
      <point x="113" y="-265" type="curve"/>
      <point x="-2" y="-265"/>
      <point x="120" y="-265"/>
      <point x="6" y="-265" type="curve"/>
      <point x="6" y="-300"/>
      <point x="6" y="-265"/>
      <point x="6" y="-300" type="curve"/>
      <point x="44" y="-300"/>
      <point x="75" y="-300"/>
      <point x="113" y="-300" type="curve"/>
      <point x="113" y="-265"/>
      <point x="113" y="-300"/>
    </contour>
    <contour>
      <point x="113" y="-300" type="curve"/>
      <point x="148" y="-300"/>
      <point x="176" y="-300"/>
      <point x="213" y="-300" type="curve"/>
      <point x="213" y="-265"/>
      <point x="213" y="-300"/>
      <point x="213" y="-265" type="curve"/>
      <point x="105" y="-265"/>
      <point x="221" y="-265"/>
      <point x="113" y="-265" type="curve"/>
      <point x="113" y="-300"/>
      <point x="113" y="-265"/>
    </contour>
    <contour>
      <point x="114" y="533" type="curve"/>
      <point x="76" y="533"/>
      <point x="45" y="533"/>
      <point x="7" y="533" type="curve"/>
      <point x="7" y="498"/>
      <point x="7" y="533"/>
      <point x="7" y="498" type="curve"/>
      <point x="121" y="498"/>
      <point x="-2" y="498"/>
      <point x="114" y="498" type="curve"/>
      <point x="114" y="533"/>
      <point x="114" y="498"/>
    </contour>
    <contour>
      <point x="124" y="387" type="curve"/>
      <point x="134" y="436"/>
      <point x="181" y="503"/>
      <point x="240" y="503" type="curve"/>
      <point x="343" y="503"/>
      <point x="358" y="393"/>
      <point x="358" y="274" type="curve"/>
      <point x="360" y="148"/>
      <point x="341" y="30"/>
      <point x="240" y="30" type="curve"/>
      <point x="183" y="30"/>
      <point x="149" y="74"/>
      <point x="127" y="127" type="curve"/>
      <point x="105" y="107"/>
      <point x="127" y="128"/>
      <point x="106" y="109" type="curve"/>
      <point x="133" y="41"/>
      <point x="175" y="-5"/>
      <point x="245" y="-5" type="curve"/>
      <point x="379" y="-5"/>
      <point x="399" y="130"/>
      <point x="400" y="276" type="curve"/>
      <point x="400" y="413"/>
      <point x="373" y="538"/>
      <point x="246" y="538" type="curve"/>
      <point x="173" y="538"/>
      <point x="126" y="475"/>
      <point x="109" y="421" type="curve"/>
      <point x="129" y="389"/>
      <point x="104" y="419"/>
    </contour>
    <contour>
      <point x="133" y="-300" type="curve"/>
      <point x="133" y="-22"/>
      <point x="133" y="255"/>
      <point x="133" y="533" type="curve"/>
      <point x="92" y="533"/>
      <point x="133" y="533"/>
      <point x="92" y="533" type="curve"/>
      <point x="92" y="255"/>
      <point x="92" y="-22"/>
      <point x="92" y="-300" type="curve"/>
      <point x="133" y="-300"/>
      <point x="92" y="-300"/>
    </contour>
  </outline>
</glyph>
<glyph name="q" format="1">
  <advance width="456"/>
  <unicode hex="0071"/>
  <outline>
    <contour>
      <point x="344" y="498" type="curve"/>
      <point x="455" y="498"/>
      <point x="332" y="498"/>
      <point x="445" y="498" type="curve"/>
      <point x="445" y="535"/>
      <point x="445" y="497"/>
      <point x="445" y="533" type="curve"/>
      <point x="408" y="533"/>
      <point x="378" y="533"/>
      <point x="344" y="533" type="curve"/>
      <point x="344" y="497"/>
      <point x="344" y="535"/>
    </contour>
    <contour>
      <point x="343" y="-265" type="curve"/>
      <point x="225" y="-265"/>
      <point x="354" y="-265"/>
      <point x="235" y="-265" type="curve"/>
      <point x="235" y="-302"/>
      <point x="235" y="-264"/>
      <point x="235" y="-300" type="curve"/>
      <point x="274" y="-300"/>
      <point x="305" y="-300"/>
      <point x="343" y="-300" type="curve"/>
      <point x="343" y="-264"/>
      <point x="343" y="-302"/>
    </contour>
    <contour>
      <point x="343" y="-300" type="curve"/>
      <point x="378" y="-300"/>
      <point x="408" y="-300"/>
      <point x="445" y="-300" type="curve"/>
      <point x="445" y="-264"/>
      <point x="445" y="-302"/>
      <point x="445" y="-265" type="curve"/>
      <point x="332" y="-265"/>
      <point x="455" y="-265"/>
      <point x="343" y="-265" type="curve"/>
      <point x="343" y="-302"/>
      <point x="343" y="-264"/>
    </contour>
    <contour>
      <point x="346" y="428" type="curve"/>
      <point x="324" y="500"/>
      <point x="267" y="538"/>
      <point x="210" y="538" type="curve"/>
      <point x="82" y="538"/>
      <point x="58" y="406"/>
      <point x="58" y="264" type="curve"/>
      <point x="59" y="123"/>
      <point x="88" y="-6"/>
      <point x="214" y="-6" type="curve"/>
      <point x="278" y="-6"/>
      <point x="328" y="56"/>
      <point x="346" y="121" type="curve"/>
      <point x="328" y="141"/>
      <point x="347" y="124"/>
      <point x="329" y="145" type="curve"/>
      <point x="314" y="86"/>
      <point x="270" y="29"/>
      <point x="217" y="29" type="curve"/>
      <point x="116" y="29"/>
      <point x="100" y="145"/>
      <point x="100" y="266" type="curve"/>
      <point x="100" y="386"/>
      <point x="115" y="503"/>
      <point x="215" y="503" type="curve"/>
      <point x="262" y="503"/>
      <point x="309" y="469"/>
      <point x="332" y="402" type="curve"/>
      <point x="346" y="424"/>
      <point x="333" y="406"/>
    </contour>
    <contour>
      <point x="364" y="-300" type="curve"/>
      <point x="364" y="-23"/>
      <point x="364" y="256"/>
      <point x="364" y="533" type="curve"/>
      <point x="318" y="533"/>
      <point x="366" y="533"/>
      <point x="321" y="533" type="curve"/>
      <point x="321" y="256"/>
      <point x="321" y="-23"/>
      <point x="321" y="-300" type="curve"/>
      <point x="366" y="-300"/>
      <point x="318" y="-300"/>
    </contour>
  </outline>
</glyph>
<glyph name="r" format="1">
  <advance width="324"/>
  <unicode hex="0072"/>
  <outline>
    <contour>
      <point x="145" y="662" type="move" name="top"/>
    </contour>
    <contour>
      <point x="149" y="-79" type="move" name="bottom"/>
    </contour>
    <contour>
      <point x="143" y="0" type="curve"/>
      <point x="180" y="0"/>
      <point x="209" y="0"/>
      <point x="244" y="0" type="curve"/>
      <point x="244" y="36"/>
      <point x="244" y="-2"/>
      <point x="244" y="35" type="curve"/>
      <point x="132" y="35"/>
      <point x="256" y="35"/>
      <point x="143" y="35" type="curve"/>
      <point x="143" y="-2"/>
      <point x="143" y="36"/>
    </contour>
    <contour>
      <point x="143" y="35" type="curve"/>
      <point x="24" y="35"/>
      <point x="154" y="35"/>
      <point x="36" y="35" type="curve"/>
      <point x="36" y="-2"/>
      <point x="36" y="36"/>
      <point x="36" y="0" type="curve"/>
      <point x="73" y="0"/>
      <point x="104" y="0"/>
      <point x="143" y="0" type="curve"/>
      <point x="143" y="36"/>
      <point x="143" y="-2"/>
    </contour>
    <contour>
      <point x="143" y="533" type="curve"/>
      <point x="105" y="533"/>
      <point x="73" y="533"/>
      <point x="36" y="533" type="curve"/>
      <point x="36" y="497"/>
      <point x="36" y="535"/>
      <point x="36" y="498" type="curve"/>
      <point x="155" y="498"/>
      <point x="24" y="498"/>
      <point x="143" y="498" type="curve"/>
      <point x="143" y="535"/>
      <point x="143" y="497"/>
    </contour>
    <contour>
      <point x="164" y="0" type="curve"/>
      <point x="164" y="177"/>
      <point x="164" y="356"/>
      <point x="164" y="533" type="curve"/>
      <point x="120" y="533"/>
      <point x="166" y="533"/>
      <point x="123" y="533" type="curve"/>
      <point x="123" y="356"/>
      <point x="123" y="177"/>
      <point x="123" y="0" type="curve"/>
      <point x="166" y="0"/>
      <point x="120" y="0"/>
    </contour>
    <contour>
      <point x="154" y="361" type="curve"/>
      <point x="165" y="445"/>
      <point x="228" y="503"/>
      <point x="296" y="503" type="curve"/>
      <point x="296" y="545"/>
      <point x="296" y="496"/>
      <point x="296" y="538" type="curve"/>
      <point x="217" y="538"/>
      <point x="154" y="476"/>
      <point x="136" y="388" type="curve"/>
      <point x="155" y="369"/>
      <point x="141" y="377"/>
    </contour>
  </outline>
</glyph>
<glyph name="t" format="1">
  <advance width="280"/>
  <unicode hex="0074"/>
  <outline>
    <contour>
      <point x="185" y="-78" type="move" name="bottom"/>
    </contour>
    <contour>
      <point x="19" y="498" type="curve"/>
      <point x="260" y="498" type="line"/>
      <point x="260" y="533"/>
      <point x="260" y="498"/>
      <point x="260" y="533" type="curve"/>
      <point x="19" y="533" type="line"/>
      <point x="19" y="498"/>
      <point x="19" y="533"/>
    </contour>
    <contour>
      <point x="238" y="57" type="curve"/>
      <point x="222" y="42"/>
      <point x="208" y="32"/>
      <point x="187" y="32" type="curve"/>
      <point x="138" y="32"/>
      <point x="134" y="85"/>
      <point x="134" y="149" type="curve"/>
      <point x="134" y="681" type="line"/>
      <point x="112" y="668"/>
      <point x="113" y="660"/>
      <point x="93" y="647" type="curve"/>
      <point x="93" y="147" type="line"/>
      <point x="93" y="59"/>
      <point x="108" y="-5"/>
      <point x="182" y="-5" type="curve"/>
      <point x="211" y="-5"/>
      <point x="233" y="5"/>
      <point x="257" y="24" type="curve"/>
      <point x="238" y="57"/>
      <point x="257" y="24"/>
    </contour>
  </outline>
</glyph>
<glyph name="v" format="1">
  <advance width="459"/>
  <unicode hex="0076"/>
  <outline>
    <contour>
      <point x="106" y="533" type="curve"/>
      <point x="70" y="533"/>
      <point x="41" y="533"/>
      <point x="4" y="533" type="curve"/>
      <point x="4" y="498"/>
      <point x="4" y="533"/>
      <point x="4" y="498" type="curve"/>
      <point x="116" y="498"/>
      <point x="-5" y="498"/>
      <point x="106" y="498" type="curve"/>
      <point x="106" y="533"/>
      <point x="106" y="498"/>
    </contour>
    <contour>
      <point x="106" y="498" type="curve"/>
      <point x="194" y="498"/>
      <point x="99" y="498"/>
      <point x="187" y="498" type="curve"/>
      <point x="187" y="533"/>
      <point x="187" y="498"/>
      <point x="187" y="533" type="curve"/>
      <point x="156" y="533"/>
      <point x="135" y="533"/>
      <point x="106" y="533" type="curve"/>
      <point x="106" y="498"/>
      <point x="106" y="533"/>
    </contour>
    <contour>
      <point x="362" y="533" type="curve"/>
      <point x="330" y="533"/>
      <point x="306" y="533"/>
      <point x="274" y="533" type="curve"/>
      <point x="274" y="498"/>
      <point x="274" y="533"/>
      <point x="274" y="498" type="curve"/>
      <point x="371" y="498"/>
      <point x="265" y="498"/>
      <point x="362" y="498" type="curve"/>
      <point x="362" y="533"/>
      <point x="362" y="498"/>
    </contour>
    <contour>
      <point x="362" y="498" type="curve"/>
      <point x="464" y="498"/>
      <point x="355" y="498"/>
      <point x="456" y="498" type="curve"/>
      <point x="456" y="533"/>
      <point x="456" y="498"/>
      <point x="456" y="533" type="curve"/>
      <point x="422" y="533"/>
      <point x="396" y="533"/>
      <point x="362" y="533" type="curve"/>
      <point x="362" y="498"/>
      <point x="362" y="533"/>
    </contour>
    <contour>
      <point x="79" y="533" type="curve"/>
      <point x="123" y="355"/>
      <point x="165" y="178"/>
      <point x="207" y="0" type="curve"/>
      <point x="247" y="0"/>
      <point x="207" y="0"/>
      <point x="247" y="0" type="curve"/>
      <point x="205" y="178"/>
      <point x="164" y="355"/>
      <point x="123" y="533" type="curve"/>
      <point x="79" y="533"/>
      <point x="123" y="533"/>
    </contour>
    <contour>
      <point x="347" y="533" type="curve"/>
      <point x="215" y="0" type="line"/>
      <point x="255" y="0"/>
      <point x="215" y="0"/>
      <point x="255" y="0" type="curve"/>
      <point x="300" y="178"/>
      <point x="345" y="355"/>
      <point x="390" y="533" type="curve"/>
      <point x="347" y="533"/>
      <point x="390" y="533"/>
    </contour>
  </outline>
</glyph>
<glyph name="w" format="1">
  <advance width="663"/>
  <unicode hex="0077"/>
  <outline>
    <contour>
      <point x="555" y="498" type="curve"/>
      <point x="669" y="498"/>
      <point x="546" y="498"/>
      <point x="660" y="498" type="curve"/>
      <point x="660" y="533"/>
      <point x="660" y="498"/>
      <point x="660" y="533" type="curve"/>
      <point x="623" y="533"/>
      <point x="592" y="533"/>
      <point x="555" y="533" type="curve"/>
      <point x="555" y="498"/>
      <point x="555" y="533"/>
    </contour>
    <contour>
      <point x="555" y="533" type="curve"/>
      <point x="517" y="533"/>
      <point x="507" y="533"/>
      <point x="469" y="533" type="curve"/>
      <point x="469" y="498"/>
      <point x="469" y="533"/>
      <point x="469" y="498" type="curve"/>
      <point x="582" y="498"/>
      <point x="442" y="498"/>
      <point x="555" y="498" type="curve"/>
      <point x="555" y="533"/>
      <point x="555" y="498"/>
    </contour>
    <contour>
      <point x="108" y="533" type="curve"/>
      <point x="71" y="533"/>
      <point x="41" y="533"/>
      <point x="3" y="533" type="curve"/>
      <point x="3" y="498"/>
      <point x="3" y="533"/>
      <point x="3" y="498" type="curve"/>
      <point x="117" y="498"/>
      <point x="-5" y="498"/>
      <point x="108" y="498" type="curve"/>
      <point x="108" y="533"/>
      <point x="108" y="498"/>
    </contour>
    <contour>
      <point x="108" y="498" type="curve"/>
      <point x="220" y="498"/>
      <point x="90" y="498"/>
      <point x="202" y="498" type="curve"/>
      <point x="202" y="533"/>
      <point x="202" y="498"/>
      <point x="202" y="533" type="curve"/>
      <point x="165" y="533"/>
      <point x="145" y="533"/>
      <point x="108" y="533" type="curve"/>
      <point x="108" y="498"/>
      <point x="108" y="533"/>
    </contour>
    <contour>
      <point x="229" y="0" type="curve"/>
      <point x="270" y="178"/>
      <point x="312" y="355"/>
      <point x="353" y="533" type="curve"/>
      <point x="313" y="533"/>
      <point x="353" y="533"/>
      <point x="313" y="533" type="curve"/>
      <point x="274" y="355"/>
      <point x="232" y="178"/>
      <point x="192" y="0" type="curve"/>
      <point x="229" y="0"/>
      <point x="192" y="0"/>
    </contour>
    <contour>
      <point x="544" y="533" type="curve"/>
      <point x="507" y="355"/>
      <point x="468" y="178"/>
      <point x="431" y="0" type="curve"/>
      <point x="467" y="0"/>
      <point x="431" y="0"/>
      <point x="467" y="0" type="curve"/>
      <point x="507" y="178"/>
      <point x="545" y="355"/>
      <point x="585" y="533" type="curve"/>
      <point x="544" y="533"/>
      <point x="585" y="533"/>
    </contour>
    <contour>
      <point x="318" y="533" type="curve"/>
      <point x="356" y="355"/>
      <point x="392" y="178"/>
      <point x="430" y="0" type="curve"/>
      <point x="466" y="0"/>
      <point x="430" y="0"/>
      <point x="466" y="0" type="curve"/>
      <point x="430" y="178"/>
      <point x="393" y="355"/>
      <point x="357" y="533" type="curve"/>
      <point x="318" y="533"/>
      <point x="357" y="533"/>
    </contour>
    <contour>
      <point x="80" y="533" type="curve"/>
      <point x="117" y="355"/>
      <point x="155" y="178"/>
      <point x="191" y="0" type="curve"/>
      <point x="228" y="0"/>
      <point x="191" y="0"/>
      <point x="228" y="0" type="curve"/>
      <point x="191" y="178"/>
      <point x="155" y="355"/>
      <point x="119" y="533" type="curve"/>
      <point x="80" y="533"/>
      <point x="119" y="533"/>
    </contour>
  </outline>
</glyph>
<glyph name="x" format="1">
  <advance width="474"/>
  <unicode hex="0078"/>
  <outline>
    <contour>
      <point x="107" y="35" type="curve"/>
      <point x="3" y="35"/>
      <point x="114" y="35"/>
      <point x="9" y="35" type="curve"/>
      <point x="9" y="0"/>
      <point x="9" y="35"/>
      <point x="9" y="0" type="curve"/>
      <point x="44" y="0"/>
      <point x="73" y="0"/>
      <point x="107" y="0" type="curve"/>
      <point x="107" y="35"/>
      <point x="107" y="0"/>
    </contour>
    <contour>
      <point x="370" y="35" type="curve"/>
      <point x="264" y="35"/>
      <point x="383" y="35"/>
      <point x="278" y="35" type="curve"/>
      <point x="278" y="0"/>
      <point x="278" y="35"/>
      <point x="278" y="0" type="curve"/>
      <point x="313" y="0"/>
      <point x="336" y="0"/>
      <point x="370" y="0" type="curve"/>
      <point x="370" y="35"/>
      <point x="370" y="0"/>
    </contour>
    <contour>
      <point x="366" y="0" type="curve"/>
      <point x="402" y="0"/>
      <point x="432" y="0"/>
      <point x="467" y="0" type="curve"/>
      <point x="467" y="35"/>
      <point x="467" y="0"/>
      <point x="467" y="35" type="curve"/>
      <point x="362" y="35"/>
      <point x="472" y="35"/>
      <point x="366" y="35" type="curve"/>
      <point x="366" y="0"/>
      <point x="366" y="35"/>
    </contour>
    <contour>
      <point x="103" y="0" type="curve"/>
      <point x="139" y="0"/>
      <point x="90" y="0"/>
      <point x="196" y="0" type="curve"/>
      <point x="196" y="35"/>
      <point x="196" y="0"/>
      <point x="196" y="35" type="curve"/>
      <point x="90" y="35"/>
      <point x="209" y="35"/>
      <point x="103" y="35" type="curve"/>
      <point x="103" y="0"/>
      <point x="103" y="35"/>
    </contour>
    <contour>
      <point x="357" y="498" type="curve"/>
      <point x="464" y="498"/>
      <point x="353" y="498"/>
      <point x="460" y="498" type="curve"/>
      <point x="460" y="533"/>
      <point x="460" y="498"/>
      <point x="460" y="533" type="curve"/>
      <point x="424" y="533"/>
      <point x="391" y="533"/>
      <point x="357" y="533" type="curve"/>
      <point x="357" y="498"/>
      <point x="357" y="533"/>
    </contour>
    <contour>
      <point x="125" y="533" type="curve"/>
      <point x="89" y="533"/>
      <point x="58" y="533"/>
      <point x="22" y="533" type="curve"/>
      <point x="22" y="498"/>
      <point x="22" y="533"/>
      <point x="22" y="498" type="curve"/>
      <point x="130" y="498"/>
      <point x="17" y="498"/>
      <point x="125" y="498" type="curve"/>
      <point x="125" y="533"/>
      <point x="125" y="498"/>
    </contour>
    <contour>
      <point x="121" y="498" type="curve"/>
      <point x="222" y="498"/>
      <point x="98" y="498"/>
      <point x="199" y="498" type="curve"/>
      <point x="199" y="533"/>
      <point x="199" y="498"/>
      <point x="199" y="533" type="curve"/>
      <point x="166" y="533"/>
      <point x="155" y="533"/>
      <point x="121" y="533" type="curve"/>
      <point x="121" y="498"/>
      <point x="121" y="533"/>
    </contour>
    <contour>
      <point x="362" y="533" type="curve"/>
      <point x="327" y="533"/>
      <point x="316" y="533"/>
      <point x="280" y="533" type="curve"/>
      <point x="280" y="498"/>
      <point x="280" y="533"/>
      <point x="280" y="498" type="curve"/>
      <point x="385" y="498"/>
      <point x="257" y="498"/>
      <point x="362" y="498" type="curve"/>
      <point x="362" y="533"/>
      <point x="362" y="498"/>
    </contour>
    <contour>
      <point x="395" y="6" type="curve"/>
      <point x="323" y="158"/>
      <point x="206" y="381"/>
      <point x="134" y="533" type="curve"/>
      <point x="101" y="533"/>
      <point x="129" y="526"/>
      <point x="95" y="526" type="curve"/>
      <point x="167" y="374"/>
      <point x="283" y="152"/>
      <point x="353" y="0" type="curve"/>
      <point x="389" y="0"/>
      <point x="359" y="6"/>
    </contour>
    <contour>
      <point x="348" y="533" type="curve"/>
      <point x="275" y="381"/>
      <point x="153" y="159"/>
      <point x="82" y="7" type="curve"/>
      <point x="116" y="7"/>
      <point x="87" y="0"/>
      <point x="122" y="0" type="curve"/>
      <point x="194" y="152"/>
      <point x="315" y="375"/>
      <point x="387" y="527" type="curve"/>
      <point x="354" y="527"/>
      <point x="381" y="533"/>
    </contour>
  </outline>
</glyph>
<glyph name="braceright" format="1">
  <advance width="226"/>
  <unicode hex="007D"/>
  <outline>
    <contour>
      <point x="47" y="-122" type="curve"/>
      <point x="119" y="-122"/>
      <point x="137" y="-51"/>
      <point x="137" y="34" type="curve"/>
      <point x="137" y="92"/>
      <point x="137" y="151"/>
      <point x="137" y="209" type="curve"/>
      <point x="137" y="267"/>
      <point x="139" y="321"/>
      <point x="188" y="321" type="curve"/>
      <point x="188" y="357"/>
      <point x="188" y="321"/>
      <point x="188" y="357" type="curve"/>
      <point x="118" y="357"/>
      <point x="99" y="287"/>
      <point x="99" y="205" type="curve"/>
      <point x="99" y="148"/>
      <point x="99" y="90"/>
      <point x="99" y="32" type="curve"/>
      <point x="99" y="-30"/>
      <point x="99" y="-87"/>
      <point x="47" y="-87" type="curve"/>
      <point x="47" y="-122"/>
      <point x="47" y="-87"/>
    </contour>
    <contour>
      <point x="47" y="764" type="curve"/>
      <point x="99" y="764"/>
      <point x="100" y="707"/>
      <point x="100" y="645" type="curve"/>
      <point x="100" y="587"/>
      <point x="100" y="530"/>
      <point x="100" y="472" type="curve"/>
      <point x="100" y="389"/>
      <point x="118" y="321"/>
      <point x="188" y="321" type="curve"/>
      <point x="188" y="357"/>
      <point x="188" y="321"/>
      <point x="188" y="357" type="curve"/>
      <point x="141" y="357"/>
      <point x="137" y="409"/>
      <point x="137" y="467" type="curve"/>
      <point x="137" y="526"/>
      <point x="137" y="585"/>
      <point x="137" y="645" type="curve"/>
      <point x="137" y="729"/>
      <point x="119" y="799"/>
      <point x="47" y="799" type="curve"/>
      <point x="47" y="764"/>
      <point x="47" y="799"/>
    </contour>
  </outline>
</glyph>
<glyph name="asciitilde" format="1">
  <advance width="493"/>
  <unicode hex="007E"/>
  <outline>
    <contour>
      <point x="378" y="349" type="curve"/>
      <point x="369" y="307"/>
      <point x="366" y="251"/>
      <point x="323" y="251" type="curve"/>
      <point x="293" y="251"/>
      <point x="279" y="270"/>
      <point x="263" y="296" type="curve"/>
      <point x="238" y="329"/>
      <point x="217" y="352"/>
      <point x="178" y="352" type="curve"/>
      <point x="110" y="352"/>
      <point x="94" y="297"/>
      <point x="83" y="226" type="curve"/>
      <point x="107" y="220"/>
      <point x="93" y="223"/>
      <point x="118" y="217" type="curve"/>
      <point x="124" y="265"/>
      <point x="130" y="316"/>
      <point x="176" y="316" type="curve"/>
      <point x="202" y="316"/>
      <point x="215" y="298"/>
      <point x="230" y="276" type="curve"/>
      <point x="256" y="239"/>
      <point x="279" y="216"/>
      <point x="322" y="216" type="curve"/>
      <point x="388" y="216"/>
      <point x="399" y="275"/>
      <point x="412" y="341" type="curve"/>
      <point x="388" y="346"/>
      <point x="402" y="344"/>
    </contour>
  </outline>
</glyph>
<glyph name="exclamdown" format="1">
  <advance width="219"/>
  <unicode hex="00A1"/>
  <outline>
    <contour>
      <point x="89" y="293" type="line"/>
      <point x="84" y="-200" type="line"/>
      <point x="135" y="-200" type="line"/>
      <point x="131" y="293" type="line"/>
    </contour>
    <contour>
      <point x="84" y="503" type="curve"/>
      <point x="84" y="487"/>
      <point x="94" y="478"/>
      <point x="110" y="478" type="curve"/>
      <point x="125" y="478"/>
      <point x="135" y="488"/>
      <point x="135" y="503" type="curve"/>
      <point x="81" y="503"/>
      <point x="138" y="503"/>
      <point x="84" y="503" type="curve"/>
      <point x="84" y="520"/>
      <point x="94" y="527"/>
      <point x="110" y="527" type="curve"/>
      <point x="126" y="527"/>
      <point x="135" y="519"/>
      <point x="135" y="503" type="curve"/>
      <point x="81" y="503"/>
      <point x="138" y="503"/>
    </contour>
  </outline>
</glyph>
<glyph name="cent" format="1">
  <advance width="444"/>
  <unicode hex="00A2"/>
  <outline>
    <contour>
      <point x="252" y="-53" type="curve"/>
      <point x="252" y="-13"/>
      <point x="252" y="27"/>
      <point x="252" y="67" type="curve"/>
      <point x="210" y="67"/>
      <point x="252" y="67"/>
      <point x="210" y="67" type="curve"/>
      <point x="210" y="27"/>
      <point x="210" y="-13"/>
      <point x="210" y="-53" type="curve"/>
      <point x="252" y="-53"/>
      <point x="210" y="-53"/>
    </contour>
    <contour>
      <point x="223" y="778" type="curve"/>
      <point x="223" y="742"/>
      <point x="223" y="706"/>
      <point x="223" y="670" type="curve"/>
      <point x="264" y="670"/>
      <point x="223" y="670"/>
      <point x="264" y="670" type="curve"/>
      <point x="264" y="706"/>
      <point x="264" y="742"/>
      <point x="264" y="778" type="curve"/>
      <point x="223" y="778"/>
      <point x="264" y="778"/>
    </contour>
    <contour>
      <point x="385" y="603" type="curve"/>
      <point x="345" y="656"/>
      <point x="306" y="680"/>
      <point x="247" y="680" type="curve"/>
      <point x="100" y="680"/>
      <point x="57" y="537"/>
      <point x="57" y="366" type="curve"/>
      <point x="57" y="198"/>
      <point x="86" y="53"/>
      <point x="229" y="53" type="curve"/>
      <point x="298" y="53"/>
      <point x="341" y="87"/>
      <point x="385" y="149" type="curve"/>
      <point x="358" y="173"/>
      <point x="385" y="149"/>
      <point x="358" y="173" type="curve"/>
      <point x="324" y="125"/>
      <point x="291" y="88"/>
      <point x="232" y="88" type="curve"/>
      <point x="116" y="88"/>
      <point x="98" y="221"/>
      <point x="98" y="367" type="curve"/>
      <point x="98" y="514"/>
      <point x="127" y="644"/>
      <point x="244" y="644" type="curve"/>
      <point x="296" y="644"/>
      <point x="328" y="620"/>
      <point x="359" y="580" type="curve"/>
      <point x="385" y="603"/>
      <point x="359" y="580"/>
    </contour>
    <contour>
      <point x="350" y="603" type="curve"/>
      <point x="350" y="483"/>
      <point x="350" y="600"/>
      <point x="350" y="481" type="curve"/>
      <point x="385" y="481"/>
      <point x="350" y="481"/>
      <point x="385" y="481" type="curve"/>
      <point x="385" y="600"/>
      <point x="385" y="483"/>
      <point x="385" y="603" type="curve"/>
      <point x="350" y="603"/>
      <point x="385" y="603"/>
    </contour>
  </outline>
</glyph>
<glyph name="sterling" format="1">
  <advance width="359"/>
  <unicode hex="00A3"/>
  <outline>
    <contour>
      <point x="293" y="35" type="curve"/>
      <point x="208" y="35"/>
      <point x="128" y="35"/>
      <point x="46" y="35" type="curve"/>
      <point x="46" y="0"/>
      <point x="46" y="35"/>
      <point x="46" y="0" type="curve"/>
      <point x="128" y="0"/>
      <point x="212" y="0"/>
      <point x="293" y="0" type="curve"/>
      <point x="293" y="35"/>
      <point x="293" y="0"/>
    </contour>
    <contour>
      <point x="263" y="394" type="curve"/>
      <point x="197" y="394"/>
      <point x="130" y="394"/>
      <point x="65" y="394" type="curve"/>
      <point x="65" y="359"/>
      <point x="65" y="394"/>
      <point x="65" y="359" type="curve"/>
      <point x="130" y="359"/>
      <point x="197" y="359"/>
      <point x="263" y="359" type="curve"/>
      <point x="263" y="394"/>
      <point x="263" y="359"/>
    </contour>
    <contour>
      <point x="306" y="675" type="curve"/>
      <point x="279" y="708"/>
      <point x="255" y="726"/>
      <point x="218" y="726" type="curve"/>
      <point x="73" y="726"/>
      <point x="90" y="559"/>
      <point x="114" y="373" type="curve"/>
      <point x="136" y="200"/>
      <point x="174" y="35"/>
      <point x="46" y="35" type="curve"/>
      <point x="46" y="0"/>
      <point x="46" y="35"/>
      <point x="46" y="0" type="curve"/>
      <point x="208" y="0"/>
      <point x="177" y="181"/>
      <point x="152" y="380" type="curve"/>
      <point x="134" y="539"/>
      <point x="107" y="690"/>
      <point x="215" y="690" type="curve"/>
      <point x="246" y="690"/>
      <point x="265" y="672"/>
      <point x="283" y="651" type="curve"/>
      <point x="306" y="675"/>
      <point x="283" y="651"/>
    </contour>
  </outline>
</glyph>
<glyph name="currency" format="1">
  <advance width="525"/>
  <unicode hex="00A4"/>
  <outline>
    <contour>
      <point x="191" y="311" type="curve"/>
      <point x="191" y="383"/>
      <point x="201" y="450"/>
      <point x="263" y="450" type="curve"/>
      <point x="323" y="450"/>
      <point x="332" y="384"/>
      <point x="332" y="311" type="curve"/>
      <point x="332" y="236"/>
      <point x="327" y="166"/>
      <point x="264" y="166" type="curve"/>
      <point x="200" y="166"/>
      <point x="191" y="235"/>
      <point x="191" y="311" type="curve"/>
      <point x="150" y="311"/>
      <point x="193" y="311"/>
      <point x="151" y="311" type="curve"/>
      <point x="151" y="213"/>
      <point x="178" y="133"/>
      <point x="263" y="133" type="curve"/>
      <point x="349" y="133"/>
      <point x="373" y="216"/>
      <point x="373" y="312" type="curve"/>
      <point x="373" y="405"/>
      <point x="346" y="484"/>
      <point x="266" y="484" type="curve"/>
      <point x="181" y="484"/>
      <point x="151" y="406"/>
      <point x="151" y="311" type="curve"/>
      <point x="193" y="311"/>
      <point x="150" y="311"/>
    </contour>
    <contour>
      <point x="320" y="422" type="line"/>
      <point x="459" y="555" type="line"/>
      <point x="427" y="587" type="line"/>
      <point x="294" y="448" type="line"/>
    </contour>
    <contour>
      <point x="297" y="175" type="line"/>
      <point x="430" y="36" type="line"/>
      <point x="463" y="68" type="line"/>
      <point x="324" y="202" type="line"/>
    </contour>
    <contour>
      <point x="201" y="202" type="line"/>
      <point x="62" y="69" type="line"/>
      <point x="94" y="37" type="line"/>
      <point x="227" y="176" type="line"/>
    </contour>
    <contour>
      <point x="232" y="449" type="line"/>
      <point x="99" y="588" type="line"/>
      <point x="67" y="556" type="line"/>
      <point x="205" y="423" type="line"/>
    </contour>
  </outline>
</glyph>
<glyph name="section" format="1">
  <advance width="365"/>
  <unicode hex="00A7"/>
  <outline>
    <contour>
      <point x="280" y="707" type="curve"/>
      <point x="249" y="736"/>
      <point x="225" y="751"/>
      <point x="186" y="751" type="curve"/>
      <point x="116" y="751"/>
      <point x="85" y="694"/>
      <point x="85" y="622" type="curve"/>
      <point x="85" y="557"/>
      <point x="110" y="508"/>
      <point x="167" y="477" type="curve"/>
      <point x="221" y="447"/>
      <point x="265" y="420"/>
      <point x="265" y="361" type="curve"/>
      <point x="265" y="301"/>
      <point x="248" y="253"/>
      <point x="194" y="236" type="curve"/>
      <point x="218" y="208"/>
      <point x="194" y="236"/>
      <point x="218" y="208" type="curve"/>
      <point x="285" y="232"/>
      <point x="306" y="289"/>
      <point x="306" y="361" type="curve"/>
      <point x="305" y="435"/>
      <point x="256" y="475"/>
      <point x="188" y="509" type="curve"/>
      <point x="144" y="533"/>
      <point x="125" y="572"/>
      <point x="125" y="622" type="curve"/>
      <point x="125" y="671"/>
      <point x="138" y="717"/>
      <point x="184" y="717" type="curve"/>
      <point x="217" y="717"/>
      <point x="237" y="701"/>
      <point x="259" y="681" type="curve"/>
      <point x="280" y="707"/>
      <point x="259" y="681"/>
    </contour>
    <contour>
      <point x="148" y="515" type="curve"/>
      <point x="87" y="486"/>
      <point x="65" y="435"/>
      <point x="65" y="367" type="curve"/>
      <point x="65" y="294"/>
      <point x="105" y="249"/>
      <point x="171" y="216" type="curve"/>
      <point x="217" y="191"/>
      <point x="248" y="159"/>
      <point x="248" y="105" type="curve"/>
      <point x="248" y="50"/>
      <point x="232" y="5"/>
      <point x="185" y="5" type="curve"/>
      <point x="146" y="5"/>
      <point x="124" y="26"/>
      <point x="99" y="55" type="curve"/>
      <point x="74" y="30"/>
      <point x="99" y="55"/>
      <point x="74" y="30" type="curve"/>
      <point x="107" y="-8"/>
      <point x="137" y="-29"/>
      <point x="184" y="-29" type="curve"/>
      <point x="253" y="-29"/>
      <point x="288" y="28"/>
      <point x="288" y="105" type="curve"/>
      <point x="287" y="171"/>
      <point x="257" y="218"/>
      <point x="197" y="248" type="curve"/>
      <point x="145" y="278"/>
      <point x="106" y="308"/>
      <point x="106" y="367" type="curve"/>
      <point x="106" y="422"/>
      <point x="120" y="465"/>
      <point x="169" y="489" type="curve"/>
      <point x="148" y="515"/>
      <point x="169" y="489"/>
    </contour>
    <contour>
      <point x="109" y="30" type="curve"/>
      <point x="109" y="150"/>
      <point x="109" y="29"/>
      <point x="109" y="149" type="curve"/>
      <point x="74" y="149"/>
      <point x="109" y="149"/>
      <point x="74" y="149" type="curve"/>
      <point x="74" y="29"/>
      <point x="74" y="150"/>
      <point x="74" y="30" type="curve"/>
      <point x="109" y="30"/>
      <point x="74" y="30"/>
    </contour>
    <contour>
      <point x="280" y="588" type="curve"/>
      <point x="280" y="708"/>
      <point x="280" y="587"/>
      <point x="280" y="707" type="curve"/>
      <point x="245" y="707"/>
      <point x="280" y="707"/>
      <point x="245" y="707" type="curve"/>
      <point x="245" y="587"/>
      <point x="245" y="708"/>
      <point x="245" y="588" type="curve"/>
      <point x="280" y="588"/>
      <point x="245" y="588"/>
    </contour>
  </outline>
</glyph>
<glyph name="dieresis" format="1">
  <advance width="318"/>
  <unicode hex="00A8"/>
  <outline>
    <contour>
      <point x="118" y="651" type="move" name="_top"/>
    </contour>
    <contour>
      <point x="98" y="671" type="curve"/>
      <point x="98" y="688"/>
      <point x="88" y="696"/>
      <point x="72" y="696" type="curve"/>
      <point x="57" y="696"/>
      <point x="48" y="687"/>
      <point x="48" y="671" type="curve"/>
      <point x="102" y="671"/>
      <point x="45" y="671"/>
      <point x="98" y="671" type="curve"/>
      <point x="98" y="655"/>
      <point x="88" y="647"/>
      <point x="72" y="647" type="curve"/>
      <point x="57" y="647"/>
      <point x="48" y="655"/>
      <point x="48" y="671" type="curve"/>
      <point x="102" y="671"/>
      <point x="45" y="671"/>
    </contour>
    <contour>
      <point x="188" y="671" type="curve"/>
      <point x="188" y="688"/>
      <point x="178" y="696"/>
      <point x="163" y="696" type="curve"/>
      <point x="147" y="696"/>
      <point x="138" y="687"/>
      <point x="138" y="671" type="curve"/>
      <point x="191" y="671"/>
      <point x="135" y="671"/>
      <point x="188" y="671" type="curve"/>
      <point x="188" y="655"/>
      <point x="179" y="647"/>
      <point x="163" y="647" type="curve"/>
      <point x="147" y="647"/>
      <point x="138" y="655"/>
      <point x="138" y="671" type="curve"/>
      <point x="191" y="671"/>
      <point x="135" y="671"/>
    </contour>
  </outline>
</glyph>
<glyph name="copyright" format="1">
  <advance width="532"/>
  <unicode hex="00A9"/>
  <outline>
    <contour>
      <point x="100" y="320" type="curve"/>
      <point x="100" y="473"/>
      <point x="138" y="615"/>
      <point x="269" y="615" type="curve"/>
      <point x="397" y="615"/>
      <point x="434" y="471"/>
      <point x="434" y="319" type="curve"/>
      <point x="434" y="169"/>
      <point x="399" y="28"/>
      <point x="272" y="28" type="curve"/>
      <point x="144" y="28"/>
      <point x="100" y="167"/>
      <point x="100" y="320" type="curve"/>
      <point x="62" y="320"/>
      <point x="100" y="320"/>
      <point x="63" y="320" type="curve"/>
      <point x="63" y="150"/>
      <point x="122" y="-3"/>
      <point x="271" y="-3" type="curve"/>
      <point x="418" y="-3"/>
      <point x="470" y="150"/>
      <point x="470" y="320" type="curve"/>
      <point x="470" y="491"/>
      <point x="416" y="646"/>
      <point x="269" y="646" type="curve"/>
      <point x="119" y="646"/>
      <point x="63" y="492"/>
      <point x="63" y="320" type="curve"/>
      <point x="100" y="320"/>
      <point x="62" y="320"/>
    </contour>
    <contour>
      <point x="317" y="447" type="curve"/>
      <point x="317" y="426"/>
      <point x="317" y="402"/>
      <point x="317" y="379" type="curve"/>
      <point x="352" y="379"/>
      <point x="317" y="379"/>
      <point x="352" y="379" type="curve"/>
      <point x="352" y="407"/>
      <point x="352" y="437"/>
      <point x="352" y="464" type="curve"/>
      <point x="317" y="447"/>
      <point x="352" y="464"/>
    </contour>
    <contour>
      <point x="351" y="464" type="curve"/>
      <point x="329" y="488"/>
      <point x="306" y="498"/>
      <point x="272" y="498" type="curve"/>
      <point x="188" y="498"/>
      <point x="162" y="417"/>
      <point x="162" y="320" type="curve"/>
      <point x="162" y="224"/>
      <point x="183" y="145"/>
      <point x="264" y="145" type="curve"/>
      <point x="304" y="145"/>
      <point x="332" y="159"/>
      <point x="356" y="195" type="curve"/>
      <point x="332" y="214"/>
      <point x="356" y="195"/>
      <point x="332" y="214" type="curve"/>
      <point x="316" y="191"/>
      <point x="296" y="176"/>
      <point x="265" y="176" type="curve"/>
      <point x="204" y="176"/>
      <point x="198" y="246"/>
      <point x="198" y="321" type="curve"/>
      <point x="198" y="398"/>
      <point x="207" y="467"/>
      <point x="271" y="467" type="curve"/>
      <point x="293" y="467"/>
      <point x="305" y="460"/>
      <point x="317" y="447" type="curve"/>
      <point x="351" y="464"/>
      <point x="317" y="447"/>
    </contour>
  </outline>
</glyph>
<glyph name="ordfeminine" format="1">
  <advance width="344"/>
  <unicode hex="00AA"/>
  <outline>
    <contour>
      <point x="86" y="719" type="curve"/>
      <point x="86" y="692"/>
      <point x="86" y="693"/>
      <point x="86" y="666" type="curve"/>
      <point x="103" y="666"/>
      <point x="97" y="666"/>
      <point x="114" y="666" type="curve"/>
      <point x="114" y="693"/>
      <point x="114" y="692"/>
      <point x="114" y="719" type="curve"/>
      <point x="97" y="719"/>
      <point x="103" y="719"/>
    </contour>
    <contour>
      <point x="244" y="430" type="curve"/>
      <point x="244" y="520"/>
      <point x="244" y="588"/>
      <point x="244" y="679" type="curve"/>
      <point x="244" y="731"/>
      <point x="215" y="766"/>
      <point x="166" y="766" type="curve"/>
      <point x="129" y="766"/>
      <point x="109" y="748"/>
      <point x="86" y="719" type="curve"/>
      <point x="96" y="705"/>
      <point x="94" y="710"/>
      <point x="105" y="695" type="curve"/>
      <point x="119" y="715"/>
      <point x="132" y="737"/>
      <point x="161" y="737" type="curve"/>
      <point x="194" y="737"/>
      <point x="210" y="708"/>
      <point x="210" y="671" type="curve"/>
      <point x="210" y="583"/>
      <point x="210" y="519"/>
      <point x="210" y="430" type="curve"/>
      <point x="231" y="430"/>
      <point x="223" y="430"/>
    </contour>
    <contour>
      <point x="228" y="430" type="curve"/>
      <point x="245" y="430"/>
      <point x="255" y="430"/>
      <point x="272" y="430" type="curve"/>
      <point x="272" y="447"/>
      <point x="272" y="442"/>
      <point x="272" y="459" type="curve"/>
      <point x="248" y="459"/>
      <point x="252" y="459"/>
      <point x="228" y="459" type="curve"/>
      <point x="228" y="442"/>
      <point x="228" y="447"/>
    </contour>
    <contour>
      <point x="226" y="634" type="curve"/>
      <point x="200" y="628"/>
      <point x="183" y="625"/>
      <point x="156" y="619" type="curve"/>
      <point x="105" y="609"/>
      <point x="72" y="576"/>
      <point x="72" y="522" type="curve"/>
      <point x="72" y="469"/>
      <point x="98" y="430"/>
      <point x="151" y="430" type="curve"/>
      <point x="197" y="430"/>
      <point x="214" y="466"/>
      <point x="236" y="508" type="curve"/>
      <point x="226" y="517"/>
      <point x="229" y="515"/>
      <point x="219" y="524" type="curve"/>
      <point x="203" y="489"/>
      <point x="194" y="459"/>
      <point x="158" y="459" type="curve"/>
      <point x="122" y="459"/>
      <point x="106" y="487"/>
      <point x="106" y="525" type="curve"/>
      <point x="106" y="561"/>
      <point x="124" y="586"/>
      <point x="155" y="593" type="curve"/>
      <point x="183" y="599"/>
      <point x="201" y="603"/>
      <point x="227" y="609" type="curve"/>
      <point x="227" y="624"/>
      <point x="226" y="620"/>
    </contour>
  </outline>
</glyph>
<glyph name="guillemotleft" format="1">
  <advance width="463"/>
  <unicode hex="00AB"/>
  <outline>
    <contour>
      <point x="231" y="413" type="curve"/>
      <point x="226" y="408"/>
      <point x="75" y="303"/>
      <point x="69" y="298" type="curve"/>
      <point x="69" y="260"/>
      <point x="69" y="295"/>
      <point x="69" y="257" type="curve"/>
      <point x="75" y="262"/>
      <point x="226" y="368"/>
      <point x="231" y="374" type="curve"/>
      <point x="231" y="412"/>
      <point x="231" y="375"/>
    </contour>
    <contour>
      <point x="232" y="182" type="curve"/>
      <point x="227" y="187"/>
      <point x="75" y="293"/>
      <point x="69" y="298" type="curve"/>
      <point x="69" y="260"/>
      <point x="69" y="295"/>
      <point x="69" y="257" type="curve"/>
      <point x="75" y="252"/>
      <point x="227" y="148"/>
      <point x="232" y="143" type="curve"/>
      <point x="232" y="181"/>
      <point x="232" y="145"/>
    </contour>
    <contour>
      <point x="372" y="413" type="curve"/>
      <point x="367" y="408"/>
      <point x="216" y="303"/>
      <point x="210" y="298" type="curve"/>
      <point x="210" y="260"/>
      <point x="210" y="295"/>
      <point x="210" y="257" type="curve"/>
      <point x="216" y="262"/>
      <point x="367" y="368"/>
      <point x="372" y="374" type="curve"/>
      <point x="372" y="412"/>
      <point x="372" y="375"/>
    </contour>
    <contour>
      <point x="373" y="182" type="curve"/>
      <point x="368" y="187"/>
      <point x="216" y="293"/>
      <point x="210" y="298" type="curve"/>
      <point x="210" y="260"/>
      <point x="210" y="295"/>
      <point x="210" y="257" type="curve"/>
      <point x="216" y="252"/>
      <point x="368" y="148"/>
      <point x="373" y="143" type="curve"/>
      <point x="373" y="181"/>
      <point x="373" y="145"/>
    </contour>
  </outline>
</glyph>
<glyph name="logicalnot" format="1">
  <advance width="581"/>
  <unicode hex="00AC"/>
  <outline>
    <contour>
      <point x="102" y="291" type="curve"/>
      <point x="497" y="291" type="line"/>
      <point x="497" y="329"/>
      <point x="497" y="291"/>
      <point x="497" y="329" type="curve"/>
      <point x="102" y="329" type="line"/>
      <point x="102" y="291"/>
      <point x="102" y="329"/>
    </contour>
    <contour>
      <point x="497" y="151" type="curve"/>
      <point x="497" y="329" type="line"/>
      <point x="455" y="329"/>
      <point x="496" y="329"/>
      <point x="455" y="329" type="curve"/>
      <point x="455" y="151" type="line"/>
      <point x="496" y="151"/>
      <point x="455" y="151"/>
    </contour>
  </outline>
</glyph>
<glyph name="registered" format="1">
  <advance width="535"/>
  <unicode hex="00AE"/>
  <outline>
    <contour>
      <point x="97" y="319" type="curve"/>
      <point x="97" y="474"/>
      <point x="137" y="616"/>
      <point x="270" y="616" type="curve"/>
      <point x="401" y="616"/>
      <point x="440" y="473"/>
      <point x="440" y="318" type="curve"/>
      <point x="440" y="166"/>
      <point x="403" y="26"/>
      <point x="274" y="26" type="curve"/>
      <point x="143" y="26"/>
      <point x="97" y="165"/>
      <point x="97" y="319" type="curve"/>
      <point x="71" y="319"/>
      <point x="89" y="319"/>
      <point x="63" y="319" type="curve"/>
      <point x="63" y="148"/>
      <point x="122" y="-4"/>
      <point x="272" y="-4" type="curve"/>
      <point x="422" y="-4"/>
      <point x="473" y="148"/>
      <point x="473" y="320" type="curve"/>
      <point x="473" y="492"/>
      <point x="420" y="646"/>
      <point x="270" y="646" type="curve"/>
      <point x="119" y="646"/>
      <point x="63" y="493"/>
      <point x="63" y="319" type="curve"/>
      <point x="89" y="319"/>
      <point x="71" y="319"/>
    </contour>
    <contour>
      <point x="326" y="148" type="curve"/>
      <point x="344" y="148"/>
      <point x="358" y="148"/>
      <point x="376" y="148" type="curve"/>
      <point x="376" y="178"/>
      <point x="376" y="148"/>
      <point x="376" y="178" type="curve"/>
      <point x="367" y="178"/>
      <point x="358" y="178"/>
      <point x="349" y="178" type="curve"/>
      <point x="328" y="167"/>
      <point x="339" y="183"/>
    </contour>
    <contour>
      <point x="243" y="494" type="curve"/>
      <point x="218" y="494"/>
      <point x="195" y="494"/>
      <point x="172" y="494" type="curve"/>
      <point x="172" y="462"/>
      <point x="172" y="494"/>
      <point x="172" y="462" type="curve"/>
      <point x="183" y="462"/>
      <point x="194" y="462"/>
      <point x="204" y="462" type="curve"/>
      <point x="243" y="494"/>
      <point x="204" y="462"/>
    </contour>
    <contour>
      <point x="243" y="178" type="curve"/>
      <point x="218" y="178"/>
      <point x="195" y="178"/>
      <point x="172" y="178" type="curve"/>
      <point x="172" y="148"/>
      <point x="172" y="178"/>
      <point x="172" y="148" type="curve"/>
      <point x="183" y="148"/>
      <point x="194" y="148"/>
      <point x="204" y="148" type="curve"/>
      <point x="243" y="178"/>
      <point x="204" y="148"/>
    </contour>
    <contour>
      <point x="204" y="148" type="curve"/>
      <point x="227" y="148"/>
      <point x="247" y="148"/>
      <point x="269" y="148" type="curve"/>
      <point x="269" y="178"/>
      <point x="269" y="148"/>
      <point x="269" y="178" type="curve"/>
      <point x="260" y="178"/>
      <point x="251" y="178"/>
      <point x="243" y="178" type="curve"/>
      <point x="204" y="148"/>
      <point x="243" y="178"/>
    </contour>
    <contour>
      <point x="266" y="311" type="curve"/>
      <point x="280" y="266"/>
      <point x="311" y="192"/>
      <point x="326" y="148" type="curve"/>
      <point x="350" y="169"/>
      <point x="335" y="153"/>
      <point x="349" y="178" type="curve"/>
      <point x="301" y="310" type="line"/>
      <point x="259" y="310"/>
      <point x="307" y="312"/>
    </contour>
    <contour>
      <point x="241" y="178" type="curve"/>
      <point x="241" y="283"/>
      <point x="241" y="389"/>
      <point x="241" y="494" type="curve"/>
      <point x="202" y="462"/>
      <point x="243" y="494"/>
      <point x="204" y="462" type="curve"/>
      <point x="204" y="357"/>
      <point x="204" y="252"/>
      <point x="204" y="148" type="curve"/>
      <point x="243" y="178"/>
      <point x="202" y="148"/>
    </contour>
    <contour>
      <point x="225" y="291" type="curve"/>
      <point x="237" y="291"/>
      <point x="250" y="291"/>
      <point x="261" y="291" type="curve"/>
      <point x="318" y="291"/>
      <point x="345" y="330"/>
      <point x="345" y="392" type="curve"/>
      <point x="345" y="449"/>
      <point x="321" y="494"/>
      <point x="270" y="494" type="curve"/>
      <point x="261" y="494"/>
      <point x="252" y="494"/>
      <point x="243" y="494" type="curve"/>
      <point x="204" y="462"/>
      <point x="243" y="494"/>
      <point x="204" y="462" type="curve"/>
      <point x="224" y="462"/>
      <point x="244" y="462"/>
      <point x="263" y="462" type="curve"/>
      <point x="297" y="462"/>
      <point x="310" y="429"/>
      <point x="310" y="390" type="curve"/>
      <point x="310" y="352"/>
      <point x="298" y="323"/>
      <point x="267" y="323" type="curve"/>
      <point x="253" y="323"/>
      <point x="238" y="323"/>
      <point x="225" y="323" type="curve"/>
      <point x="225" y="291"/>
      <point x="225" y="323"/>
    </contour>
  </outline>
</glyph>
<glyph name="macron" format="1">
  <advance width="256"/>
  <unicode hex="00AF"/>
  <outline>
    <contour>
      <point x="92" y="647" type="move" name="_top"/>
    </contour>
    <contour>
      <point x="161" y="681" type="curve"/>
      <point x="115" y="681"/>
      <point x="69" y="681"/>
      <point x="23" y="681" type="curve"/>
      <point x="23" y="647"/>
      <point x="23" y="681"/>
      <point x="23" y="647" type="curve"/>
      <point x="69" y="647"/>
      <point x="115" y="647"/>
      <point x="161" y="647" type="curve"/>
      <point x="161" y="681"/>
      <point x="161" y="647"/>
    </contour>
  </outline>
</glyph>
<glyph name="degree" format="1">
  <advance width="356"/>
  <unicode hex="00B0"/>
  <outline>
    <contour>
      <point x="289" y="462" type="curve"/>
      <point x="289" y="570"/>
      <point x="271" y="663"/>
      <point x="178" y="663" type="curve"/>
      <point x="86" y="663"/>
      <point x="68" y="571"/>
      <point x="68" y="464" type="curve"/>
      <point x="92" y="464"/>
      <point x="81" y="464"/>
      <point x="104" y="464" type="curve"/>
      <point x="104" y="549"/>
      <point x="104" y="630"/>
      <point x="176" y="630" type="curve"/>
      <point x="248" y="630"/>
      <point x="252" y="549"/>
      <point x="252" y="462" type="curve"/>
      <point x="252" y="371"/>
      <point x="253" y="289"/>
      <point x="179" y="289" type="curve"/>
      <point x="103" y="289"/>
      <point x="104" y="373"/>
      <point x="104" y="464" type="curve"/>
      <point x="81" y="464"/>
      <point x="92" y="464"/>
      <point x="68" y="464" type="curve"/>
      <point x="68" y="352"/>
      <point x="83" y="256"/>
      <point x="178" y="256" type="curve"/>
      <point x="273" y="256"/>
      <point x="289" y="351"/>
    </contour>
  </outline>
</glyph>
<glyph name="plusminus" format="1">
  <advance width="606"/>
  <unicode hex="00B1"/>
  <outline>
    <contour>
      <point x="69" y="24" type="line"/>
      <point x="536" y="24" type="line"/>
      <point x="536" y="62" type="line"/>
      <point x="69" y="62" type="line"/>
    </contour>
    <contour>
      <point x="69" y="291" type="curve"/>
      <point x="536" y="291" type="line"/>
      <point x="536" y="329"/>
      <point x="536" y="291"/>
      <point x="536" y="329" type="curve"/>
      <point x="69" y="329" type="line"/>
      <point x="69" y="291"/>
      <point x="69" y="329"/>
    </contour>
    <contour>
      <point x="324" y="25" type="curve"/>
      <point x="324" y="586" type="line"/>
      <point x="283" y="586"/>
      <point x="325" y="586"/>
      <point x="284" y="586" type="curve"/>
      <point x="284" y="25" type="line"/>
      <point x="325" y="25"/>
      <point x="283" y="25"/>
    </contour>
  </outline>
</glyph>
<glyph name="twosuperior" format="1">
  <advance width="365"/>
  <unicode hex="00B2"/>
  <outline>
    <contour>
      <point x="197" y="715" type="move" name="_top"/>
    </contour>
    <contour>
      <point x="172" y="297" type="move" name="_bottom"/>
    </contour>
    <contour>
      <point x="284" y="297" type="curve"/>
      <point x="284" y="336"/>
      <point x="284" y="345"/>
      <point x="284" y="384" type="curve"/>
      <point x="250" y="384"/>
      <point x="287" y="384"/>
      <point x="253" y="384" type="curve"/>
      <point x="253" y="356"/>
      <point x="253" y="357"/>
      <point x="253" y="328" type="curve"/>
      <point x="287" y="297"/>
      <point x="250" y="329"/>
    </contour>
    <contour>
      <point x="75" y="297" type="curve"/>
      <point x="143" y="297"/>
      <point x="216" y="297"/>
      <point x="284" y="297" type="curve"/>
      <point x="250" y="329"/>
      <point x="287" y="297"/>
      <point x="253" y="328" type="curve"/>
      <point x="195" y="328"/>
      <point x="134" y="328"/>
      <point x="75" y="328" type="curve"/>
      <point x="75" y="297"/>
      <point x="75" y="328"/>
    </contour>
    <contour>
      <point x="124" y="612" type="curve"/>
      <point x="135" y="649"/>
      <point x="146" y="683"/>
      <point x="184" y="683" type="curve"/>
      <point x="226" y="683"/>
      <point x="238" y="641"/>
      <point x="238" y="591" type="curve"/>
      <point x="238" y="546"/>
      <point x="220" y="516"/>
      <point x="193" y="478" type="curve"/>
      <point x="155" y="428"/>
      <point x="115" y="378"/>
      <point x="75" y="328" type="curve"/>
      <point x="86" y="297"/>
      <point x="75" y="328"/>
      <point x="86" y="297" type="curve"/>
      <point x="128" y="349"/>
      <point x="176" y="401"/>
      <point x="217" y="453" type="curve"/>
      <point x="251" y="500"/>
      <point x="273" y="536"/>
      <point x="273" y="593" type="curve"/>
      <point x="273" y="661"/>
      <point x="245" y="714"/>
      <point x="185" y="714" type="curve"/>
      <point x="135" y="714"/>
      <point x="109" y="681"/>
      <point x="95" y="623" type="curve"/>
      <point x="124" y="612"/>
      <point x="95" y="623"/>
    </contour>
  </outline>
</glyph>
<glyph name="threesuperior" format="1">
  <advance width="333"/>
  <unicode hex="00B3"/>
  <outline>
    <contour>
      <point x="182" y="714" type="move" name="_top"/>
    </contour>
    <contour>
      <point x="167" y="294" type="move" name="_bottom"/>
    </contour>
    <contour>
      <point x="106" y="643" type="curve"/>
      <point x="116" y="662"/>
      <point x="131" y="683"/>
      <point x="156" y="683" type="curve"/>
      <point x="195" y="683"/>
      <point x="212" y="648"/>
      <point x="212" y="603" type="curve"/>
      <point x="212" y="559"/>
      <point x="178" y="525"/>
      <point x="131" y="520" type="curve"/>
      <point x="131" y="494"/>
      <point x="131" y="520"/>
      <point x="131" y="494" type="curve"/>
      <point x="200" y="498"/>
      <point x="249" y="540"/>
      <point x="249" y="606" type="curve"/>
      <point x="249" y="668"/>
      <point x="219" y="714"/>
      <point x="160" y="714" type="curve"/>
      <point x="125" y="714"/>
      <point x="97" y="690"/>
      <point x="81" y="660" type="curve"/>
      <point x="106" y="643"/>
      <point x="81" y="660"/>
    </contour>
    <contour>
      <point x="78" y="326" type="curve"/>
      <point x="99" y="306"/>
      <point x="122" y="293"/>
      <point x="152" y="293" type="curve"/>
      <point x="219" y="289"/>
      <point x="259" y="338"/>
      <point x="259" y="408" type="curve"/>
      <point x="259" y="475"/>
      <point x="203" y="510"/>
      <point x="131" y="513" type="curve"/>
      <point x="131" y="490"/>
      <point x="131" y="513"/>
      <point x="131" y="490" type="curve"/>
      <point x="186" y="486"/>
      <point x="222" y="452"/>
      <point x="222" y="406" type="curve"/>
      <point x="221" y="360"/>
      <point x="199" y="322"/>
      <point x="155" y="324" type="curve"/>
      <point x="132" y="324"/>
      <point x="114" y="334"/>
      <point x="97" y="350" type="curve"/>
      <point x="78" y="326"/>
      <point x="97" y="350"/>
    </contour>
  </outline>
</glyph>
<glyph name="acute" format="1">
  <advance width="191"/>
  <unicode hex="00B4"/>
  <outline>
    <contour>
      <point x="32" y="590" type="move" name="_top"/>
    </contour>
    <contour>
      <point x="50" y="590" type="line"/>
      <point x="113" y="756" type="line"/>
      <point x="64" y="756" type="line"/>
      <point x="12" y="590" type="line"/>
    </contour>
  </outline>
</glyph>
<glyph name="paragraph" format="1">
  <advance width="515"/>
  <unicode hex="00B6"/>
  <outline>
    <contour>
      <point x="285" y="687" type="curve"/>
      <point x="408" y="687"/>
      <point x="285" y="687"/>
      <point x="408" y="687" type="curve"/>
      <point x="408" y="722"/>
      <point x="408" y="687"/>
      <point x="408" y="722" type="curve"/>
      <point x="368" y="722"/>
      <point x="326" y="722"/>
      <point x="285" y="722" type="curve"/>
      <point x="285" y="687"/>
      <point x="285" y="722"/>
    </contour>
    <contour>
      <point x="285" y="0" type="curve"/>
      <point x="326" y="0"/>
      <point x="368" y="0"/>
      <point x="408" y="0" type="curve"/>
      <point x="408" y="35"/>
      <point x="408" y="0"/>
      <point x="408" y="35" type="curve"/>
      <point x="285" y="35"/>
      <point x="408" y="35"/>
      <point x="285" y="35" type="curve"/>
      <point x="285" y="0"/>
      <point x="285" y="35"/>
    </contour>
    <contour>
      <point x="285" y="35" type="curve"/>
      <point x="192" y="35"/>
      <point x="285" y="35"/>
      <point x="192" y="35" type="curve"/>
      <point x="192" y="0"/>
      <point x="192" y="35"/>
      <point x="192" y="0" type="curve"/>
      <point x="285" y="0"/>
      <point x="254" y="0"/>
      <point x="285" y="0" type="curve"/>
      <point x="285" y="35"/>
      <point x="285" y="0"/>
    </contour>
    <contour>
      <point x="277" y="352" type="curve"/>
      <point x="249" y="327"/>
      <point x="227" y="311"/>
      <point x="190" y="311" type="curve"/>
      <point x="110" y="311"/>
      <point x="85" y="395"/>
      <point x="85" y="490" type="curve"/>
      <point x="85" y="595"/>
      <point x="117" y="687"/>
      <point x="209" y="687" type="curve"/>
      <point x="234" y="687"/>
      <point x="259" y="687"/>
      <point x="284" y="687" type="curve"/>
      <point x="284" y="722"/>
      <point x="284" y="687"/>
      <point x="284" y="722" type="curve"/>
      <point x="257" y="722"/>
      <point x="230" y="722"/>
      <point x="204" y="722" type="curve"/>
      <point x="92" y="722"/>
      <point x="44" y="616"/>
      <point x="44" y="492" type="curve"/>
      <point x="44" y="368"/>
      <point x="87" y="278"/>
      <point x="191" y="276" type="curve"/>
      <point x="231" y="276"/>
      <point x="263" y="296"/>
      <point x="291" y="321" type="curve"/>
      <point x="277" y="351"/>
      <point x="291" y="323"/>
    </contour>
    <contour>
      <point x="307" y="0" type="curve"/>
      <point x="307" y="241"/>
      <point x="307" y="481"/>
      <point x="307" y="722" type="curve"/>
      <point x="266" y="722"/>
      <point x="307" y="722"/>
      <point x="266" y="722" type="curve"/>
      <point x="266" y="481"/>
      <point x="266" y="241"/>
      <point x="266" y="0" type="curve"/>
      <point x="307" y="0"/>
      <point x="266" y="0"/>
    </contour>
    <contour>
      <point x="434" y="0" type="curve"/>
      <point x="434" y="241"/>
      <point x="434" y="481"/>
      <point x="434" y="722" type="curve"/>
      <point x="393" y="722"/>
      <point x="434" y="722"/>
      <point x="393" y="722" type="curve"/>
      <point x="393" y="481"/>
      <point x="393" y="241"/>
      <point x="393" y="0" type="curve"/>
      <point x="434" y="0"/>
      <point x="393" y="0"/>
    </contour>
  </outline>
</glyph>
<glyph name="periodcentered" format="1">
  <advance width="210"/>
  <unicode hex="00B7"/>
  <outline>
    <contour>
      <point x="130" y="440" type="curve"/>
      <point x="130" y="456"/>
      <point x="120" y="465"/>
      <point x="104" y="465" type="curve"/>
      <point x="89" y="465"/>
      <point x="80" y="455"/>
      <point x="80" y="440" type="curve"/>
      <point x="134" y="440"/>
      <point x="77" y="440"/>
      <point x="130" y="440" type="curve"/>
      <point x="130" y="424"/>
      <point x="120" y="415"/>
      <point x="104" y="415" type="curve"/>
      <point x="89" y="415"/>
      <point x="80" y="424"/>
      <point x="80" y="440" type="curve"/>
      <point x="134" y="440"/>
      <point x="77" y="440"/>
    </contour>
  </outline>
</glyph>
<glyph name="cedilla" format="1">
  <advance width="279"/>
  <unicode hex="00B8"/>
  <outline>
    <contour>
      <point x="128" y="14" type="move" name="_bottom"/>
    </contour>
    <contour>
      <point x="96" y="38" type="curve"/>
      <point x="86" y="12"/>
      <point x="75" y="-25"/>
      <point x="66" y="-50" type="curve"/>
      <point x="95" y="-78"/>
      <point x="66" y="-50"/>
      <point x="95" y="-78" type="curve"/>
      <point x="104" y="-50"/>
      <point x="119" y="-12"/>
      <point x="127" y="14" type="curve"/>
      <point x="96" y="38"/>
      <point x="127" y="14"/>
    </contour>
    <contour>
      <point x="95" y="-78" type="curve"/>
      <point x="102" y="-70"/>
      <point x="107" y="-66"/>
      <point x="117" y="-66" type="curve"/>
      <point x="139" y="-66"/>
      <point x="142" y="-89"/>
      <point x="142" y="-116" type="curve"/>
      <point x="142" y="-144"/>
      <point x="132" y="-166"/>
      <point x="109" y="-166" type="curve"/>
      <point x="92" y="-166"/>
      <point x="79" y="-162"/>
      <point x="68" y="-149" type="curve"/>
      <point x="52" y="-175"/>
      <point x="68" y="-149"/>
      <point x="52" y="-175" type="curve"/>
      <point x="68" y="-191"/>
      <point x="84" y="-198"/>
      <point x="107" y="-198" type="curve"/>
      <point x="151" y="-198"/>
      <point x="174" y="-163"/>
      <point x="174" y="-116" type="curve"/>
      <point x="174" y="-69"/>
      <point x="157" y="-32"/>
      <point x="116" y="-32" type="curve"/>
      <point x="96" y="-32"/>
      <point x="82" y="-38"/>
      <point x="66" y="-50" type="curve"/>
      <point x="95" y="-78"/>
      <point x="66" y="-50"/>
    </contour>
  </outline>
</glyph>
<glyph name="onesuperior" format="1">
  <advance width="296"/>
  <unicode hex="00B9"/>
  <outline>
    <contour>
      <point x="172" y="703" type="move" name="_top"/>
    </contour>
    <contour>
      <point x="176" y="302" type="move" name="_bottom"/>
    </contour>
    <contour>
      <point x="155" y="297" type="curve"/>
      <point x="189" y="297"/>
      <point x="197" y="297"/>
      <point x="230" y="297" type="curve"/>
      <point x="230" y="329"/>
      <point x="230" y="298"/>
      <point x="230" y="329" type="curve"/>
      <point x="209" y="329"/>
      <point x="213" y="329"/>
      <point x="191" y="329" type="curve"/>
      <point x="155" y="298"/>
      <point x="191" y="329"/>
    </contour>
    <contour>
      <point x="191" y="329" type="curve"/>
      <point x="159" y="329"/>
      <point x="150" y="329"/>
      <point x="116" y="329" type="curve"/>
      <point x="116" y="298"/>
      <point x="116" y="329"/>
      <point x="116" y="297" type="curve"/>
      <point x="137" y="297"/>
      <point x="133" y="297"/>
      <point x="155" y="297" type="curve"/>
      <point x="191" y="329"/>
      <point x="155" y="298"/>
    </contour>
    <contour>
      <point x="99" y="575" type="line"/>
      <point x="190" y="697" type="line"/>
      <point x="155" y="705" type="line"/>
      <point x="72" y="596" type="line"/>
    </contour>
    <contour>
      <point x="191" y="329" type="curve"/>
      <point x="191" y="705" type="line"/>
      <point x="155" y="705" type="line"/>
      <point x="155" y="297" type="line"/>
      <point x="191" y="329"/>
      <point x="155" y="298"/>
    </contour>
  </outline>
</glyph>
<glyph name="ordmasculine" format="1">
  <advance width="329"/>
  <unicode hex="00BA"/>
  <outline>
    <contour>
      <point x="103" y="605" type="curve"/>
      <point x="103" y="675"/>
      <point x="110" y="735"/>
      <point x="166" y="735" type="curve"/>
      <point x="220" y="735"/>
      <point x="224" y="674"/>
      <point x="224" y="603" type="curve"/>
      <point x="224" y="524"/>
      <point x="219" y="455"/>
      <point x="170" y="455" type="curve"/>
      <point x="107" y="455"/>
      <point x="103" y="525"/>
      <point x="103" y="605" type="curve"/>
      <point x="84" y="605"/>
      <point x="92" y="605"/>
      <point x="71" y="605" type="curve"/>
      <point x="71" y="507"/>
      <point x="87" y="425"/>
      <point x="168" y="425" type="curve"/>
      <point x="242" y="425"/>
      <point x="257" y="506"/>
      <point x="257" y="603" type="curve"/>
      <point x="257" y="692"/>
      <point x="243" y="764"/>
      <point x="168" y="764" type="curve"/>
      <point x="88" y="764"/>
      <point x="71" y="692"/>
      <point x="71" y="605" type="curve"/>
      <point x="92" y="605"/>
      <point x="84" y="605"/>
    </contour>
  </outline>
</glyph>
<glyph name="guillemotright" format="1">
  <advance width="463"/>
  <unicode hex="00BB"/>
  <outline>
    <contour>
      <point x="231" y="413" type="curve"/>
      <point x="237" y="408"/>
      <point x="388" y="303"/>
      <point x="393" y="298" type="curve"/>
      <point x="393" y="260"/>
      <point x="393" y="295"/>
      <point x="393" y="257" type="curve"/>
      <point x="388" y="262"/>
      <point x="237" y="368"/>
      <point x="231" y="374" type="curve"/>
      <point x="231" y="412"/>
      <point x="231" y="375"/>
    </contour>
    <contour>
      <point x="230" y="182" type="curve"/>
      <point x="236" y="187"/>
      <point x="388" y="293"/>
      <point x="393" y="298" type="curve"/>
      <point x="393" y="260"/>
      <point x="393" y="295"/>
      <point x="393" y="257" type="curve"/>
      <point x="388" y="252"/>
      <point x="236" y="148"/>
      <point x="230" y="143" type="curve"/>
      <point x="230" y="181"/>
      <point x="230" y="145"/>
    </contour>
    <contour>
      <point x="90" y="413" type="curve"/>
      <point x="96" y="408"/>
      <point x="247" y="303"/>
      <point x="253" y="298" type="curve"/>
      <point x="253" y="260"/>
      <point x="253" y="295"/>
      <point x="253" y="257" type="curve"/>
      <point x="247" y="262"/>
      <point x="96" y="368"/>
      <point x="90" y="374" type="curve"/>
      <point x="90" y="412"/>
      <point x="90" y="375"/>
    </contour>
    <contour>
      <point x="89" y="182" type="curve"/>
      <point x="95" y="187"/>
      <point x="247" y="293"/>
      <point x="253" y="298" type="curve"/>
      <point x="253" y="260"/>
      <point x="253" y="295"/>
      <point x="253" y="257" type="curve"/>
      <point x="247" y="252"/>
      <point x="95" y="148"/>
      <point x="89" y="143" type="curve"/>
      <point x="89" y="181"/>
      <point x="89" y="145"/>
    </contour>
  </outline>
</glyph>
<glyph name="onequarter" format="1">
  <advance width="606"/>
  <unicode hex="00BC"/>
  <outline>
    <contour>
      <point x="189" y="-85" type="line"/>
      <point x="451" y="750" type="line"/>
      <point x="408" y="750" type="line"/>
      <point x="147" y="-85" type="line"/>
    </contour>
    <contour>
      <point x="126" y="348" type="curve"/>
      <point x="158" y="348"/>
      <point x="166" y="348"/>
      <point x="199" y="348" type="curve"/>
      <point x="199" y="379"/>
      <point x="199" y="348"/>
      <point x="199" y="379" type="curve"/>
      <point x="178" y="379"/>
      <point x="182" y="379"/>
      <point x="162" y="379" type="curve"/>
      <point x="126" y="348"/>
      <point x="162" y="379"/>
    </contour>
    <contour>
      <point x="162" y="379" type="curve"/>
      <point x="129" y="379"/>
      <point x="120" y="379"/>
      <point x="85" y="379" type="curve"/>
      <point x="85" y="348"/>
      <point x="85" y="379"/>
      <point x="85" y="348" type="curve"/>
      <point x="108" y="348"/>
      <point x="103" y="348"/>
      <point x="125" y="348" type="curve"/>
      <point x="162" y="379"/>
      <point x="125" y="348"/>
    </contour>
    <contour>
      <point x="68" y="624" type="line"/>
      <point x="159" y="748" type="line"/>
      <point x="125" y="755" type="line"/>
      <point x="43" y="646" type="line"/>
    </contour>
    <contour>
      <point x="162" y="379" type="curve"/>
      <point x="162" y="755" type="line"/>
      <point x="125" y="755" type="line"/>
      <point x="125" y="348" type="line"/>
      <point x="162" y="379"/>
      <point x="125" y="348"/>
    </contour>
    <contour>
      <point x="580" y="63" type="line"/>
      <point x="324" y="63" type="line"/>
      <point x="324" y="34" type="line"/>
      <point x="580" y="34" type="line"/>
    </contour>
    <contour>
      <point x="342" y="34" type="line"/>
      <point x="499" y="340" type="line"/>
      <point x="469" y="350" type="line"/>
      <point x="324" y="63" type="line"/>
    </contour>
    <contour>
      <point x="504" y="-81" type="line"/>
      <point x="504" y="350" type="line"/>
      <point x="469" y="350" type="line"/>
      <point x="469" y="-81" type="line"/>
    </contour>
    <contour>
      <point x="486" y="-53" type="line"/>
      <point x="414" y="-53" type="line"/>
      <point x="414" y="-82" type="line"/>
      <point x="486" y="-82" type="line"/>
    </contour>
    <contour>
      <point x="486" y="-82" type="line"/>
      <point x="562" y="-82" type="line"/>
      <point x="562" y="-53" type="line"/>
      <point x="486" y="-53" type="line"/>
    </contour>
  </outline>
</glyph>
<glyph name="onehalf" format="1">
  <advance width="638"/>
  <unicode hex="00BD"/>
  <outline>
    <contour>
      <point x="205" y="-85" type="line"/>
      <point x="467" y="750" type="line"/>
      <point x="425" y="750" type="line"/>
      <point x="164" y="-85" type="line"/>
    </contour>
    <contour>
      <point x="123" y="348" type="curve"/>
      <point x="156" y="348"/>
      <point x="164" y="348"/>
      <point x="197" y="348" type="curve"/>
      <point x="197" y="379"/>
      <point x="197" y="348"/>
      <point x="197" y="379" type="curve"/>
      <point x="176" y="379"/>
      <point x="180" y="379"/>
      <point x="159" y="379" type="curve"/>
      <point x="123" y="348"/>
      <point x="159" y="379"/>
    </contour>
    <contour>
      <point x="159" y="379" type="curve"/>
      <point x="126" y="379"/>
      <point x="117" y="379"/>
      <point x="83" y="379" type="curve"/>
      <point x="83" y="348"/>
      <point x="83" y="379"/>
      <point x="83" y="348" type="curve"/>
      <point x="105" y="348"/>
      <point x="100" y="348"/>
      <point x="122" y="348" type="curve"/>
      <point x="159" y="379"/>
      <point x="122" y="348"/>
    </contour>
    <contour>
      <point x="66" y="624" type="line"/>
      <point x="157" y="748" type="line"/>
      <point x="122" y="755" type="line"/>
      <point x="40" y="646" type="line"/>
    </contour>
    <contour>
      <point x="159" y="379" type="curve"/>
      <point x="159" y="755" type="line"/>
      <point x="122" y="755" type="line"/>
      <point x="122" y="348" type="line"/>
      <point x="159" y="379"/>
      <point x="122" y="348"/>
    </contour>
    <contour>
      <point x="597" y="-82" type="curve"/>
      <point x="597" y="-44"/>
      <point x="597" y="-35"/>
      <point x="597" y="5" type="curve"/>
      <point x="563" y="5"/>
      <point x="600" y="5"/>
      <point x="566" y="5" type="curve"/>
      <point x="566" y="-24"/>
      <point x="566" y="-22"/>
      <point x="566" y="-51" type="curve"/>
      <point x="600" y="-82"/>
      <point x="563" y="-51"/>
    </contour>
    <contour>
      <point x="388" y="-82" type="curve"/>
      <point x="456" y="-82"/>
      <point x="529" y="-82"/>
      <point x="597" y="-82" type="curve"/>
      <point x="563" y="-51"/>
      <point x="600" y="-82"/>
      <point x="566" y="-51" type="curve"/>
      <point x="508" y="-51"/>
      <point x="447" y="-51"/>
      <point x="388" y="-51" type="curve"/>
      <point x="388" y="-82"/>
      <point x="388" y="-51"/>
    </contour>
    <contour>
      <point x="437" y="232" type="curve"/>
      <point x="447" y="269"/>
      <point x="459" y="304"/>
      <point x="497" y="304" type="curve"/>
      <point x="539" y="304"/>
      <point x="551" y="261"/>
      <point x="551" y="212" type="curve"/>
      <point x="551" y="166"/>
      <point x="533" y="136"/>
      <point x="506" y="98" type="curve"/>
      <point x="468" y="49"/>
      <point x="428" y="-1"/>
      <point x="388" y="-51" type="curve"/>
      <point x="399" y="-82"/>
      <point x="388" y="-51"/>
      <point x="398" y="-82" type="curve"/>
      <point x="441" y="-30"/>
      <point x="489" y="22"/>
      <point x="530" y="74" type="curve"/>
      <point x="564" y="120"/>
      <point x="586" y="157"/>
      <point x="586" y="214" type="curve"/>
      <point x="586" y="282"/>
      <point x="558" y="335"/>
      <point x="498" y="335" type="curve"/>
      <point x="448" y="335"/>
      <point x="422" y="301"/>
      <point x="408" y="242" type="curve"/>
      <point x="437" y="232"/>
      <point x="408" y="242"/>
    </contour>
  </outline>
</glyph>
<glyph name="threequarters" format="1">
  <advance width="631"/>
  <unicode hex="00BE"/>
  <outline>
    <contour>
      <point x="215" y="-85" type="line"/>
      <point x="477" y="750" type="line"/>
      <point x="435" y="750" type="line"/>
      <point x="174" y="-85" type="line"/>
    </contour>
    <contour>
      <point x="74" y="680" type="curve"/>
      <point x="85" y="700"/>
      <point x="100" y="722"/>
      <point x="124" y="722" type="curve"/>
      <point x="164" y="722"/>
      <point x="181" y="686"/>
      <point x="181" y="642" type="curve"/>
      <point x="181" y="598"/>
      <point x="146" y="564"/>
      <point x="99" y="559" type="curve"/>
      <point x="99" y="532"/>
      <point x="99" y="559"/>
      <point x="99" y="532" type="curve"/>
      <point x="168" y="535"/>
      <point x="217" y="578"/>
      <point x="217" y="644" type="curve"/>
      <point x="217" y="707"/>
      <point x="188" y="752"/>
      <point x="128" y="752" type="curve"/>
      <point x="94" y="752"/>
      <point x="65" y="728"/>
      <point x="49" y="698" type="curve"/>
      <point x="74" y="680"/>
      <point x="49" y="698"/>
    </contour>
    <contour>
      <point x="47" y="365" type="curve"/>
      <point x="67" y="343"/>
      <point x="91" y="331"/>
      <point x="119" y="331" type="curve"/>
      <point x="188" y="328"/>
      <point x="227" y="376"/>
      <point x="226" y="446" type="curve"/>
      <point x="226" y="514"/>
      <point x="171" y="548"/>
      <point x="99" y="552" type="curve"/>
      <point x="99" y="529"/>
      <point x="99" y="552"/>
      <point x="99" y="529" type="curve"/>
      <point x="154" y="524"/>
      <point x="190" y="491"/>
      <point x="190" y="444" type="curve"/>
      <point x="189" y="397"/>
      <point x="168" y="360"/>
      <point x="123" y="361" type="curve"/>
      <point x="101" y="361"/>
      <point x="82" y="372"/>
      <point x="65" y="388" type="curve"/>
      <point x="47" y="365"/>
      <point x="65" y="388"/>
    </contour>
    <contour>
      <point x="607" y="63" type="line"/>
      <point x="351" y="63" type="line"/>
      <point x="351" y="34" type="line"/>
      <point x="607" y="34" type="line"/>
    </contour>
    <contour>
      <point x="369" y="34" type="line"/>
      <point x="526" y="340" type="line"/>
      <point x="496" y="350" type="line"/>
      <point x="351" y="63" type="line"/>
    </contour>
    <contour>
      <point x="531" y="-81" type="line"/>
      <point x="531" y="350" type="line"/>
      <point x="496" y="350" type="line"/>
      <point x="496" y="-81" type="line"/>
    </contour>
    <contour>
      <point x="513" y="-53" type="line"/>
      <point x="440" y="-53" type="line"/>
      <point x="440" y="-82" type="line"/>
      <point x="513" y="-82" type="line"/>
    </contour>
    <contour>
      <point x="513" y="-82" type="line"/>
      <point x="589" y="-82" type="line"/>
      <point x="589" y="-53" type="line"/>
      <point x="513" y="-53" type="line"/>
    </contour>
  </outline>
</glyph>
<glyph name="questiondown" format="1">
  <advance width="381"/>
  <unicode hex="00BF"/>
  <outline>
    <contour>
      <point x="220" y="374" type="curve"/>
      <point x="220" y="411"/>
      <point x="220" y="456"/>
      <point x="220" y="493" type="curve"/>
      <point x="181" y="493"/>
      <point x="220" y="493"/>
      <point x="181" y="493" type="curve"/>
      <point x="181" y="456"/>
      <point x="181" y="411"/>
      <point x="181" y="374" type="curve"/>
      <point x="220" y="374"/>
      <point x="181" y="374"/>
    </contour>
    <contour>
      <point x="296" y="100" type="line"/>
      <point x="279" y="64"/>
      <point x="253" y="35"/>
      <point x="206" y="35" type="curve"/>
      <point x="128" y="35"/>
      <point x="102" y="110"/>
      <point x="102" y="196" type="curve"/>
      <point x="102" y="290"/>
      <point x="131" y="374"/>
      <point x="213" y="374" type="curve"/>
      <point x="213" y="401"/>
      <point x="213" y="382"/>
      <point x="213" y="409" type="curve"/>
      <point x="108" y="409"/>
      <point x="61" y="312"/>
      <point x="61" y="196" type="curve"/>
      <point x="61" y="88"/>
      <point x="106" y="-2"/>
      <point x="204" y="-2" type="curve"/>
      <point x="268" y="-2"/>
      <point x="301" y="33"/>
      <point x="323" y="77" type="curve"/>
    </contour>
    <contour>
      <point x="176" y="694" type="curve"/>
      <point x="176" y="678"/>
      <point x="186" y="668"/>
      <point x="202" y="668" type="curve"/>
      <point x="217" y="668"/>
      <point x="227" y="679"/>
      <point x="227" y="694" type="curve"/>
      <point x="176" y="694"/>
      <point x="227" y="694"/>
      <point x="176" y="694" type="curve"/>
      <point x="176" y="711"/>
      <point x="186" y="719"/>
      <point x="202" y="719" type="curve"/>
      <point x="217" y="719"/>
      <point x="227" y="710"/>
      <point x="227" y="694" type="curve"/>
      <point x="176" y="694"/>
      <point x="227" y="694"/>
    </contour>
  </outline>
</glyph>
<glyph name="Aacute" format="1">
  <advance width="545"/>
  <unicode hex="00C1"/>
  <outline>
    <contour>
      <point x="88" y="35" type="curve"/>
      <point x="-41" y="35"/>
      <point x="110" y="35"/>
      <point x="-20" y="35" type="curve"/>
      <point x="-20" y="0"/>
      <point x="-20" y="35"/>
      <point x="-20" y="0" type="curve"/>
      <point x="23" y="0"/>
      <point x="45" y="0"/>
      <point x="88" y="0" type="curve"/>
      <point x="88" y="35"/>
      <point x="88" y="0"/>
    </contour>
    <contour>
      <point x="88" y="0" type="curve"/>
      <point x="135" y="0"/>
      <point x="68" y="0"/>
      <point x="206" y="0" type="curve"/>
      <point x="206" y="35"/>
      <point x="206" y="0"/>
      <point x="206" y="35" type="curve"/>
      <point x="68" y="35"/>
      <point x="226" y="35"/>
      <point x="88" y="35" type="curve"/>
      <point x="88" y="0"/>
      <point x="88" y="35"/>
    </contour>
    <contour>
      <point x="423" y="0" type="curve"/>
      <point x="467" y="0"/>
      <point x="488" y="0"/>
      <point x="531" y="0" type="curve"/>
      <point x="531" y="35"/>
      <point x="531" y="0"/>
      <point x="531" y="35" type="curve"/>
      <point x="402" y="35"/>
      <point x="553" y="35"/>
      <point x="423" y="35" type="curve"/>
      <point x="423" y="0"/>
      <point x="423" y="35"/>
    </contour>
    <contour>
      <point x="423" y="35" type="curve"/>
      <point x="285" y="35"/>
      <point x="443" y="35"/>
      <point x="304" y="35" type="curve"/>
      <point x="304" y="0"/>
      <point x="304" y="35"/>
      <point x="304" y="0" type="curve"/>
      <point x="350" y="0"/>
      <point x="377" y="0"/>
      <point x="423" y="0" type="curve"/>
      <point x="423" y="35"/>
      <point x="423" y="0"/>
    </contour>
    <contour>
      <point x="363" y="279" type="curve"/>
      <point x="295" y="279"/>
      <point x="227" y="279"/>
      <point x="159" y="279" type="curve"/>
      <point x="142" y="242"/>
      <point x="159" y="279"/>
      <point x="142" y="242" type="curve"/>
      <point x="221" y="242"/>
      <point x="298" y="242"/>
      <point x="376" y="242" type="curve"/>
      <point x="363" y="279"/>
      <point x="376" y="242"/>
    </contour>
    <contour>
      <point x="451" y="0" type="curve"/>
      <point x="395" y="241"/>
      <point x="340" y="481"/>
      <point x="284" y="722" type="curve"/>
      <point x="247" y="722"/>
      <point x="284" y="722"/>
      <point x="247" y="722" type="curve"/>
      <point x="301" y="481"/>
      <point x="354" y="241"/>
      <point x="409" y="0" type="curve"/>
      <point x="451" y="0"/>
      <point x="409" y="0"/>
    </contour>
    <contour>
      <point x="103" y="0" type="curve"/>
      <point x="164" y="241"/>
      <point x="222" y="481"/>
      <point x="283" y="722" type="curve"/>
      <point x="245" y="722"/>
      <point x="283" y="722"/>
      <point x="245" y="722" type="curve"/>
      <point x="184" y="481"/>
      <point x="121" y="241"/>
      <point x="58" y="0" type="curve"/>
      <point x="103" y="0"/>
      <point x="58" y="0"/>
    </contour>
    <contour>
      <point x="282" y="818" type="line"/>
      <point x="346" y="984" type="line"/>
      <point x="295" y="984" type="line"/>
      <point x="243" y="818" type="line"/>
    </contour>
  </outline>
</glyph>
<glyph name="Atilde" format="1">
  <advance width="545"/>
  <unicode hex="00C3"/>
  <outline>
    <contour>
      <point x="88" y="35" type="curve"/>
      <point x="-41" y="35"/>
      <point x="110" y="35"/>
      <point x="-20" y="35" type="curve"/>
      <point x="-20" y="0"/>
      <point x="-20" y="35"/>
      <point x="-20" y="0" type="curve"/>
      <point x="23" y="0"/>
      <point x="45" y="0"/>
      <point x="88" y="0" type="curve"/>
      <point x="88" y="35"/>
      <point x="88" y="0"/>
    </contour>
    <contour>
      <point x="88" y="0" type="curve"/>
      <point x="135" y="0"/>
      <point x="68" y="0"/>
      <point x="206" y="0" type="curve"/>
      <point x="206" y="35"/>
      <point x="206" y="0"/>
      <point x="206" y="35" type="curve"/>
      <point x="68" y="35"/>
      <point x="226" y="35"/>
      <point x="88" y="35" type="curve"/>
      <point x="88" y="0"/>
      <point x="88" y="35"/>
    </contour>
    <contour>
      <point x="423" y="0" type="curve"/>
      <point x="467" y="0"/>
      <point x="488" y="0"/>
      <point x="531" y="0" type="curve"/>
      <point x="531" y="35"/>
      <point x="531" y="0"/>
      <point x="531" y="35" type="curve"/>
      <point x="402" y="35"/>
      <point x="553" y="35"/>
      <point x="423" y="35" type="curve"/>
      <point x="423" y="0"/>
      <point x="423" y="35"/>
    </contour>
    <contour>
      <point x="423" y="35" type="curve"/>
      <point x="285" y="35"/>
      <point x="443" y="35"/>
      <point x="304" y="35" type="curve"/>
      <point x="304" y="0"/>
      <point x="304" y="35"/>
      <point x="304" y="0" type="curve"/>
      <point x="350" y="0"/>
      <point x="377" y="0"/>
      <point x="423" y="0" type="curve"/>
      <point x="423" y="35"/>
      <point x="423" y="0"/>
    </contour>
    <contour>
      <point x="363" y="279" type="curve"/>
      <point x="295" y="279"/>
      <point x="227" y="279"/>
      <point x="159" y="279" type="curve"/>
      <point x="142" y="242"/>
      <point x="159" y="279"/>
      <point x="142" y="242" type="curve"/>
      <point x="221" y="242"/>
      <point x="298" y="242"/>
      <point x="376" y="242" type="curve"/>
      <point x="363" y="279"/>
      <point x="376" y="242"/>
    </contour>
    <contour>
      <point x="451" y="0" type="curve"/>
      <point x="395" y="241"/>
      <point x="340" y="481"/>
      <point x="284" y="722" type="curve"/>
      <point x="247" y="722"/>
      <point x="284" y="722"/>
      <point x="247" y="722" type="curve"/>
      <point x="301" y="481"/>
      <point x="354" y="241"/>
      <point x="409" y="0" type="curve"/>
      <point x="451" y="0"/>
      <point x="409" y="0"/>
    </contour>
    <contour>
      <point x="103" y="0" type="curve"/>
      <point x="164" y="241"/>
      <point x="222" y="481"/>
      <point x="283" y="722" type="curve"/>
      <point x="245" y="722"/>
      <point x="283" y="722"/>
      <point x="245" y="722" type="curve"/>
      <point x="184" y="481"/>
      <point x="121" y="241"/>
      <point x="58" y="0" type="curve"/>
      <point x="103" y="0"/>
      <point x="58" y="0"/>
    </contour>
    <contour>
      <point x="361" y="953" type="curve"/>
      <point x="352" y="906"/>
      <point x="349" y="859"/>
      <point x="321" y="859" type="curve"/>
      <point x="295" y="859"/>
      <point x="285" y="880"/>
      <point x="272" y="904" type="curve"/>
      <point x="255" y="932"/>
      <point x="243" y="955"/>
      <point x="211" y="955" type="curve"/>
      <point x="155" y="955"/>
      <point x="148" y="895"/>
      <point x="139" y="834" type="curve"/>
      <point x="171" y="819"/>
      <point x="139" y="834"/>
      <point x="171" y="819" type="curve"/>
      <point x="180" y="870"/>
      <point x="181" y="914"/>
      <point x="217" y="914" type="curve"/>
      <point x="242" y="914"/>
      <point x="248" y="892"/>
      <point x="259" y="871" type="curve"/>
      <point x="277" y="841"/>
      <point x="292" y="818"/>
      <point x="325" y="818" type="curve"/>
      <point x="382" y="818"/>
      <point x="384" y="879"/>
      <point x="395" y="940" type="curve"/>
      <point x="361" y="953"/>
      <point x="395" y="940"/>
    </contour>
  </outline>
</glyph>
<glyph name="AE" format="1">
  <advance width="672"/>
  <unicode hex="00C6"/>
  <outline>
    <contour>
      <point x="78" y="35" type="curve"/>
      <point x="-24" y="35"/>
      <point x="86" y="35"/>
      <point x="-16" y="35" type="curve"/>
      <point x="-16" y="0"/>
      <point x="-16" y="35"/>
      <point x="-16" y="0" type="curve"/>
      <point x="18" y="0"/>
      <point x="44" y="0"/>
      <point x="78" y="0" type="curve"/>
      <point x="78" y="35"/>
      <point x="78" y="0"/>
    </contour>
    <contour>
      <point x="78" y="0" type="curve"/>
      <point x="115" y="0"/>
      <point x="64" y="0"/>
      <point x="176" y="0" type="curve"/>
      <point x="176" y="35"/>
      <point x="176" y="0"/>
      <point x="176" y="35" type="curve"/>
      <point x="64" y="35"/>
      <point x="190" y="35"/>
      <point x="78" y="35" type="curve"/>
      <point x="78" y="0"/>
      <point x="78" y="35"/>
    </contour>
    <contour>
      <point x="356" y="282" type="curve"/>
      <point x="287" y="282"/>
      <point x="251" y="282"/>
      <point x="182" y="282" type="curve"/>
      <point x="165" y="245"/>
      <point x="182" y="282"/>
      <point x="165" y="245" type="curve"/>
      <point x="244" y="245"/>
      <point x="291" y="245"/>
      <point x="369" y="245" type="curve"/>
      <point x="356" y="282"/>
      <point x="369" y="245"/>
    </contour>
    <contour>
      <point x="93" y="0" type="curve"/>
      <point x="381" y="722" type="line"/>
      <point x="343" y="722"/>
      <point x="382" y="722"/>
      <point x="344" y="722" type="curve"/>
      <point x="49" y="0" type="line"/>
      <point x="94" y="0"/>
      <point x="48" y="0"/>
    </contour>
    <contour>
      <point x="625" y="17" type="curve"/>
      <point x="625" y="137"/>
      <point x="625" y="7"/>
      <point x="625" y="128" type="curve"/>
      <point x="591" y="128"/>
      <point x="625" y="128"/>
      <point x="591" y="128" type="curve"/>
      <point x="591" y="7"/>
      <point x="591" y="137"/>
      <point x="591" y="17" type="curve"/>
      <point x="625" y="17"/>
      <point x="591" y="17"/>
    </contour>
    <contour>
      <point x="569" y="705" type="curve"/>
      <point x="569" y="585"/>
      <point x="569" y="715"/>
      <point x="569" y="595" type="curve"/>
      <point x="604" y="595"/>
      <point x="569" y="595"/>
      <point x="604" y="595" type="curve"/>
      <point x="604" y="715"/>
      <point x="604" y="585"/>
      <point x="604" y="705" type="curve"/>
      <point x="569" y="705"/>
      <point x="604" y="705"/>
    </contour>
    <contour>
      <point x="363" y="35" type="curve"/>
      <point x="235" y="35"/>
      <point x="383" y="35"/>
      <point x="255" y="35" type="curve"/>
      <point x="255" y="0"/>
      <point x="255" y="35"/>
      <point x="255" y="0" type="curve"/>
      <point x="298" y="0"/>
      <point x="321" y="0"/>
      <point x="363" y="0" type="curve"/>
      <point x="363" y="35"/>
      <point x="363" y="0"/>
    </contour>
    <contour>
      <point x="363" y="722" type="curve"/>
      <point x="321" y="722"/>
      <point x="298" y="722"/>
      <point x="255" y="722" type="curve"/>
      <point x="255" y="687"/>
      <point x="255" y="722"/>
      <point x="255" y="687" type="curve"/>
      <point x="383" y="687"/>
      <point x="235" y="687"/>
      <point x="363" y="687" type="curve"/>
      <point x="363" y="722"/>
      <point x="363" y="687"/>
    </contour>
    <contour>
      <point x="365" y="356" type="curve"/>
      <point x="432" y="356"/>
      <point x="499" y="356"/>
      <point x="566" y="356" type="curve"/>
      <point x="566" y="391"/>
      <point x="566" y="356"/>
      <point x="566" y="391" type="curve"/>
      <point x="499" y="391"/>
      <point x="432" y="391"/>
      <point x="365" y="391" type="curve"/>
      <point x="365" y="356"/>
      <point x="365" y="391"/>
    </contour>
    <contour>
      <point x="356" y="687" type="curve"/>
      <point x="439" y="687"/>
      <point x="522" y="687"/>
      <point x="604" y="687" type="curve"/>
      <point x="604" y="722"/>
      <point x="604" y="687"/>
      <point x="604" y="722" type="curve"/>
      <point x="522" y="722"/>
      <point x="439" y="722"/>
      <point x="356" y="722" type="curve"/>
      <point x="356" y="687"/>
      <point x="356" y="722"/>
    </contour>
    <contour>
      <point x="384" y="0" type="curve"/>
      <point x="384" y="722" type="line"/>
      <point x="343" y="722"/>
      <point x="384" y="722"/>
      <point x="343" y="722" type="curve"/>
      <point x="343" y="481"/>
      <point x="343" y="241"/>
      <point x="343" y="0" type="curve"/>
      <point x="384" y="0"/>
      <point x="343" y="0"/>
    </contour>
    <contour>
      <point x="356" y="0" type="curve"/>
      <point x="446" y="0"/>
      <point x="536" y="0"/>
      <point x="625" y="0" type="curve"/>
      <point x="625" y="35"/>
      <point x="625" y="0"/>
      <point x="625" y="35" type="curve"/>
      <point x="536" y="35"/>
      <point x="446" y="35"/>
      <point x="356" y="35" type="curve"/>
      <point x="356" y="0"/>
      <point x="356" y="35"/>
    </contour>
  </outline>
</glyph>
<glyph name="Ccedilla" format="1">
  <advance width="477"/>
  <unicode hex="00C7"/>
  <outline>
    <contour>
      <point x="384" y="655" type="curve"/>
      <point x="384" y="535"/>
      <point x="384" y="656"/>
      <point x="384" y="536" type="curve"/>
      <point x="419" y="536"/>
      <point x="384" y="536"/>
      <point x="419" y="536" type="curve"/>
      <point x="419" y="656"/>
      <point x="419" y="535"/>
      <point x="419" y="655" type="curve"/>
      <point x="384" y="655"/>
      <point x="419" y="655"/>
    </contour>
    <contour>
      <point x="419" y="655" type="curve"/>
      <point x="380" y="694"/>
      <point x="332" y="727"/>
      <point x="272" y="727" type="curve"/>
      <point x="97" y="727"/>
      <point x="64" y="555"/>
      <point x="64" y="344" type="curve"/>
      <point x="64" y="153"/>
      <point x="98" y="-5"/>
      <point x="260" y="-5" type="curve"/>
      <point x="339" y="-5"/>
      <point x="386" y="34"/>
      <point x="431" y="97" type="curve"/>
      <point x="405" y="123"/>
      <point x="430" y="97"/>
      <point x="404" y="123" type="curve"/>
      <point x="366" y="71"/>
      <point x="329" y="34"/>
      <point x="262" y="34" type="curve"/>
      <point x="123" y="34"/>
      <point x="105" y="177"/>
      <point x="105" y="346" type="curve"/>
      <point x="105" y="530"/>
      <point x="124" y="690"/>
      <point x="271" y="690" type="curve"/>
      <point x="322" y="690"/>
      <point x="364" y="661"/>
      <point x="397" y="628" type="curve"/>
      <point x="419" y="655"/>
      <point x="397" y="628"/>
    </contour>
    <contour>
      <point x="237" y="19" type="curve"/>
      <point x="227" y="-7"/>
      <point x="215" y="-44"/>
      <point x="206" y="-70" type="curve"/>
      <point x="235" y="-98"/>
      <point x="206" y="-70"/>
      <point x="235" y="-98" type="curve"/>
      <point x="244" y="-70"/>
      <point x="258" y="-32"/>
      <point x="268" y="-5" type="curve"/>
      <point x="237" y="19"/>
      <point x="268" y="-5"/>
    </contour>
    <contour>
      <point x="235" y="-98" type="curve"/>
      <point x="241" y="-89"/>
      <point x="247" y="-85"/>
      <point x="257" y="-85" type="curve"/>
      <point x="280" y="-85"/>
      <point x="282" y="-109"/>
      <point x="282" y="-136" type="curve"/>
      <point x="282" y="-164"/>
      <point x="272" y="-185"/>
      <point x="248" y="-185" type="curve"/>
      <point x="232" y="-185"/>
      <point x="220" y="-181"/>
      <point x="208" y="-169" type="curve"/>
      <point x="191" y="-195"/>
      <point x="208" y="-169"/>
      <point x="191" y="-195" type="curve"/>
      <point x="208" y="-211"/>
      <point x="224" y="-218"/>
      <point x="246" y="-218" type="curve"/>
      <point x="291" y="-218"/>
      <point x="314" y="-183"/>
      <point x="314" y="-136" type="curve"/>
      <point x="314" y="-89"/>
      <point x="297" y="-52"/>
      <point x="256" y="-52" type="curve"/>
      <point x="236" y="-52"/>
      <point x="222" y="-57"/>
      <point x="206" y="-70" type="curve"/>
      <point x="235" y="-98"/>
      <point x="206" y="-70"/>
    </contour>
  </outline>
</glyph>
<glyph name="Egrave" format="1">
  <advance width="459"/>
  <unicode hex="00C8"/>
  <outline>
    <contour>
      <point x="413" y="17" type="curve"/>
      <point x="413" y="137"/>
      <point x="413" y="7"/>
      <point x="413" y="128" type="curve"/>
      <point x="378" y="128"/>
      <point x="413" y="128"/>
      <point x="378" y="128" type="curve"/>
      <point x="378" y="7"/>
      <point x="378" y="137"/>
      <point x="378" y="17" type="curve"/>
      <point x="413" y="17"/>
      <point x="378" y="17"/>
    </contour>
    <contour>
      <point x="357" y="705" type="curve"/>
      <point x="357" y="585"/>
      <point x="357" y="715"/>
      <point x="357" y="595" type="curve"/>
      <point x="392" y="595"/>
      <point x="357" y="595"/>
      <point x="392" y="595" type="curve"/>
      <point x="392" y="715"/>
      <point x="392" y="585"/>
      <point x="392" y="705" type="curve"/>
      <point x="357" y="705"/>
      <point x="392" y="705"/>
    </contour>
    <contour>
      <point x="150" y="35" type="curve"/>
      <point x="23" y="35"/>
      <point x="170" y="35"/>
      <point x="43" y="35" type="curve"/>
      <point x="43" y="0"/>
      <point x="43" y="35"/>
      <point x="43" y="0" type="curve"/>
      <point x="85" y="0"/>
      <point x="108" y="0"/>
      <point x="150" y="0" type="curve"/>
      <point x="150" y="35"/>
      <point x="150" y="0"/>
    </contour>
    <contour>
      <point x="150" y="722" type="curve"/>
      <point x="108" y="722"/>
      <point x="85" y="722"/>
      <point x="43" y="722" type="curve"/>
      <point x="43" y="687"/>
      <point x="43" y="722"/>
      <point x="43" y="687" type="curve"/>
      <point x="170" y="687"/>
      <point x="23" y="687"/>
      <point x="150" y="687" type="curve"/>
      <point x="150" y="722"/>
      <point x="150" y="687"/>
    </contour>
    <contour>
      <point x="152" y="356" type="curve"/>
      <point x="219" y="356"/>
      <point x="286" y="356"/>
      <point x="354" y="356" type="curve"/>
      <point x="354" y="391"/>
      <point x="354" y="356"/>
      <point x="354" y="391" type="curve"/>
      <point x="286" y="391"/>
      <point x="219" y="391"/>
      <point x="152" y="391" type="curve"/>
      <point x="152" y="356"/>
      <point x="152" y="391"/>
    </contour>
    <contour>
      <point x="144" y="687" type="curve"/>
      <point x="227" y="687"/>
      <point x="309" y="687"/>
      <point x="392" y="687" type="curve"/>
      <point x="392" y="722"/>
      <point x="392" y="687"/>
      <point x="392" y="722" type="curve"/>
      <point x="309" y="722"/>
      <point x="227" y="722"/>
      <point x="144" y="722" type="curve"/>
      <point x="144" y="687"/>
      <point x="144" y="722"/>
    </contour>
    <contour>
      <point x="171" y="0" type="curve"/>
      <point x="171" y="722" type="line"/>
      <point x="130" y="722"/>
      <point x="171" y="722"/>
      <point x="130" y="722" type="curve"/>
      <point x="130" y="481"/>
      <point x="130" y="241"/>
      <point x="130" y="0" type="curve"/>
      <point x="171" y="0"/>
      <point x="130" y="0"/>
    </contour>
    <contour>
      <point x="144" y="0" type="curve"/>
      <point x="233" y="0"/>
      <point x="323" y="0"/>
      <point x="413" y="0" type="curve"/>
      <point x="413" y="35"/>
      <point x="413" y="0"/>
      <point x="413" y="35" type="curve"/>
      <point x="323" y="35"/>
      <point x="233" y="35"/>
      <point x="144" y="35" type="curve"/>
      <point x="144" y="0"/>
      <point x="144" y="35"/>
    </contour>
    <contour>
      <point x="253" y="819" type="line"/>
      <point x="201" y="985" type="line"/>
      <point x="152" y="985" type="line"/>
      <point x="214" y="819" type="line"/>
    </contour>
  </outline>
</glyph>
<glyph name="Igrave" format="1">
  <advance width="291"/>
  <unicode hex="00CC"/>
  <outline>
    <contour>
      <point x="144" y="722" type="curve"/>
      <point x="102" y="722"/>
      <point x="79" y="722"/>
      <point x="36" y="722" type="curve"/>
      <point x="36" y="687"/>
      <point x="36" y="722"/>
      <point x="36" y="687" type="curve"/>
      <point x="163" y="687"/>
      <point x="17" y="687"/>
      <point x="144" y="687" type="curve"/>
      <point x="144" y="722"/>
      <point x="144" y="687"/>
    </contour>
    <contour>
      <point x="144" y="687" type="curve"/>
      <point x="272" y="687"/>
      <point x="125" y="687"/>
      <point x="253" y="687" type="curve"/>
      <point x="253" y="722"/>
      <point x="253" y="687"/>
      <point x="253" y="722" type="curve"/>
      <point x="210" y="722"/>
      <point x="186" y="722"/>
      <point x="144" y="722" type="curve"/>
      <point x="144" y="687"/>
      <point x="144" y="722"/>
    </contour>
    <contour>
      <point x="144" y="0" type="curve"/>
      <point x="186" y="0"/>
      <point x="210" y="0"/>
      <point x="253" y="0" type="curve"/>
      <point x="253" y="35"/>
      <point x="253" y="0"/>
      <point x="253" y="35" type="curve"/>
      <point x="125" y="35"/>
      <point x="272" y="35"/>
      <point x="144" y="35" type="curve"/>
      <point x="144" y="0"/>
      <point x="144" y="35"/>
    </contour>
    <contour>
      <point x="144" y="35" type="curve"/>
      <point x="17" y="35"/>
      <point x="163" y="35"/>
      <point x="36" y="35" type="curve"/>
      <point x="36" y="0"/>
      <point x="36" y="35"/>
      <point x="36" y="0" type="curve"/>
      <point x="79" y="0"/>
      <point x="102" y="0"/>
      <point x="144" y="0" type="curve"/>
      <point x="144" y="35"/>
      <point x="144" y="0"/>
    </contour>
    <contour>
      <point x="165" y="0" type="curve"/>
      <point x="165" y="241"/>
      <point x="165" y="481"/>
      <point x="165" y="722" type="curve"/>
      <point x="124" y="722"/>
      <point x="165" y="722"/>
      <point x="124" y="722" type="curve"/>
      <point x="124" y="481"/>
      <point x="124" y="241"/>
      <point x="124" y="0" type="curve"/>
      <point x="165" y="0"/>
      <point x="124" y="0"/>
    </contour>
    <contour>
      <point x="167" y="819" type="line"/>
      <point x="115" y="985" type="line"/>
      <point x="65" y="985" type="line"/>
      <point x="127" y="819" type="line"/>
    </contour>
  </outline>
</glyph>
